<svg xmlns="http://www.w3.org/2000/svg" width="2314" height="266" viewBox="0 0 2314 266"><g><g opacity=".13"><path fill="#c6c6c6" d="M1897.25 128.386c-44.347-28.904-133.888-76.064-274.1-80.628-125.866-4.09-206.553 14.093-213.154 3.042-9.086-15.213 137.265-42.438 289.647-40.466 152.38 1.971 263.162 70.892 288.227 107.403 25.065 36.51-46.274 39.554-90.62 10.649zM750.03 219.104c-136.895 31.375-458.47 27.736-440.408-7.607 8.838-17.294 194.229-.608 298.67-22.332 117.614-24.475 270.52-71.793 328.764-52.661 44.346 14.58-50.13 51.212-187.026 82.6zm1496.205-19.777c-200.861-28.308-206.306-118.101-326.219-162.523-224.723-83.245-487.624-8.726-950.182 59.635-81.289 12.012-162.516 20.677-243.203 26.543a3628.729 3628.729 0 0 1-107.51 6.207c-148.788 13.12-270.366 42.17-387.194 60.852C154.742 202.38 79.546 210.012 0 205.704v27.578c323.489 22.43 464.456 39.882 639.234 28.941a1172.878 1172.878 0 0 0 52.182-4.016l.278-.025c322.224-32.166 476.163-184.708 931.642-157.045C1897.85 117.81 1861.248 203.1 2258.375 229.52c19.095 1.266 37.42 2.52 55.344 3.761v-27.444c-22.12-1.193-44.547-3.286-67.484-6.511z"/></g></g></svg>