<svg xmlns="http://www.w3.org/2000/svg" width="2314" height="189" viewBox="0 0 2314 189"><g><g opacity=".13"><path fill="#a8a5a5" d="M679.184 108.584c-131.99 16.32-185.298 44.847-221.13 24.474-19.404-11.038 139.564-85.216 280.763-76.892 141.198 8.312 255.604 62.336 249.727 73.655-5.861 11.306-177.354-37.546-309.36-21.237zM1847.52 18.633c-175.92-10.308-124.34 47.83-41.971 83.172 82.353 35.342-17.122 52.283-223.845-4.065-206.707-56.349-298.099-32.045-251.578 21.079 46.521 53.123 4.288 19.667-222.009-56.738-226.312-76.405-439.76-82.016-597.71-14.057-157.95 67.947-287.766 121.448-267.898 87.42 19.836-34.017 133.254-101.586-7.312-112.466C150.577 16.43 59.293 13.838 0 12.803v12.9c6.108-.17 11.8-.206 16.828-.011C69.936 27.822 77.741 50.908 0 65.683V83.83c104.102-18.596 245.393-35.939 219.958 5.526-29.338 47.805-27.457 102.17 101.896 99.455 129.337-2.726 300.012-89.598 603.819-38.007 303.79 51.59 524.597 36.072 465.628-6.463-58.985-42.51 1.218-69.505 161.405-15.237 160.186 54.267 518.365 7.424 380.298-12.17-85.021-12.061-202.82-78.742-22.212-38.447 198.934 44.373 358.966 13.765 358.966 13.765a2165.41 2165.41 0 0 1 43.96-8.337V65.793c-11.537 2.178-24.864 4.174-40.258 5.89-120.02 13.375-361.063 3.274-373.157-19.229-9.717-18.085 35.832-8.629 130.109-4.844 86.317 3.445 215.253-19.776 283.307-21.845V12.146c-18.217-.036-39.133-.036-63.936-.036 0 0-301.956 12.389-402.263 6.523z"/></g></g></svg>