<svg xmlns="http://www.w3.org/2000/svg" width="2000" height="185" viewBox="0 0 2000 185"><g><g opacity=".15"><path fill="#f8f8f8" d="M1646.456 34.923c180.457 32.665 354.099 33.466 354.099 33.466s-112.168 54.785-318.952 15.566c-206.827-39.208-301.558-42.027-323.032 26.642-21.49 68.659-209.018 36.005-440.655-3.665-231.652-39.682-418.522 40.798-490.117 60.334-71.596 19.536-152.74 33.376-168.732-23.428C243.076 87.023 0 131.735 0 131.735c135.031-62.037 267.9-89.807 296.533-50.453 28.647 39.343 55.146 59.375 243.763-10.422 252.596-93.474 455.486-15.69 617.775 13.715 162.275 29.418 155.146 38.599 123.95-36.782-33.571-81.168 221.588-38.723 364.435-12.87zm-126.799-2.436c2.39-12.295-77.551-19.841-127.687-19.796-50.107.034-107.586 27.432-70.407 52.867 26.256 17.946 60.858-17.957 99.054-20.8 38.182-2.83 96.65 0 99.04-12.271zM289.074 133.754c-16.163 6.61 7.702 49.45 39.928 42.197m-47.974-55.879c16.693-5.944 26.829-23.676-10.923-40.651C220.17 56.95 88.33 96.96 102.39 108.635c7.53 6.26 77.208-12.859 111.91-8.29 34.717 4.556 50.021 25.66 66.728 19.727z"/></g></g></svg>