<svg xmlns="http://www.w3.org/2000/svg" width="1435" height="709" viewBox="0 0 1435 709"><defs><radialGradient id="7fcja" cx="1000.73" cy="26.99" r="61.35" gradientUnits="userSpaceOnUse"><stop offset="0" stop-color="#2b6e79"/><stop offset=".27" stop-color="#2e6d79"/><stop offset="1" stop-color="#5e607d"/></radialGradient><linearGradient id="7fcjb" x1="1079.37" x2="1079.37" y1="41.99" y2="179.28" gradientUnits="userSpaceOnUse"><stop offset="0" stop-color="#0f113d"/><stop offset="1" stop-color="#5e607d"/></linearGradient><linearGradient id="7fcjc" x1="1035" x2="1065.03" y1="140.11" y2="161.88" gradientUnits="userSpaceOnUse"><stop offset="0" stop-color="#555a77"/><stop offset="1" stop-color="#57617c"/></linearGradient><linearGradient id="7fcjd" x1="1034.22" x2="1010.18" y1="36.22" y2="103.78" gradientUnits="userSpaceOnUse"><stop offset="0" stop-color="#1b3655"/><stop offset="1" stop-color="#5e607d"/></linearGradient><linearGradient id="7fcje" x1="1803.88" x2="1803.88" y1="14.6" y2="67.53" gradientUnits="userSpaceOnUse"><stop offset=".15" stop-color="#21687e"/><stop offset=".49" stop-color="#023f5f"/><stop offset=".98"/></linearGradient></defs><g><g><g><g><path fill="#aaacae" d="M10.853 652.618s3.297-4.431 9.45-12.745c6.22-8.282 15.6-20.209 28.093-34.917 12.646-14.538 28.609-31.72 48.558-49.587 10.104-8.764 20.96-17.975 33.178-26.67 12.183-8.694 25.447-17.25 39.898-24.916 28.814-15.463 62.803-27.317 100.02-31.544 37.183-4.468 77.216-.686 116.942 9.793 39.83 10.413 79.298 27.39 118.181 47.045 19.45 9.828 38.783 20.347 58.251 30.965 19.45 10.652 38.984 21.445 59.123 31.443 10.085 4.984 20.327 9.723 30.896 13.952 5.307 2.027 10.651 4.022 16.132 5.737 5.483 1.822 11.03 2.992 16.548 4.469 2.75.755 5.584 1.135 8.386 1.718 2.782.481 5.549 1.136 8.383 1.51 5.653.692 11.271 1.653 16.977 1.86 11.358 1.029 22.783.516 34.09-.52 11.27-1.302 22.387-3.57 33.18-6.903 2.696-.793 5.325-1.857 7.971-2.785l3.953-1.444c1.323-.517 2.594-1.133 3.883-1.684l7.663-3.433 7.405-3.921c9.727-5.428 19.004-11.615 27.356-18.727 4.33-3.405 8.178-7.285 12.162-10.998 1.961-1.856 3.73-3.918 5.605-5.875 1.838-1.995 3.744-3.92 5.393-6.048 13.9-16.427 25.174-34.505 33.73-53.197 8.59-18.73 14.828-37.906 19.28-56.875 4.45-19.004 7.111-37.803 8.556-56.014.291-4.572.567-9.075.842-13.575.17-4.503.224-8.934.344-13.333.068-4.503.24-8.59.394-12.75.052-2.062.137-4.16.19-6.219.138-2.03.395-4.056.583-6.048 1.478-16.118 4.828-31.307 10.845-44.263 5.996-12.92 14.587-23.472 24.965-30.206 10.396-6.772 21.906-10.14 32.835-11.511 10.996-1.306 21.39-.758 30.653.377 18.643 2.405 32.94 7.147 42.476 10.48 4.76 1.755 8.351 3.228 10.738 4.263a403.192 403.192 0 0 0 3.488 1.545l5.584-11.583s-.346-.17-1.066-.481c-.634-.306-1.632-.72-2.938-1.303-2.56-1.067-6.39-2.681-11.424-4.503-10.123-3.54-25.122-8.556-45.261-11.168-10.035-1.237-21.394-1.857-33.798-.378-12.318 1.51-25.876 5.394-38.368 13.503-12.49 8.112-22.782 20.863-29.554 35.568-6.838 14.746-10.395 31.308-11.976 48.42-.19 2.165-.481 4.296-.602 6.495-.07 2.165-.153 4.33-.24 6.495-.12 4.33-.242 8.698-.394 13.094-.104 4.264-.156 8.59-.309 12.956-.277 4.33-.55 8.729-.824 13.128-1.393 17.663-3.97 35.808-8.248 54.056-4.28 18.248-10.277 36.632-18.438 54.399-8.145 17.833-18.797 34.882-31.822 50.31-1.545 1.996-3.349 3.78-5.052 5.637-1.753 1.819-3.403 3.745-5.256 5.497-3.713 3.436-7.285 7.078-11.323 10.205-7.75 6.634-16.343 12.339-25.347 17.355l-6.838 3.644-7.077 3.16c-1.185.516-2.355 1.1-3.54 1.582l-3.695 1.306c-2.44.86-4.864 1.857-7.372 2.577-9.948 3.059-20.257 5.19-30.72 6.426-10.502.894-21.136 1.41-31.772.447-5.327-.173-10.62-1.133-15.927-1.753-2.646-.343-5.276-.962-7.922-1.444-2.63-.513-5.327-.86-7.922-1.612-20.996-4.606-40.962-13.37-60.772-23.132-19.746-9.79-39.178-20.548-58.663-31.166-19.45-10.686-38.936-21.272-58.625-31.206-39.313-19.86-79.59-37.25-120.69-47.97-20.5-5.362-41.135-9.208-61.583-10.895-20.43-1.718-40.636-1.614-60.087.724-38.987 4.43-74.604 16.87-104.588 32.953-15.07 8.01-28.782 16.839-41.357 25.842-12.647 9.003-23.833 18.49-34.228 27.528-20.535 18.315-36.823 35.911-49.726 50.79-12.75 14.982-22.305 27.148-28.627 35.568-6.29 8.42-9.622 12.956-9.622 12.956z"/></g><g><path fill="#535557" d="M11.092 652.79s3.3-4.43 9.487-12.713c6.184-8.282 15.55-20.242 28.058-34.914 12.644-14.535 28.575-31.72 48.524-49.59 10.102-8.729 20.944-17.971 33.162-26.597 12.165-8.697 25.411-17.253 39.846-24.916 28.796-15.463 62.75-27.286 99.916-31.512 37.165-4.434 77.13-.689 116.823 9.793 39.827 10.413 79.26 27.355 118.113 47.013 19.45 9.828 38.797 20.341 58.23 30.996 19.468 10.618 39.004 21.442 59.158 31.446 10.087 4.947 20.345 9.69 30.913 13.915 5.324 2.064 10.67 4.057 16.167 5.775 5.5 1.787 11.05 2.99 16.564 4.434 2.733.787 5.584 1.132 8.37 1.718 2.816.513 5.583 1.167 8.417 1.545 5.67.652 11.289 1.649 16.994 1.853 11.376 1.035 22.818.52 34.142-.478 11.306-1.34 22.457-3.61 33.247-6.977 2.716-.79 5.328-1.856 7.991-2.781l3.987-1.445c1.286-.516 2.557-1.136 3.863-1.683l7.683-3.44 7.423-3.914c9.741-5.466 19.021-11.615 27.37-18.765 4.348-3.404 8.213-7.285 12.2-11.03 1.957-1.859 3.748-3.917 5.619-5.878 1.84-1.994 3.744-3.917 5.41-6.048 13.936-16.46 25.211-34.536 33.785-53.3 8.573-18.727 14.808-37.938 19.277-56.942 4.468-19.003 7.13-37.8 8.59-56.048.275-4.537.534-9.075.825-13.575.173-4.468.208-8.934.343-13.333.087-4.503.26-8.556.378-12.716l.208-6.221c.138-2.027.394-4.053.584-6.08 1.46-16.051 4.812-31.204 10.809-44.127 5.961-12.887 14.535-23.4 24.879-30.103 10.326-6.7 21.805-10.101 32.682-11.442 10.96-1.306 21.324-.758 30.584.378 18.591 2.404 32.87 7.146 42.406 10.482a183.827 183.827 0 0 1 10.721 4.226c2.287.995 3.471 1.548 3.471 1.548l1.53-3.162s-1.221-.55-3.608-1.618a225.515 225.515 0 0 0-10.912-4.295c-9.689-3.402-24.175-8.248-43.179-10.687-9.467-1.167-20.105-1.72-31.428-.38-11.269 1.412-23.3 4.915-34.225 11.995-10.894 7.112-19.932 18.214-26.119 31.582-6.218 13.402-9.637 28.935-11.116 45.292-.19 2.061-.446 4.087-.603 6.152-.069 2.096-.135 4.191-.204 6.29-.138 4.258-.311 8.418-.398 12.817-.118 4.4-.152 8.798-.326 13.267-.274 4.43-.547 8.93-.824 13.471-1.426 18.073-4.088 36.699-8.487 55.497-4.417 18.796-10.586 37.765-19.073 56.256-8.435 18.487-19.554 36.324-33.23 52.507-1.632 2.1-3.523 3.988-5.327 5.913-1.857 1.923-3.576 3.953-5.515 5.806-3.918 3.644-7.715 7.458-11.961 10.794-8.213 7.008-17.317 13.021-26.854 18.383l-7.253 3.85-7.524 3.369c-1.257.548-2.511 1.13-3.797 1.646l-3.886 1.41c-2.592.928-5.154 1.96-7.801 2.713-10.582 3.3-21.529 5.534-32.593 6.84-11.1.995-22.319 1.514-33.487.482-5.622-.208-11.153-1.17-16.738-1.857-2.767-.343-5.514-.997-8.282-1.479-2.747-.582-5.532-.96-8.247-1.715-22.028-4.846-42.872-13.987-62.872-23.887-20.05-9.928-39.57-20.719-59.02-31.34-19.45-10.651-38.832-21.202-58.334-31.064-39.005-19.69-78.644-36.77-118.801-47.253-40.051-10.585-80.515-14.4-118.13-9.896-37.661 4.26-72.045 16.253-101.167 31.89-14.607 7.769-27.975 16.394-40.241 25.155-12.339 8.764-23.268 18.044-33.455 26.873-20.102 17.972-36.151 35.26-48.85 49.9-12.578 14.777-21.959 26.769-28.214 35.086L8.24 650.73z"/></g><g><path fill="#717375" d="M1077.967 265.879l1.169.444 4.09-10.582-1.22-.482z"/></g><g><path fill="#717375" d="M1062.452 260.62l1.168.31 3.317-10.825-1.254-.344z"/></g><g><path fill="#717375" d="M1046.576 256.529l1.22.276 2.423-11.064-1.273-.276z"/></g><g><path fill="#717375" d="M1030.51 253.815l1.22.172 1.392-11.236-1.307-.172z"/></g><g><path fill="#717375" d="M1014.375 252.889l1.22-.037.121-11.306-1.341.037z"/></g><g><path fill="#717375" d="M998.448 254.057l1.168-.208-1.512-11.236-1.34.24z"/></g><g><path fill="#717375" d="M983.138 257.768l1.134-.378-3.573-10.723-1.29.448z"/></g><g><path fill="#717375" d="M969.133 264.468l1.015-.583-5.877-9.727-1.168.724z"/></g><g><path fill="#717375" d="M957.124 274.228l.842-.858-7.974-8.007-.979.96z"/></g><g><path fill="#717375" d="M947.587 286.531l.62-.996-9.52-6.118-.74 1.135z"/></g><g><path fill="#717375" d="M940.492 300.655l.412-1.134-10.464-4.33-.465 1.272z"/></g><g><path fill="#717375" d="M935.646 315.948l.344-1.169-10.963-2.818-.36 1.27z"/></g><g><path fill="#717375" d="M932.535 331.893l.207-1.238-11.186-1.613-.241 1.27z"/></g><g><path fill="#717375" d="M931.04 348.183l.07-1.24-11.34-.72-.036 1.306z"/></g><g><path fill="#717375" d="M930.525 364.711l.034-1.273-11.323-.101-.034 1.27z"/></g><g><path fill="#717375" d="M929.994 381.757l.067-1.272-11.323-.55-.068 1.237z"/></g><g><path fill="#717375" d="M928.755 398.767l.12-1.306-11.27-1.03-.122 1.269z"/></g><g><path fill="#717375" d="M926.797 415.71l.172-1.307-11.221-1.512-.172 1.27z"/></g><g><path fill="#717375" d="M924.064 432.547l.24-1.272-11.134-2.027-.24 1.239z"/></g><g><path fill="#717375" d="M920.542 449.247l.275-1.235-11.03-2.58-.258 1.206z"/></g><g><path fill="#717375" d="M916.16 465.812l.343-1.272-10.875-3.162-.326 1.205z"/></g><g><path fill="#717375" d="M910.869 482.068l.446-1.202-10.67-3.748-.429 1.169z"/></g><g><path fill="#717375" d="M904.563 498.047l.532-1.202-10.446-4.4-.498 1.134z"/></g><g><path fill="#717375" d="M897.277 513.58l.584-1.17-10.12-5.084-.55 1.132z"/></g><g><path fill="#717375" d="M888.978 528.666l.653-1.134-9.725-5.775-.618 1.067z"/></g><g><path fill="#717375" d="M879.528 543.066l.773-1.067-9.26-6.528-.74 1.03z"/></g><g><path fill="#717375" d="M868.978 556.709l.825-1.034-8.712-7.215-.79.963z"/></g><g><path fill="#717375" d="M857.31 569.457s.24-.208.464-.447c.257-.208.465-.447.465-.447l-8.04-8.005s-.208.273-.43.481c-.242.205-.464.41-.464.41z"/></g><g><path fill="#717375" d="M844.441 581.072l.997-.859-7.25-8.66-.963.792z"/></g><g><path fill="#717375" d="M830.592 591.519l1.082-.757-6.392-9.347-.996.721z"/></g><g><path fill="#717375" d="M815.695 600.419l1.151-.654-5.43-9.929-1.064.583z"/></g><g><path fill="#717375" d="M799.99 607.876l1.22-.55-4.365-10.446-1.133.515z"/></g><g><path fill="#717375" d="M783.564 613.512l1.272-.343-3.265-10.859-1.168.344z"/></g><g><path fill="#717375" d="M766.674 617.569l1.305-.242-2.148-11.135-1.202.243z"/></g><g><path fill="#717375" d="M749.491 619.835l1.307-.067-1.032-11.273-1.237.068z"/></g><g><path fill="#717375" d="M732.172 620.455l1.322.033.018-11.34h-1.237z"/></g><g><path fill="#717375" d="M714.903 619.63l1.306.104 1.014-11.272-1.221-.07z"/></g><g><path fill="#717375" d="M697.841 617.223l1.255.242 1.94-11.168-1.22-.243z"/></g><g><path fill="#717375" d="M681.019 613.546l1.254.31 2.75-10.997-1.203-.276z"/></g><g><path fill="#717375" d="M664.455 608.667l1.237.411 3.627-10.72-1.169-.378z"/></g><g><path fill="#717375" d="M648.442 602.516l1.202.515 4.313-10.481-1.152-.448z"/></g><g><path fill="#717375" d="M632.857 595.607l1.168.518 4.778-10.241-1.152-.55z"/></g><g><path fill="#717375" d="M617.6 588.152l1.15.583 5.087-10.104-1.135-.583z"/></g><g><path fill="#717375" d="M602.564 580.385l1.133.62 5.277-10.037-1.135-.583z"/></g><g><path fill="#717375" d="M587.701 572.446l1.118.62 5.378-9.967-1.1-.62z"/></g><g><path fill="#717375" d="M572.89 564.406l1.116.582 5.447-9.929-1.134-.62z"/></g><g><path fill="#717375" d="M558.148 556.329l1.117.585 5.429-9.932-1.116-.583z"/></g><g><path fill="#717375" d="M543.388 548.288l1.134.62 5.396-9.966-1.118-.62z"/></g><g><path fill="#717375" d="M528.629 540.35l1.116.619 5.31-10-1.118-.62z"/></g><g><path fill="#717375" d="M513.782 532.618l1.118.583 5.189-10.067-1.118-.586z"/></g><g><path fill="#717375" d="M498.852 525.023l1.133.586 5.069-10.138-1.168-.586z"/></g><g><path fill="#717375" d="M483.799 517.77l1.17.519 4.861-10.208-1.168-.55z"/></g><g><path fill="#717375" d="M468.661 510.76l1.151.516 4.657-10.343-1.185-.515z"/></g><g><path fill="#717375" d="M453.351 504.128l1.152.481 4.416-10.41-1.202-.516z"/></g><g><path fill="#717375" d="M437.887 497.875l1.187.445 4.123-10.515-1.22-.481z"/></g><g><path fill="#717375" d="M422.286 492.135l1.186.414 3.78-10.653-1.22-.448z"/></g><g><path fill="#717375" d="M406.513 486.843l1.185.414 3.437-10.792-1.237-.41z"/></g><g><path fill="#717375" d="M390.584 482.24l1.187.309 3.023-10.895-1.254-.343z"/></g><g><path fill="#717375" d="M374.485 478.149l1.237.31 2.526-11.03-1.255-.31z"/></g><g><path fill="#717375" d="M358.248 474.886l1.236.206 2.062-11.101-1.271-.24z"/></g><g><path fill="#717375" d="M341.907 472.274l1.254.205 1.511-11.236-1.287-.174z"/></g><g><path fill="#717375" d="M325.463 470.59l1.254.101.928-11.306-1.288-.068z"/></g><g><path fill="#717375" d="M310.242 469.765l-1.28-.034.303-11.341 1.28.034z"/></g><g><path fill="#717375" d="M292.472 469.799l1.256-.034-.31-11.306-1.323.034z"/></g><g><path fill="#717375" d="M274.345 470.967l1.237-.104-1.064-11.306-1.273.138z"/></g><g><path fill="#717375" d="M258.022 473.132l1.22-.206-1.735-11.204-1.29.208z"/></g><g><path fill="#717375" d="M241.819 476.19l1.22-.24-2.406-11.067-1.27.242z"/></g><g><path fill="#717375" d="M225.84 480.246l1.203-.377-3.076-10.895-1.237.41z"/></g><g><path fill="#717375" d="M210.17 485.297l1.15-.411-3.695-10.69-1.236.414z"/></g><g><path fill="#717375" d="M194.756 491.209l1.151-.482-4.313-10.447-1.219.481z"/></g><g><path fill="#717375" d="M179.688 497.977s.29-.135.565-.274c.294-.138.568-.276.568-.276l-4.895-10.205-.586.274c-.276.138-.567.31-.567.31z"/></g><g><path fill="#717375" d="M165.048 505.64l1.1-.617-5.43-9.966-1.134.654z"/></g><g><path fill="#717375" d="M150.786 513.993l1.065-.653-5.91-9.657-1.1.687z"/></g><g><path fill="#717375" d="M136.92 523.03l1.03-.687-6.374-9.383-1.064.723z"/></g><g><path fill="#717375" d="M123.45 532.686l1.013-.754-6.77-9.074-1.03.791z"/></g><g><path fill="#717375" d="M110.39 542.928l.997-.791-7.148-8.798-1.014.825z"/></g><g><path fill="#717375" d="M97.745 553.682l.962-.825-7.492-8.521-.963.825z"/></g><g><path fill="#717375" d="M85.493 564.92l.928-.892-7.766-8.215-.963.86z"/></g><g><path fill="#717375" d="M73.62 576.537l.894-.859-8.024-8.01-.928.93z"/></g><g><path fill="#717375" d="M62.125 588.597l.841-.96-8.28-7.7-.86.93z"/></g><g><path fill="#717375" d="M50.957 600.936l.842-.929-8.488-7.491-.877.963z"/></g><g><path fill="#717375" d="M40.132 613.65l.825-.997-8.695-7.252-.825.997z"/></g><g><path fill="#717375" d="M29.65 626.606l.79-.997-8.9-7.08-.79 1.033z"/></g><g><path fill="#717375" d="M19.444 639.767l.756-.996-9.038-6.839-.756 1.03z"/></g><g><path fill="#717375" d="M4.908 648.322s3.333-4.5 9.585-12.851c6.256-8.383 15.706-20.448 28.37-35.292 12.765-14.743 28.935-32.132 49.227-50.274 10.26-8.936 21.325-18.32 33.764-27.15 12.408-8.867 25.945-17.594 40.723-25.464 29.503-15.844 64.417-28.007 102.631-32.37 19.073-2.27 38.919-2.373 58.986-.725 20.105 1.721 40.414 5.466 60.672 10.76 40.55 10.582 80.465 27.798 119.606 47.56 19.574 9.894 39.004 20.48 58.454 31.132 19.45 10.62 38.956 21.41 58.868 31.272 19.914 9.793 40.38 18.8 61.978 23.576 2.663.72 5.414 1.101 8.109 1.65 2.698.48 5.38 1.135 8.144 1.478 5.449.652 10.863 1.615 16.377 1.787 10.926.995 21.907.48 32.732-.446 10.825-1.31 21.494-3.474 31.803-6.634 2.595-.793 5.106-1.822 7.63-2.68l3.78-1.373c1.254-.519 2.474-1.07 3.696-1.617l7.352-3.267 7.08-3.776c9.297-5.192 18.196-11.102 26.185-17.94 4.16-3.266 7.87-7.014 11.704-10.551 1.888-1.787 3.589-3.782 5.41-5.67 1.754-1.926 3.593-3.783 5.19-5.81 13.402-15.84 24.331-33.368 32.647-51.544 8.332-18.18 14.432-36.91 18.797-55.466 4.347-18.591 6.959-37.012 8.403-54.918.257-4.462.534-8.896.79-13.298.187-4.43.226-8.796.343-13.126.121-4.364.274-8.66.377-12.955.087-2.096.156-4.229.226-6.36.135-2.092.412-4.226.6-6.322 1.548-16.665 5.001-32.645 11.496-46.597 6.409-13.953 15.997-25.776 27.594-33.3 11.581-7.492 24.245-11.203 35.981-12.647 11.802-1.41 22.73-.825 32.458.378 19.468 2.508 34.176 7.457 44.055 10.894 9.845 3.606 14.913 6.083 14.913 6.083l1.53-3.163s-1.391-.686-3.934-1.75c-2.544-1.101-6.305-2.646-11.324-4.503-10.035-3.47-24.931-8.487-44.811-11.032-9.913-1.237-21.116-1.854-33.317-.413-12.113 1.549-25.345 5.328-37.511 13.23-12.146 7.873-22.198 20.31-28.848 34.744-6.704 14.469-10.223 30.79-11.788 47.768-.187 2.13-.461 4.26-.6 6.391a789.8 789.8 0 0 0-.225 6.495c-.135 4.296-.256 8.626-.394 12.99-.122 4.296-.154 8.66-.344 13.025-.26 4.364-.516 8.764-.79 13.198-1.426 17.766-4.021 35.977-8.3 54.398-4.312 18.35-10.343 36.837-18.573 54.777-8.214 17.937-18.97 35.156-32.133 50.723-1.561 2.03-3.367 3.849-5.102 5.705-1.77 1.857-3.436 3.814-5.292 5.567-3.763 3.505-7.389 7.146-11.46 10.343-7.853 6.703-16.565 12.474-25.672 17.594l-6.907 3.676-7.198 3.197c-1.185.519-2.373 1.101-3.61 1.583l-3.692 1.306c-2.494.89-4.933 1.888-7.458 2.646-10.104 3.125-20.517 5.22-31.135 6.495-10.6.925-21.359 1.441-32.114.444-5.395-.173-10.739-1.133-16.118-1.75-2.664-.346-5.325-.963-7.971-1.444-2.664-.585-5.345-.928-7.992-1.652-21.234-4.673-41.357-13.538-61.202-23.265-19.81-9.862-39.279-20.617-58.729-31.272-19.467-10.618-38.918-21.2-58.593-31.132-39.227-19.828-79.4-37.148-120.278-47.834-20.413-5.365-40.944-9.107-61.254-10.863-20.292-1.684-40.362-1.58-59.692.758-38.713 4.396-74.057 16.735-103.885 32.749-14.947 7.936-28.61 16.735-41.135 25.703-12.56 8.902-23.694 18.355-34.04 27.358-20.446 18.28-36.702 35.805-49.553 50.617-12.714 14.95-22.233 27.047-28.558 35.464-6.252 8.421-9.588 12.921-9.588 12.921z"/></g></g><g><g><g><g><path fill="#ebebec" d="M1001.368 261.721s-11.614 78.97 10.93 138.353c0 0 9.674 24.948 22.491 20.79 12.834-4.125 31.89-17.218 27.337-44.57-4.64-28.111-1.409-76.635 5.516-105.469z"/></g><g><path fill="#818386" d="M1032.863 367.807c-7.629 3.124-13.35 8.553-17.234 15.84-1.666 3.16-3.71 7.94-4.673 12.714.447 1.24.894 2.473 1.34 3.713 0 0 9.675 24.948 22.493 20.79 12.834-4.125 31.889-17.218 27.337-44.57a139.102 139.102 0 0 1-1.05-8.006c-9.002-3.61-19.294-4.126-28.213-.481z"/></g><g><path fill="#d9d9db" d="M1021.986 333.714c-.617-8.144-.204-16.187.517-24.228-8.574-6.321-16.22-13.713-23.525-21.476-1.39 25.464-1.147 65.362 9.505 100.757 5.584-8.42 12.54-15.432 20.085-22.166-3.454-10.686-5.722-21.75-6.582-32.887z"/></g><g><path fill="#818386" d="M1060.218 331.549c.034-1.375.07-2.75.155-4.157-19.418-7.87-41.135-10.517-61.89-8.386.069 2.508.17 5.085.29 7.662 20.053-4.088 42.081-2.06 61.445 4.88z"/></g><g opacity=".8"><path fill="#d9d9db" d="M1001.368 261.721s-1.015 6.939-1.856 18.283c5.704 9.447 13.231 17.764 22.442 23.881 5.446 3.61 12.904 7.39 16.357 13.198 3.246 5.46 3.126 55.878 10.188 73.333 2.166 5.362 4.642 10.687 7.181 15.945 5.38-7.184 8.628-16.977 6.446-30.068-4.641-28.11-1.41-76.634 5.515-105.468z"/></g><g><path fill="#d9d9db" d="M1050.356 461.93c1.804-6.255 5.255-12.474 10.087-16.942 5.102-4.745 11.529-9.623 18.761-10.243 3.471-.308 6.772.69 10.053 1.618-8.075-20.895-25.997-56.841-25.997-56.841s-17.012-17.182-34.983-1.101c0 0-17.2 12.338-10.878 31.581 4.296 13.028 18.814 38.938 32.202 54.88a50.36 50.36 0 0 1 .755-2.952z"/></g><g><path fill="#d9d9db" d="M1050.356 461.93c1.804-6.255 5.255-12.474 10.087-16.942 5.102-4.745 11.529-9.623 18.761-10.243 3.471-.308 6.772.69 10.053 1.618-8.075-20.895-25.997-56.841-25.997-56.841s-17.012-17.182-34.983-1.101c0 0-17.2 12.338-10.878 31.581 4.296 13.028 18.814 38.938 32.202 54.88a50.36 50.36 0 0 1 .755-2.952z"/></g><g><path fill="#d9d9db" d="M1063.26 379.522s-10.6-10.687-23.902-7.32c.533.139 1.084.277 1.635.447 7.662 2.508 12.713 7.39 16.115 14.608 5.379 11.407 20.275 43.158 22.75 47.457 3.23-.139 6.323.79 9.399 1.649-8.075-20.895-25.997-56.841-25.997-56.841z"/></g><g><path fill="#ebebec" d="M1060.444 444.988a68.684 68.684 0 0 1 4.604-3.952l-26.892-59.588s-4.742-2.165-13.146 6.253c0 0-10.925 10.309-3.554 28.387 5.962 14.604 19.998 34.81 29.021 45.462 1.837-6.152 5.242-12.197 9.967-16.562z"/></g><g><path fill="#ebebec" d="M1088.602 434.714c-10.496-1.274-18.556-3.336-27.937 7.112-4.434 4.912-8.23 10.79-10.877 16.873-3.194 7.354-2.2 14.604-1.15 22.301 1.133 8.387 2.851 16.977 7.32 24.297 2.629 4.33 6.186 8.008 10.049 11.271 2.528 2.1 7.097 6.804 10.845 5.432 1.698-.62 2.096-2.099 1.87-3.782a33.464 33.464 0 0 0 3.49 1.994c3.591 1.753 7.215 1.102 8.867-2.68a4.509 4.509 0 0 0 .24-2.75c1.357.55 2.715.893 3.952.997 5.757.308 7.37-3.54 4.382-8.009-3.281-4.912-7.493-7.902-11.961-11.545-2.096-1.716-3.607-3.884-4.774-6.288.377.378.738.756 1.115 1.133 5.601 5.394 15.155 12.99 23.334 11.376 7.835-1.514 2.681-10.62-.516-13.676-4.365-4.126-9.863-7.011-14.397-10.964-3.575-3.162-7.44-6.872-9.176-11.445-1.223-3.263-2.182-11.992 4.105-9.28 1.96.863 3.558 2.685 4.777 4.368 2.767 3.849 6.082 17.73 12.817 16.118 3.474-.825 4.264-5.466 4.281-8.42.153-8.696-4.416-17.46-9.485-24.332-2.576-3.47-7.613-7.285-11.17-10.101z"/></g><g opacity=".7"><path fill="#ebebec" d="M1058.517 471.553c2.972-4.264 6.34-8.247 10.448-11.444-1.272-3.094-2.114-6.565-2.958-9.142-1.168-3.575-1.733-7.181-1.767-10.894a29.725 29.725 0 0 0-2.525 2.545c-4.47 4.947-8.269 10.788-10.895 16.87-3.197 7.39-2.2 14.608-1.153 22.305.26 1.788.516 3.61.842 5.428 1.891-5.806 5.036-11.41 8.008-15.668z"/></g><g><path fill="#ebebec" d="M1033.175 209.692s-29.71 21.304-40.914 47.146c-11.202 25.844 70.86 69.006 77.871 39.281 6.994-29.69-30.653-91.411-36.957-86.427z"/></g><g><path fill="#ebebec" d="M1005.234 240.858s-16.184 13.852-9.176 29.177c6.994 15.363 30.57 26.496 44.64 31.308 0 0-30.805-13.506-38.402-28.353-7.592-14.878 2.938-32.132 2.938-32.132z"/></g><g><path fill="#b1b2b4" d="M1070.648 470.247c-.086-.242-.326.101-.274.271 3.71 9.522 8.796 17.94 17.354 23.853.05.034.101-.104.07-.104-7.323-6.53-13.11-15.19-17.15-24.02z"/></g><g><path fill="#b1b2b4" d="M1092.486 514.608c-14.414-7.247-26.098-20.136-30.688-35.807-.034-.104-.17.072-.153.138 2.266 14.777 16.101 31.855 30.619 36.223.239.066.464-.415.222-.554z"/></g><g><path fill="#ebebec" d="M1099.773 444.815c-2.577-3.47-7.614-7.285-11.171-10.101-10.496-1.274-18.556-3.336-27.937 7.112-.018.034-.052.069-.087.069 6.256-4.607 15.089-10.655 20.5-3.44 1.975 2.647 4.707 9.935 1.046 12.443-7.749 5.258-3.367 18.626 2.46 24.262 4.569 4.468 6.699 6.495 12.18 13.197 2.338 2.814.706 7.282-3.642 6.458-4.964-.926-8.919-4.604-12.286-8.179-3.866-4.088-7.029-9.45-9.759-14.362 1.563 7.285 5.758 14.74 10.67 20.24 2.32 2.612 8.559 8.28 7.063 12.44-1.84 5.154-9.45.412-11.754-1.58-6.013-5.19-9.467-11.549-12.92-18.283 1.77 7.663 5.31 14.607 11.445 20.171.994.963 8.985 7.596 4.43 9.346-4.93 1.926-11.87-4.843-14.895-8.005-4.16-4.33-7.34-9.243-10.07-14.501 1.77 6.256 4.863 12.062 9.159 16.943 2.508 2.85 6.682 5.22 7.953 8.968.465 1.271-.1 2.165-1.029 2.68 1.892 1.203 3.918 1.958 5.723 1.307 1.698-.62 2.096-2.099 1.87-3.782a33.453 33.453 0 0 0 3.489 1.994c3.592 1.753 7.216 1.102 8.867-2.68.378-.929.445-1.857.24-2.75 1.358.55 2.715.893 3.952.997 5.757.308 7.371-3.54 4.382-8.009-3.28-4.912-7.493-7.902-11.96-11.545-2.097-1.716-3.607-3.884-4.775-6.288.378.378.738.756 1.116 1.133 5.601 5.394 15.155 12.99 23.333 11.376 7.836-1.514 2.681-10.62-.516-13.676-4.364-4.126-9.862-7.011-14.396-10.964-3.575-3.162-7.441-6.872-9.176-11.445-1.223-3.263-2.183-11.992 4.104-9.28 1.961.862 3.558 2.685 4.777 4.368 2.768 3.849 6.083 17.73 12.818 16.118 3.473-.825 4.263-5.466 4.28-8.42.153-8.696-4.416-17.46-9.484-24.332z"/></g></g><g><path fill="#b1b2b4" d="M1065.528 507.05c-3.54-3.745-6.702-8.144-9.245-12.818 1.614 3.368 3.662 6.562 5.362 9.243.464.79.943 1.513 1.462 2.234 4.517 5.157 10.015 9.453 15.924 12.612.105.07.225-.204.139-.274-4.483-3.848-9.484-6.598-13.642-10.998z"/></g></g><g><g><g><path fill="#ebebec" d="M1251.594 142.955s68.542 40.93 100.279 95.946c0 0 13.23 23.264 1.906 30.584-11.339 7.32-33.522 13.78-51.84-7.012-18.813-21.338-58.454-49.552-85.207-62.404z"/></g><g><path fill="#818386" d="M1313.863 234.435c7.237-3.917 15.072-4.915 23.181-3.332 3.489.72 8.488 2.165 12.8 4.43.69 1.102 1.375 2.235 2.03 3.368 0 0 13.23 23.264 1.905 30.584-11.338 7.319-33.52 13.78-51.838-7.012-1.684-1.922-3.558-3.88-5.533-5.874 2.92-9.246 9.003-17.56 17.455-22.164z"/></g><g><path fill="#d9d9db" d="M1294.329 204.465c-5.895-5.633-12.408-10.41-19.055-14.91.481-10.654-.378-21.24-1.805-31.826 20.635 15.02 51.358 40.414 72.045 71.07-10.033-.963-19.863-.034-29.86 1.546-6.083-9.419-13.233-18.18-21.325-25.88z"/></g><g><path fill="#818386" d="M1268.505 232.68a633.802 633.802 0 0 0-3.318-2.474c6.17-20.033 17.836-38.52 32.596-53.263a378.524 378.524 0 0 1 5.807 5.082c-15.876 12.956-28.246 31.276-35.085 50.655z"/></g><g opacity=".8"><path fill="#d9d9db" d="M1251.594 142.955s6.051 3.606 15.345 10.1c3.73 10.417 5.397 21.516 4.313 32.513-.634 6.496-2.439 14.674-.101 20.996 2.18 6.014 41.288 37.765 50.342 54.298 2.786 5.05 5.363 10.31 7.785 15.637-8.92-.38-18.574-4.06-27.338-14.026-18.814-21.338-58.455-49.552-85.208-62.404z"/></g><g><path fill="#d9d9db" d="M1375.72 307.526c-5.979-2.574-12.987-3.848-19.482-2.917-6.907.96-14.777 2.817-19.828 8.04-2.407 2.508-3.73 5.702-5.088 8.83-11.064-19.45-27.595-56.082-27.595-56.082s-2.56-24.057 21.255-27.8c0 0 20.466-5.534 31.374 11.544 7.389 11.583 18.249 39.177 22.166 59.66a52.696 52.696 0 0 0-2.802-1.275z"/></g><g><path fill="#d9d9db" d="M1375.72 307.526c-5.979-2.574-12.987-3.848-19.482-2.917-6.907.96-14.777 2.817-19.828 8.04-2.407 2.508-3.73 5.702-5.088 8.83-11.064-19.45-27.595-56.082-27.595-56.082s-2.56-24.057 21.255-27.8c0 0 20.466-5.534 31.374 11.544 7.389 11.583 18.249 39.177 22.166 59.66a52.696 52.696 0 0 0-2.802-1.275z"/></g><g><path fill="#d9d9db" d="M1303.727 265.397s-1.58-14.982 9.468-23.16c-.257.515-.499 1.028-.704 1.579-2.889 7.49-2.32 14.535 1.116 21.72 5.45 11.407 20.618 42.988 22.37 47.595-2.147 2.439-3.38 5.43-4.655 8.348-11.064-19.45-27.595-56.082-27.595-56.082z"/></g><g><path fill="#ebebec" d="M1356.238 304.609c-1.943.27-3.97.617-5.982 1.098l-29.174-58.524s1.34-5.085 13.18-6.253c0 0 14.897-1.96 24.225 15.187 7.544 13.849 14.33 37.528 16.873 51.24-5.91-2.443-12.765-3.61-19.122-2.748z"/></g><g><path fill="#ebebec" d="M1330.446 319.934c5.687-8.968 9.193-16.496 23.177-17.147 6.634-.311 13.593.444 19.97 2.231 7.714 2.165 12.713 7.527 17.989 13.233 5.771 6.186 11.375 12.92 14.21 21.03 1.683 4.745 2.303 9.827 2.37 14.88.037 3.299.774 9.828-2.627 11.855-1.566.928-2.99.311-4.125-.928a39.079 39.079 0 0 1-.687 3.952c-.928 3.92-3.678 6.29-7.662 5.155a4.35 4.35 0 0 1-2.269-1.51c-.447 1.371-1.015 2.645-1.753 3.643-3.384 4.673-7.371 3.502-8.968-1.652-1.719-5.636-1.41-10.79-1.393-16.565 0-2.713-.723-5.255-1.84-7.662.07.516.122 1.066.174 1.582.634 7.732.481 19.967-5.947 25.26-6.115 5.082-9.932-4.642-10.257-9.04-.43-5.98.807-12.062.585-18.076-.156-4.777-.62-10.136-3.059-14.33-1.736-3.025-7.887-9.278-9.775-2.716-.586 2.064-.174 4.468.36 6.46 1.22 4.57 9.897 15.948 4.382 20.14-2.802 2.165-6.907-.174-9.21-1.995-6.822-5.429-10.76-14.501-12.835-22.749-1.067-4.191-.862-10.516-.81-15.051z"/></g><g opacity=".7"><path fill="#ebebec" d="M1378.023 319.934c-5.171-.412-10.395-.309-15.48.86-1.597-2.956-3.745-5.81-5.207-8.113-2.044-3.16-4.5-5.875-7.302-8.245 1.1-.17 2.286-.277 3.574-.346 6.617-.306 13.556.415 19.965 2.234 7.716 2.165 12.68 7.527 17.974 13.23 1.253 1.305 2.473 2.683 3.679 4.056-5.671-2.165-12.031-3.298-17.203-3.676z"/></g><g><path fill="#ebebec" d="M1191.2 134.707s35.293-9.554 62.407-1.888c27.078 7.662 8.625 98.523-18.834 85.19-27.439-13.37-51.444-81.55-43.574-83.302z"/></g><g><path fill="#ebebec" d="M1233.02 132.78s20.946-3.776 28.387 11.345c7.472 15.083 1.202 40.377-3.987 54.361 0 0 9.021-32.403 2.304-47.696-6.686-15.259-26.704-18.01-26.704-18.01z"/></g><g><path fill="#b1b2b4" d="M1369.329 328.49c-.101-.24.311-.173.395-.035 5.02 8.903 8.334 18.145 7.51 28.526 0 .066-.136.032-.136-.038-.429-9.793-3.473-19.724-7.77-28.453z"/></g><g><path fill="#b1b2b4" d="M1389.915 373.474c3.489-15.772.895-32.954-8.351-46.425-.07-.104.156-.104.207-.038 10.018 11.102 14.501 32.648 8.695 46.636-.087.239-.602.1-.55-.173z"/></g><g><path fill="#ebebec" d="M1331.256 334.985c-1.067-4.191-.862-10.517-.81-15.051 5.687-8.969 9.193-16.496 23.177-17.147h.122c-7.507 1.923-17.782 4.912-15.62 13.676.81 3.229 4.694 9.932 8.954 8.66 8.986-2.646 16.597 9.208 17.286 17.286.533 6.321.755 9.242 2.473 17.766.721 3.607 5.207 5.12 7.338 1.269 2.424-4.431 2.043-9.828 1.426-14.705-.738-5.57-2.854-11.41-4.967-16.634 4.659 5.843 7.787 13.782 8.936 21.067.549 3.468 1.015 11.854 5.155 13.333 5.172 1.857 6.34-7.045 6.239-10.104-.242-7.94-2.993-14.639-5.982-21.58 4.777 6.22 7.94 13.37 8.404 21.615.051 1.375.187 11.787 4.416 9.383 4.604-2.615 3.745-12.27 3.194-16.634-.72-5.944-2.508-11.548-4.846-16.942 3.696 5.293 6.273 11.376 7.337 17.801.602 3.745-.17 8.487 1.874 11.788.74 1.202 1.77 1.306 2.75.926-.26 2.237-.928 4.263-2.577 5.258-1.566.928-2.99.311-4.125-.928a39.081 39.081 0 0 1-.687 3.952c-.928 3.92-3.678 6.29-7.662 5.154a4.35 4.35 0 0 1-2.269-1.51c-.447 1.372-1.015 2.646-1.753 3.644-3.384 4.673-7.371 3.502-8.968-1.652-1.719-5.636-1.41-10.79-1.393-16.565 0-2.713-.723-5.255-1.84-7.662.07.516.122 1.066.174 1.582.634 7.732.481 19.967-5.947 25.26-6.115 5.082-9.932-4.642-10.257-9.04-.43-5.98.807-12.063.585-18.076-.156-4.777-.62-10.136-3.059-14.331-1.736-3.024-7.887-9.277-9.775-2.715-.586 2.064-.174 4.468.36 6.46 1.22 4.57 9.897 15.948 4.382 20.14-2.802 2.165-6.907-.174-9.21-1.996-6.822-5.428-10.76-14.5-12.835-22.748z"/></g></g><g><path fill="#b1b2b4" d="M1401.083 347.768c-.654-5.051-2.061-10.31-4.056-15.222 1.582 3.368 2.733 6.977 3.765 9.966.291.86.547 1.718.807 2.577a58.213 58.213 0 0 1-.308 20.276c-.017.138-.294.066-.294-.035-.17-5.913.876-11.511.086-17.562z"/></g></g><g><path fill="#ebebec" d="M1101.214 384.437s-2.85 13.025 4.83 28.488c7.679 15.464 102.784 6.357 125.67.62 22.89-5.774 76.17-81.722 67.908-97.63-8.285-15.913-13.936-21.514-23.9-17.219-9.967 4.296-174.508 85.741-174.508 85.741z"/></g><g><path fill="#ebebec" d="M1125.598 414.127c-6.807-10.686-11.719-22.059-16.995-33.365-4.707 2.335-7.389 3.675-7.389 3.675s-2.85 13.025 4.83 28.488c2.164 4.365 11.41 6.804 24.005 7.868a218.717 218.717 0 0 1-4.451-6.666z"/></g><g><path fill="#ebebec" d="M1275.72 298.696c-1.031.447-3.764 1.753-7.748 3.676.136.173.274.377.395.62 3.866 6.117 7.577 12.474 10.634 19.107 3.988 8.726 7.182 17.802 10.791 26.666 8.147-14.535 12.699-27.32 9.83-32.85-8.284-15.913-13.935-21.514-23.901-17.219z"/></g><g><path fill="#d3d4d5" d="M1210.015 136.837c-16.066-15.633-80.86 14.57-80.86 14.57l-21.117 10.652-21.6 9.623s-64.348 31.137-62.405 53.439c1.94 22.336 67.423 158.8 81.15 166.224 9.416 5.12 43.953.204 78.99-11.065 7.85-2.508 14.689-5.774 22.337-8.902 7.25-3.952 15.515-7.87 22.44-12.336 30.874-20.038 56.529-43.68 58.524-54.194 2.903-15.36-61.392-152.374-77.459-168.01z"/></g><g><path fill="#ebebec" d="M1204.362 138.212c-15.189-14.742-76.392 13.78-76.392 13.78l-19.949 10.035-20.399 9.107s-60.79 29.382-58.95 50.484c1.839 21.097 63.678 150.002 76.651 157.01 8.9 4.846 41.53.208 74.639-10.447 7.423-2.407 13.867-5.463 21.103-8.386 6.838-3.745 14.638-7.42 21.182-11.684 29.16-18.897 53.387-41.27 55.296-51.202 2.764-14.5-58.008-143.92-73.18-158.697z"/></g><g opacity=".5"><path fill="#d9d9db" d="M1205.65 357.529c-25.293 12.955-54.366 19.551-82.63 13.883-17.697-3.54-32.235-11.513-44.949-22.27 11.958 22.544 22.475 39.691 27.113 42.202 9.415 5.12 43.952.205 78.99-11.064 7.85-2.508 14.688-5.774 22.336-8.902 7.25-3.952 15.516-7.87 22.44-12.336 30.875-20.038 56.53-43.68 58.524-54.194.773-4.056-3.128-16.53-9.57-32.991-7.733 37.526-38.593 68.453-72.253 85.672z"/></g><g><path fill="#c9cacc" d="M1126.148 197.356c18.006-9.04 34.364-21.549 48.42-35.949 7.971-8.14 17.542-17.697 21.013-29.035-24.792-.346-66.426 19.035-66.426 19.035l-21.117 10.652-21.6 9.623s-38.472 18.594-55.034 37.356c30.67 10.138 66.613 2.476 94.744-11.682z"/></g><g><g><g><path fill="#ebebec" d="M1030.802 155.91c6.547 13.78.669 30.24-13.091 36.77-13.783 6.564-30.244.69-36.773-13.094l-8.297-17.49c-6.547-13.78-.69-30.24 13.09-36.77 13.78-6.53 30.227-.689 36.771 13.091z"/></g><g><path fill="#c7c8ca" d="M1027.916 156.218c5.875 12.408.603 27.217-11.788 33.13-12.422 5.875-27.234.582-33.13-11.823l-7.472-15.737c-5.895-12.408-.602-27.22 11.803-33.13 12.408-5.877 27.237-.585 33.112 11.785z"/></g><g><g><path fill="#2a416f" d="M986.694 145.016c1.34 2.785.139 6.152-2.646 7.492a5.649 5.649 0 0 1-7.527-2.68c-1.323-2.786-.135-6.153 2.698-7.49 2.802-1.341 6.17-.139 7.475 2.678z"/></g><g><path fill="#fff" d="M981.194 145.393c.363.759.037 1.65-.721 2.027a1.52 1.52 0 0 1-2.044-.72c-.36-.753-.034-1.684.738-2.027a1.543 1.543 0 0 1 2.027.72z"/></g><g><path fill="#fff" d="M979.822 149.622c.17.344 0 .756-.343.926-.343.173-.773 0-.946-.343a.714.714 0 0 1 .344-.926.691.691 0 0 1 .945.343z"/></g></g><g><g><path fill="#2a416f" d="M995.923 166.839c1.32 2.816.135 6.183-2.664 7.524a5.605 5.605 0 0 1-7.493-2.681c-1.358-2.817-.172-6.184 2.664-7.49 2.8-1.34 6.17-.138 7.493 2.647z"/></g><g><path fill="#fff" d="M990.405 167.25c.363.756.037 1.65-.72 2.027-.756.378-1.667.035-2.028-.723a1.538 1.538 0 0 1 .704-2.061c.773-.343 1.683 0 2.044.758z"/></g><g><path fill="#fff" d="M989.033 171.443c.152.343 0 .792-.343.928-.346.208-.776.035-.931-.309-.188-.38 0-.79.346-.928.325-.205.755-.034.928.309z"/></g></g><g><path fill="#c9cacc" d="M985.731 125.326a27.026 27.026 0 0 0-7.129 4.88c1.77 12.645 6.63 24.57 12.887 35.739 3.71 6.561 7.354 13.195 11.427 19.551 1.992 3.128 4.019 6.495 6.287 9.623 2.869-.343 5.74-1.098 8.508-2.439 13.76-6.53 19.638-22.99 13.09-36.77l-8.299-17.493c-6.544-13.78-22.99-19.62-36.77-13.091z"/></g></g><g><g><path fill="#ebebec" d="M1152.111 98.349c6.53 13.78 22.988 19.658 36.768 13.093 13.783-6.53 19.64-22.99 13.11-36.77l-8.313-17.49c-6.533-13.783-22.994-19.623-36.753-13.094-13.8 6.527-19.64 22.988-13.112 36.768z"/></g><g><path fill="#c7c8ca" d="M1154.19 96.287c5.875 12.408 20.687 17.663 33.091 11.823 12.408-5.913 17.698-20.725 11.823-33.13l-7.492-15.74c-5.876-12.402-20.705-17.695-33.11-11.785-12.387 5.878-17.666 20.687-11.805 33.092z"/></g><g><g><path fill="#2a416f" d="M1171.562 57.283c1.323 2.816 4.673 3.987 7.49 2.678 2.801-1.303 4.003-4.673 2.68-7.49-1.34-2.82-4.708-4.021-7.51-2.68-2.799 1.34-4.001 4.71-2.66 7.492z"/></g><g><path fill="#fff" d="M1175.324 53.261c.377.758 1.288 1.101 2.043.724.773-.346 1.084-1.271.72-2.03-.36-.755-1.27-1.098-2.026-.72-.772.342-1.098 1.271-.737 2.026z"/></g><g><path fill="#fff" d="M1179.463 54.878a.708.708 0 0 0 .946.309c.343-.17.499-.585.343-.928a.69.69 0 0 0-.943-.343c-.36.17-.499.585-.346.962z"/></g></g><g><g><path fill="#2a416f" d="M1182.643 78.244c1.323 2.784 4.69 3.987 7.493 2.646 2.833-1.306 4.02-4.673 2.68-7.49-1.343-2.819-4.693-3.986-7.51-2.68a5.656 5.656 0 0 0-2.663 7.524z"/></g><g><path fill="#fff" d="M1186.44 74.225c.36.755 1.271 1.067 2.026.724.759-.38 1.084-1.306.724-2.03-.36-.79-1.288-1.133-2.047-.755-.755.377-1.081 1.306-.703 2.061z"/></g><g><path fill="#fff" d="M1190.562 75.805a.709.709 0 0 0 .949.311c.343-.138.495-.585.325-.928-.155-.343-.585-.481-.945-.311a.69.69 0 0 0-.33.928z"/></g></g><g><path fill="#c9cacc" d="M1156.923 44.088c2.678-1.274 5.48-2.099 8.296-2.442 8.643 9.384 14.83 20.656 19.52 32.58 2.75 7.007 5.567 14.056 7.922 21.202 1.168 3.54 2.525 7.216 3.488 10.964a26.699 26.699 0 0 1-7.27 5.05c-13.78 6.565-30.238.686-36.768-13.093l-8.3-17.493c-6.529-13.78-.688-30.241 13.112-36.768z"/></g></g><g><g><path fill="#ebebec" d="M1047.606 5.53a117.313 117.313 0 0 0-12.235 4.915 115.898 115.898 0 0 0-11.511 6.357c-47.474 30.036-56.051 86.015-35.703 128.934 23.108 48.697 38.176 65.948 88.969 58.868 11.015-1.51 28.488-6.08 44.485-14.535 16.648-7.046 29.659-16.943 37.802-24.502 37.56-34.879 33.73-57.457 10.618-106.154-20.344-42.922-69.159-71.652-122.425-53.883z"/></g><g><path fill="#d9d9db" d="M1015.837 190.55c14.054 13.953 31.53 18.179 61.289 14.054 11.015-1.51 28.488-6.08 44.485-14.535 16.648-7.046 29.658-16.943 37.802-24.502 23.454-21.788 30.757-38.765 27.318-60.277-64.071 6.46-125.48 39.694-170.894 85.26z"/></g><g opacity=".5"><path fill="#c9cacc" d="M989.546 115.46c3.886-.512 2.372-5.531 2.493-8.69.257-7.39.911-14.813 2.387-22.066 2.75-13.261 7.628-25.738 15.498-36.837-3.883-2.888-8.127-5.053-12.508-7.01-16.649 21.889-22.25 48.9-18.436 74.638 3.523.277 7.112.447 10.566-.034z"/></g><g opacity=".5"><path fill="#c9cacc" d="M1121.13 26.252a259.568 259.568 0 0 1 12.525 9.45c.052-.104.104-.242.155-.343 2.148-4.503 4.47-8.902 6.683-13.368-11.099-8.867-24.02-15.532-38.125-19.038-1.154 3.814-2.356 7.594-3.471 11.408 7.628 3.436 15.221 6.91 22.232 11.891z"/></g><g><path fill="#c9cacc" d="M1157.73 71.305c18.986 40.068.256 88.696-41.891 108.694-42.115 20.004-91.654 3.748-110.674-36.29-18.987-40.036-.257-88.692 41.872-108.696 42.133-19.967 91.689-3.745 110.692 36.292z"/></g><g><g><path fill="url(#7fcja)" d="M1151.028 69.102c17.853 37.633.242 83.372-39.331 102.136-39.573 18.799-86.136 3.506-103.99-34.09-17.85-37.632-.256-83.333 39.33-102.135 39.59-18.762 86.137-3.506 103.99 34.09z"/></g><g><path fill="url(#7fcjb)" d="M1128.622 41.99c7.97 7.183 14.312 16.117 18.126 27.184 8.782 25.669-1.15 53.849-20.943 71.342-18.079 16.01-44.453 28.075-69.058 25.737-37.37-3.574-56.547-37.63-55.105-71.511-2.197 14.088-.413 28.762 6.065 42.406 17.853 37.595 64.417 52.889 103.99 34.09 39.572-18.765 57.183-64.503 39.33-102.136-5.259-11.064-13.042-20.203-22.406-27.113z"/></g><g><path fill="url(#7fcjc)" d="M1024.35 143.23c2.873 3.385 5.953 6.608 9.284 9.49 2.79 2.425 5.722 4.592 8.753 6.576 4.535.689 9.123 1.13 13.83 1.383 7.537.356 15.18.419 22.673-.466-11.017-5.258-21.017-12.825-29.325-21.846-8.352 1.927-16.693 3.92-25.215 4.862z"/></g><g><path fill="url(#7fcjd)" d="M1044.977 43.194c-19.004 12.232-33.9 32.475-34.741 55.705-.482 13.025 2.695 26.254 8.556 38.146 7.714-.45 15.498-1.684 22.99-2.75.482-.035.943-.136 1.425-.208-3.264-5.945-5.893-12.232-7.732-18.658-5.172-17.87-4.86-37.355 3.745-54.16 4.727-9.244 11.205-17.94 19.038-25.051-4.621 1.992-9.087 4.26-13.281 6.976z"/></g></g></g></g><g><path fill="#c6c8d0" d="M1183.28 191.614l-13.866 6.567-73.541 34.914-13.866 6.561c-13.746 6.53-10.981 18.217-8.611 27.424l23.215 48.902 18.179 38.28.686 1.445.26-.138c5.514 7.354 12.747 15.57 25.737 9.38l13.867-6.561 73.523-34.914 13.867-6.564c13.007-6.152 11.22-16.942 9.02-25.876l.256-.173-.668-1.372-18.18-38.319-23.195-48.901c-5.635-7.631-12.938-17.182-26.683-10.655z"/></g><g><path fill="#ebebec" d="M1181.905 194.71l-13.042 6.184-69.193 32.818-13.06 6.22c-12.938 6.153-10.309 17.116-8.092 25.776l21.838 46.01 17.112 36.05.62 1.34.26-.138c5.185 6.945 11.992 14.639 24.224 8.87l13.041-6.224 69.194-32.815 13.06-6.187c12.217-5.84 10.55-15.944 8.455-24.365l.256-.139-.634-1.302-17.098-36.05-21.823-46.016c-5.325-7.216-12.18-16.184-25.118-10.032z"/></g><g><g><path fill="#c7c8ca" d="M1222.694 270.62l-3.041 1.445-15.997 7.593-3.007 1.442c-3.004 1.412-2.387 3.952-1.888 5.981l5.033 10.618 3.97 8.351.152.309.056-.035c1.202 1.617 2.781 3.402 5.615 2.061l3.007-1.441 16.014-7.596 3.027-1.444c2.834-1.338 2.439-3.676 1.957-5.637h.07l-.139-.343-3.987-8.317-5.033-10.652c-1.237-1.683-2.834-3.744-5.81-2.335z"/></g><g><path fill="#ebebec" d="M1221.818 272.682l-2.595 1.202-13.846 6.601-2.63 1.234c-2.58 1.237-2.046 3.44-1.616 5.155l4.382 9.21 3.418 7.219.139.24h.034c1.047 1.372 2.405 2.92 4.864 1.752l2.594-1.24 13.85-6.56 2.594-1.24c2.456-1.13 2.13-3.195 1.698-4.878l.069-.035-.135-.242-3.42-7.216-4.364-9.207c-1.084-1.445-2.439-3.232-5.036-1.995z"/></g><g><path fill="#ebebec" d="M1220.72 275.328l-2.097.998-11.032 5.223-2.078.963c-2.044.995-2.113 1.75-2.148 2.3l1.27 2.682.981 2.095.035.07.052-.035c.446.346 1.115.652 3.073-.274l2.064-.963 11.03-5.258 2.081-.963c1.94-.96 2.11-1.649 2.148-2.234h.031l-.031-.101-.998-2.064-1.254-2.646c-.464-.378-1.084-.787-3.127.207z"/></g><g><path fill="#ebebec" d="M1186.27 203.745l-5.895 2.784-31.152 14.812-5.893 2.785c-1.323.617-5.171 2.436-6.495 3.09l-5.875 2.75-31.186 14.813-5.879 2.816c-5.823 2.747-5.393 6.117-4.998 8.73l6.357 13.367 4.949 10.482.187.378.139-.035c1.735 1.891 4.122 3.918 9.64 1.306l5.875-2.782 31.17-14.777 5.874-2.785a509.01 509.01 0 0 1 6.495-3.093l5.895-2.817 31.15-14.777 5.896-2.785c5.497-2.612 5.43-5.737 5.05-8.317l.138-.066-.19-.38-4.964-10.483-6.342-13.365c-1.802-1.96-4.123-4.433-9.946-1.651z"/></g><g><path fill="#c7c8ca" d="M1190.257 286.015l-3.027 1.441-16.029 7.596-3.01 1.444c-3.006 1.408-2.387 3.953-1.87 5.98l5.05 10.62 3.953 8.349.156.31.065-.034c1.188 1.615 2.768 3.402 5.584 2.061l3.024-1.444 16.015-7.593 3.024-1.444c2.82-1.34 2.442-3.676 1.96-5.636l.052-.032-.138-.277-3.97-8.351-5.05-10.652c-1.22-1.684-2.8-3.748-5.79-2.338z"/></g><g><path fill="#ebebec" d="M1189.377 288.076l-2.609 1.24-13.851 6.56-2.595 1.24c-2.592 1.237-2.079 3.434-1.632 5.155l4.365 9.208 3.436 7.215.121.277.035-.035c1.064 1.41 2.422 2.92 4.863 1.753l2.612-1.237 13.846-6.564 2.615-1.236c2.439-1.168 2.11-3.195 1.684-4.878h.051l-.12-.277-3.42-7.215-4.382-9.211c-1.049-1.442-2.424-3.229-5.019-1.995z"/></g><g><path fill="#ebebec" d="M1188.261 290.722l-2.078.998-11.033 5.223-2.078.998c-2.061.96-2.13 1.718-2.148 2.3l1.271 2.647.98 2.098.052.067.018-.035c.481.343 1.116.655 3.076-.274l2.061-.997 11.047-5.19 2.081-.997c1.94-.925 2.113-1.649 2.128-2.196l.052-.035-.032-.07-.997-2.095-1.255-2.646c-.464-.343-1.083-.79-3.145.204z"/></g><g><g><path fill="#d9d9db" d="M1176.647 271.237c1.77 3.713.187 8.179-3.523 9.934-3.728 1.785-8.196.17-9.949-3.542-1.787-3.71-.187-8.18 3.54-9.929a7.414 7.414 0 0 1 9.932 3.537z"/></g><g><path fill="#d9d9db" d="M1195.304 262.373c1.773 3.744.19 8.213-3.537 9.965-3.73 1.753-8.178.173-9.949-3.54-1.752-3.744-.19-8.213 3.541-9.965a7.448 7.448 0 0 1 9.945 3.54z"/></g><g><path fill="#d9d9db" d="M1213.968 253.505c1.767 3.748.187 8.216-3.558 9.966-3.71 1.756-8.161.205-9.931-3.537-1.77-3.748-.173-8.179 3.537-9.966 3.73-1.756 8.182-.173 9.952 3.537z"/></g></g><g><path fill="#d9d9db" d="M1132.968 348.318l-26.546-55.947 38.816-18.417 26.546 55.947z"/></g><g><g><g><path fill="#ebebec" d="M1126.766 301.137l-10.155 4.845-4.862-10.172 10.188-4.845z"/></g><g><path fill="#ebebec" d="M1138.038 295.81l-10.173 4.811-4.828-10.174 10.173-4.808z"/></g><g><path fill="#ebebec" d="M1149.31 290.447l-10.172 4.811-4.812-10.171 10.155-4.845z"/></g><g><path fill="#ebebec" d="M1132.436 313.096l-10.172 4.811-4.811-10.138 10.155-4.847z"/></g><g><path fill="#ebebec" d="M1143.708 307.733l-10.172 4.848-4.811-10.174 10.171-4.846z"/></g><g><path fill="#ebebec" d="M1144.817 307.213l-4.833-10.165 10.183-4.842L1155 302.37z"/></g></g><g><g><path fill="#ebebec" d="M1138.21 325.26l-10.174 4.812-4.828-10.172 10.173-4.81z"/></g><g><path fill="#ebebec" d="M1149.48 319.9l-10.172 4.845-4.827-10.17 10.17-4.849z"/></g><g><path fill="#ebebec" d="M1160.77 314.574l-10.172 4.809-4.828-10.172 10.172-4.845z"/></g><g><path fill="#ebebec" d="M1143.88 337.22l-10.172 4.811-4.828-10.138 10.171-4.845z"/></g><g><path fill="#ebebec" d="M1155.152 331.823l-10.173 4.882-4.828-10.175 10.172-4.845z"/></g><g><path fill="#ebebec" d="M1166.458 326.497l-10.207 4.845-4.811-10.172 10.171-4.845z"/></g></g></g><g><path fill="url(#7fcje)" d="M1187.3 208.317l-4.47 2.096-23.676 11.237-4.449 2.133c-1.014.479-3.935 1.853-4.932 2.335l-4.45 2.128-23.678 11.205-4.468 2.13c-4.431 2.096-4.122 4.642-3.797 6.669l4.812 10.136 3.779 7.936.138.311.087-.034c1.323 1.444 3.142 2.99 7.32.997l4.468-2.13 23.676-11.203 4.449-2.13c.997-.45 3.937-1.892 4.933-2.339l4.482-2.13 23.662-11.237 4.451-2.096c4.192-1.995 4.14-4.364 3.866-6.325l.087-.031-.156-.312-3.762-7.94-4.812-10.17c-1.375-1.479-3.145-3.367-7.56-1.236z"/></g><g><path fill="#6b6c6f" d="M1155.735 239.246c10.035-5.053 19.966-10.654 28.54-17.977 3.007-2.54 6.273-5.324 8.92-8.487l-.672-1.406c-1.272-1.41-2.92-3.128-7.063-1.168l-65.672 31.132c-4.121 1.995-3.83 4.364-3.554 6.255l.874 1.822c12.958 2.748 27.424-4.572 38.627-10.17z"/></g></g><g><g><path fill="#bebfc1" d="M1293.024 573.204c-6.152-9.865-17.182-18.455-29.143-19.21-17.767-1.099-31.633 17.181-36.46 32.267-2.922 9.141-3.764 17.971-2.545 27.528.551 4.33 1.514 8.625 2.46 12.918.342 3.232.686 6.498 1.098 9.692 1.066 8.317 3.266 16.46 5.414 24.536 3.402 13.093 7.749 26.703 16.683 37.15 16.27 19.07 46.514 10.514 58.559-8.558 6.217-9.894 7.818-21.994 7.232-33.47-.36-6.91-1.77-13.748-3.231-20.483-1.82-8.282-3.298-16.596-5.428-24.775-3.353-12.851-7.577-26.256-14.64-37.595z"/></g><g><path fill="#ebebec" d="M1279.001 605.61c7.167-12.03 10.295-25.945 6.859-39.725-.156-.654-.364-1.274-.534-1.926-5.982-5.466-13.488-9.452-21.445-9.965-17.767-1.099-31.633 17.181-36.46 32.267-2.922 9.141-3.764 17.971-2.545 27.528.277 2.13.654 4.258 1.067 6.388 18.643 10.105 41.374 5.02 53.058-14.567z"/></g><g><path fill="#ebebec" d="M1263.71 642.69c-10.689 4.156-22.03 9.928-29.848 18.452 3.422 13.025 7.786 26.53 16.669 36.944 16.27 19.07 46.514 10.513 58.559-8.56 6.217-9.893 7.818-21.993 7.233-33.469-.274-5.123-1.099-10.243-2.13-15.259-16.753-4.191-33.473-4.742-50.482 1.891z"/></g><g><path fill="#d9d9db" d="M1293.023 573.204c-6.151-9.865-17.18-18.455-29.142-19.21-2.765-.139-5.445.103-8.006.824 9.26.205 18.505 4.604 25.808 12.2 14.33 14.947 18.816 38.212 21.563 58.077 3.11 22.579 1.392 46.564-15.841 63.368-7.236 7.077-18.266 14.261-28.9 11.202-5.328-1.513-9.436-4.88-13.146-8.763 1.545 2.51 3.229 4.915 5.172 7.183 16.27 19.07 46.514 10.514 58.559-8.558 6.218-9.894 7.818-21.994 7.233-33.47-.36-6.91-1.77-13.748-3.232-20.483-1.82-8.282-3.298-16.596-5.428-24.774-3.353-12.852-7.576-26.257-14.64-37.596z"/></g><g><path fill="#d9d9db" d="M1268.865 606.296c6.51-7.218 11.633-16.322 11.321-26.325-.135-3.88-.911-7.594-2.095-11.168a17.616 17.616 0 0 0-1.185-1.612c-46.117-57.907-53.575-55.5-54.126-83.302-.568-27.802.998-70.416-8.539-75.775-30.6-17.22-84.452-10.448-84.452-10.448s-19.33 5.397-20.857 13.403c-1.548 8.04.787 94.64 27.182 129.934 21.169 28.353 72.509 64.264 91.942 77.32 14.092 5.637 30.155-.276 40.81-12.027z"/></g><g><path fill="#ebebec" d="M1169.757 532.513c12.99-7.524 21.03-24.293 10.464-37.594-13.883-17.424-47.75-15.53-62.646.997 4.174 17.458 10.136 33.85 18.54 45.087.048.07.1.139.152.205 11.583-.444 23.676-3.024 33.49-8.695z"/></g><g><path fill="#d9d9db" d="M1156.13 529.146c9.006-5.223 14.59-16.835 7.253-26.083-9.623-12.062-33.095-10.756-43.421.689 2.885 12.096 7.01 23.503 12.834 31.27a.776.776 0 0 0 .121.138c8.04-.274 16.41-2.096 23.212-6.014z"/></g><g><path fill="#ebebec" d="M1159.413 458.837c20.171-3.47 44.228-3.848 63.16 5.564-.187-24.91-.842-52.096-8.332-56.287-30.6-17.22-84.452-10.448-84.452-10.448s-19.33 5.397-20.857 13.403c-.91 4.707-.482 36.119 5.238 68.49 11.497-11.958 29.59-18.075 45.243-20.722z"/></g><g><path fill="#ebebec" d="M1204.155 560.076c10.052-6.22 18.557-14.95 24.023-25.501 2.37-4.535 5.653-11.03 6.941-17.352-6.221-7.697-9.418-12.99-10.98-19.863-10.5 14.982-27.252 26.39-42.767 34.468-11.65 6.048-29.16 13.748-43.626 11.306 5.619 7.115 13.008 14.64 21.186 22.163 14.947 5.604 30.774 3.679 45.223-5.22z"/></g><g><path fill="#fff" d="M1192.505 534.54c13.385-8.692 25.741-21.165 31.91-36.116-.086-.343-.19-.686-.277-1.064-10.498 14.982-27.25 26.39-42.766 34.468-11.65 6.048-29.16 13.748-43.626 11.306 2.13 2.713 4.535 5.463 7.112 8.282 16.446.755 34.847-8.559 47.647-16.876z"/></g><g opacity=".5"><path fill="#d9d9db" d="M1222.78 483.889c-.568-27.802.998-70.416-8.539-75.775-30.6-17.22-84.452-10.448-84.452-10.448s-7.8 2.2-13.883 5.841c2.338-.925 4.95-1.51 7.697-1.822 9.743-1.064 19.744.139 29.229 2.511 7.887 1.992 17.749 4.638 23.333 11.064 9.502 10.93 7.527 29.42 7.766 42.888.326 18.248 1.685 38.526 8.952 55.5 7.132 16.597 20.86 29.624 34.348 41.201 6.649 5.709 13.49 11.206 20.24 16.805 5.363 4.505 11.72 8.628 16.223 13.99 7.388 8.76 6.134 17.216 1.185 24.536a44.452 44.452 0 0 0 3.986-3.884c6.51-7.218 11.633-16.322 11.321-26.325-.135-3.88-.91-7.594-2.095-11.168a17.57 17.57 0 0 0-1.185-1.612c-46.117-57.907-53.575-55.5-54.125-83.302z"/></g><g opacity=".5"><path fill="#ebebec" d="M1116.3 411.38s-.016 95.773 21.308 124.844c21.324 29.073 91.927 77.188 91.927 77.188s-74.091-57.908-90.466-86.704c-16.392-28.8-1.254-115.432-1.254-115.432z"/></g><g><path fill="#fff" d="M1283.057 625.505c-.325.173-.706.277-1.098.343-32.304 4.09-43.13 19.006-43.233 19.18-1.168 1.648-3.471 2.026-5.12.89-1.649-1.167-2.08-3.47-.894-5.12.499-.72 12.817-17.767 48.316-22.27 2.03-.239 3.869 1.17 4.108 3.2.205 1.612-.669 3.09-2.079 3.777z"/></g><g><path fill="#fff" d="M1288.298 641.107c-.38.173-.806.311-1.27.343-33.972 2.68-46 18.455-46.12 18.626-1.185 1.652-3.502 1.96-5.137.792a3.73 3.73 0 0 1-.773-5.154c.585-.758 14.175-18.626 51.461-21.615a3.696 3.696 0 0 1 3.936 3.398c.138 1.549-.756 2.958-2.097 3.61z"/></g></g><g><g><path fill="#bebfc1" d="M1330.722 599.87c4.982 6.839 10.48 13.195 15.737 19.829 4.296 5.428 8.73 10.822 13.867 15.498 8.487 7.697 18.883 14.123 30.5 15.533 22.388 2.747 48.143-15.26 43.661-39.965-2.477-13.509-10.24-25.467-18.214-36.393-4.933-6.772-9.845-13.61-15.602-19.692a292.86 292.86 0 0 0-6.838-6.977c-2.716-3.468-5.446-6.907-8.455-10.101-6.596-6.977-13.984-11.892-22.922-15.432-14.722-5.774-37.678-6.599-48.042 7.87-6.976 9.727-7.302 23.68-3.54 34.675 4.298 12.647 12.013 24.397 19.848 35.156z"/></g><g><path fill="#ebebec" d="M1344.81 574.372c-13.831-2.064-26.596-8.42-35.103-19.828-.413-.519-.739-1.067-1.116-1.617-.499-8.11 1.185-16.426 5.823-22.887 10.364-14.469 33.32-13.644 48.042-7.87 8.937 3.54 16.326 8.455 22.922 15.432a95.983 95.983 0 0 1 4.278 4.877c-3.952 20.826-22.233 35.226-44.846 31.893z"/></g><g><path fill="#ebebec" d="M1383.23 585.987c9.983-5.67 21.618-10.79 33.147-11.445 7.92 10.86 15.65 22.786 18.11 36.223 4.482 24.706-21.273 42.712-43.66 39.965-11.618-1.41-22.014-7.836-30.5-15.533-3.815-3.47-7.234-7.354-10.498-11.304 7.372-15.636 17.508-28.938 33.401-37.906z"/></g><g><path fill="#d9d9db" d="M1310.874 564.715c-3.762-10.995-3.436-24.948 3.54-34.675a24.018 24.018 0 0 1 5.688-5.705c-5.67 7.32-8.11 17.254-6.855 27.698 2.49 20.583 17.697 38.765 31.359 53.44 15.498 16.665 35.153 30.514 59.106 27.798 10.036-1.133 22.561-5.154 26.96-15.29 2.2-5.089 2.18-10.416 1.494-15.74a54.851 54.851 0 0 1 2.321 8.524c4.482 24.706-21.273 42.712-43.66 39.964-11.618-1.41-22.014-7.835-30.501-15.532-5.137-4.676-9.571-10.07-13.866-15.498-5.259-6.634-10.756-12.99-15.738-19.828-7.835-10.76-15.55-22.51-19.848-35.156z"/></g><g><path fill="#d9d9db" d="M1351.752 566.949c-9.692.481-19.983-1.306-27.508-7.87-2.937-2.543-5.327-5.498-7.354-8.692-.207-.62-.38-1.274-.516-1.926-15.688-72.373-9.124-76.634-30.31-94.643-21.168-18.006-55.154-43.712-53.283-54.537 6.014-34.571 45.327-71.993 45.327-71.993s16.374-11.583 23.576-7.697c7.18 3.883 72.8 60.479 83.472 103.231 8.539 34.297 3.9 96.808 1.735 120.139-4.537 14.469-19.278 23.195-35.139 23.988z"/></g><g><path fill="#ebebec" d="M1357.267 443.51c-14.019 5.292-32.114.928-35.72-15.669-4.726-21.789 18.161-46.808 40.376-47.904 10.86 14.259 19.814 29.278 23.233 42.885 0 .07.017.173.052.274-7.697 8.66-17.338 16.394-27.94 20.413z"/></g><g><path fill="#d9d9db" d="M1363.264 430.83c-9.707 3.676-22.25.617-24.741-10.862-3.3-15.083 12.593-32.44 27.972-33.23 7.545 9.9 13.763 20.312 16.101 29.725.017.072.032.138.052.207-5.31 6.017-12.03 11.376-19.384 14.16z"/></g><g><path fill="#ebebec" d="M1306.734 388.903c-15.428 13.437-30.926 31.858-35.603 52.476-19.19-15.91-39.829-33.608-38.35-42.098 6.014-34.571 45.327-71.993 45.327-71.993s16.375-11.583 23.576-7.697c4.192 2.266 28.28 22.474 49.708 47.388-16.513 1.34-32.68 11.48-44.658 21.924z"/></g><g><path fill="#ebebec" d="M1356.872 487.567c-11.167 3.88-23.298 4.947-34.913 2.54-5.02-1.064-12.149-2.646-17.837-5.636-2.06-9.654-4.122-15.498-8.452-21.03 18.231 1.306 37.681-4.434 53.73-11.376 12.079-5.189 29.088-13.88 36.356-26.631 1.96 8.865 3.127 19.347 3.747 30.414-5.085 15.12-16.582 26.184-32.63 31.72z"/></g><g><path fill="#fff" d="M1344.468 462.447c-15.19 4.842-32.683 6.56-48.164 1.819-.222-.24-.412-.551-.634-.825 18.231 1.306 37.681-4.434 53.73-11.376 12.079-5.189 29.088-13.88 36.356-26.631a141.13 141.13 0 0 1 1.908 10.724c-9.793 13.226-28.661 21.615-43.196 26.289z"/></g><g opacity=".5"><path fill="#d9d9db" d="M1286.064 453.818c-21.168-18.006-55.154-43.712-53.283-54.537 6.014-34.571 45.327-71.993 45.327-71.993s6.599-4.673 13.284-7.08c-2.2 1.271-4.299 2.888-6.273 4.811-7.011 6.876-12.405 15.363-16.53 24.228-3.471 7.388-7.628 16.7-6.201 25.086 2.456 14.296 18.023 24.435 28.332 33.126 13.918 11.788 28.765 25.672 37.321 42.064 8.37 16.014 9.776 34.882 10.205 52.649.208 8.76.139 17.524.24 26.323.069 6.976-.756 14.5.55 21.373 2.134 11.307 9.436 15.637 18.266 16.461a50.244 50.244 0 0 1-5.55.62c-9.692.481-19.983-1.306-27.508-7.87-2.937-2.543-5.327-5.498-7.354-8.692-.207-.62-.38-1.274-.516-1.926-15.688-72.373-9.124-76.634-30.31-94.643z"/></g><g opacity=".5"><path fill="#ebebec" d="M1297.25 325.5s74.195 60.552 83.233 95.466c9.02 34.882 1.7 120.037 1.7 120.037s1.976-94.023-9.982-124.915c-11.961-30.93-88.627-73.988-88.627-73.988z"/></g><g><path fill="#fff" d="M1357.662 590.075a2.42 2.42 0 0 0 .963-.652c23.59-22.405 42.011-21.376 42.202-21.341a3.656 3.656 0 0 0 3.915-3.4 3.687 3.687 0 0 0-3.382-3.954c-.894-.032-21.858-1.237-47.786 23.402a3.668 3.668 0 0 0-.138 5.19 3.626 3.626 0 0 0 4.226.755z"/></g><g><path fill="#fff" d="M1366.443 604.028c.379-.205.756-.447 1.067-.79 23.573-24.608 43.404-23.954 43.608-23.954 2.01.104 3.746-1.44 3.832-3.47.104-2.027-1.461-3.745-3.505-3.849-.929-.035-23.368-.79-49.245 26.188a3.72 3.72 0 0 0 .104 5.22c1.133 1.07 2.8 1.275 4.14.655z"/></g></g><g><path fill="#ebebec" d="M1116.439 377.29s-48.49-81.036-57.544-114.952c0 0-5.342-17.355 2.56-24.778 7.922-7.42 57.51-23.23 57.51-23.23l-46.599 24.297s-12.044 6.734-5.41 26.943c7.25 21.993 8.212 19.62 49.483 111.72z"/></g><g><path fill="#ebebec" d="M1267.594 305.569s-32.115-88.8-52.666-117.253c0 0-10.07-15.12-20.809-13.676-10.755 1.444-54.364 29.825-54.364 29.825l48.267-20.719s12.852-5.088 24.311 12.852c12.46 19.517 10.018 18.73 55.26 108.97z"/></g></g></g></g></svg>