<svg xmlns="http://www.w3.org/2000/svg" width="100" height="81" viewBox="0 0 100 81"><g><g><g><path fill="#fff" d="M72.08 76.444L50.062 50.748 28.036 76.444zm6.557.797c.339.394.56.886.56 1.445 0 1.239-1.002 2.24-2.239 2.24H23.165c-1.239 0-2.244-1.001-2.244-2.24 0-.559.224-1.05.559-1.445l-.02-.014 26.897-31.38.024.014c.406-.478 1-.8 1.68-.8.679 0 1.269.322 1.68.8l.018-.014 26.897 31.38zM97.129.231a2.244 2.244 0 0 1 2.242 2.242v62.763a2.24 2.24 0 0 1-2.242 2.24H79.198a2.24 2.24 0 0 1 0-4.482h15.689V4.713H5.234v58.281h15.687a2.241 2.241 0 1 1 0 4.482H2.992a2.24 2.24 0 0 1-2.242-2.24V2.473A2.244 2.244 0 0 1 2.992.231H97.13"/></g></g></g></svg>