<svg xmlns="http://www.w3.org/2000/svg" width="99" height="100" viewBox="0 0 99 100"><g><g><g><path d="M60.519 72.42h-13.45a2.24 2.24 0 1 0 0 4.481h13.45a2.24 2.24 0 1 0 0-4.482M44.827 56.731c0-.736-.375-1.357-.919-1.763l.024-.03L26 41.49l-.021.027c-.375-.277-.817-.478-1.326-.478a2.243 2.243 0 0 0-2.242 2.24c0 .738.375 1.358.917 1.764l-.021.031 15.54 11.657-15.54 11.656.021.028c-.542.411-.917 1.032-.917 1.763a2.24 2.24 0 0 0 2.242 2.241c.509 0 .946-.198 1.326-.48l.021.032 17.93-13.447-.023-.031c.544-.411.92-1.032.92-1.762m49.308 33.617a4.485 4.485 0 0 1-4.484 4.484H8.968a4.485 4.485 0 0 1-4.484-4.484V9.664A4.485 4.485 0 0 1 8.968 5.18h80.684a4.485 4.485 0 0 1 4.484 4.484zM89.652.696H8.968A8.966 8.966 0 0 0 0 9.664v80.684a8.966 8.966 0 0 0 8.968 8.968h80.684a8.966 8.966 0 0 0 8.968-8.968V9.664A8.966 8.966 0 0 0 89.652.696"/></g></g></g></svg>