<svg xmlns="http://www.w3.org/2000/svg" width="99" height="81" viewBox="0 0 99 81"><g><g><g><path d="M71.33 76.444L49.31 50.748 27.286 76.444zm6.556.797c.34.394.561.886.561 1.445 0 1.239-1.003 2.24-2.24 2.24H22.416c-1.24 0-2.244-1.001-2.244-2.24 0-.559.224-1.05.558-1.445l-.019-.014 26.896-31.38.024.014c.406-.478 1-.8 1.681-.8.678 0 1.268.322 1.679.8l.019-.014 26.896 31.38zM96.378.231a2.244 2.244 0 0 1 2.242 2.242v62.763a2.24 2.24 0 0 1-2.242 2.24h-17.93a2.24 2.24 0 0 1 0-4.482h15.688V4.713H4.484v58.281H20.17a2.241 2.241 0 1 1 0 4.482H2.242A2.24 2.24 0 0 1 0 65.236V2.473A2.244 2.244 0 0 1 2.242.231h94.136"/></g></g></g></svg>