<svg xmlns="http://www.w3.org/2000/svg" width="102" height="102" viewBox="0 0 102 102"><g><g><g><g><path fill="#fff" d="M1.151 1.28v1.153l.817-.34zM99.75 99.392l-.34.823h1.166z"/></g></g><g><g><path d="M3.658 7.311l90.848 90.397H3.658zm96.567 90.93L3.118 1.614 0 2.911v96.626l1.829 1.829h97.106z"/></g></g><g><g><path fill="#fff" d="M61.962 86.3H21.614V45.445zm-3.242-1.355L22.97 48.744v36.2z"/></g></g><g><g><path d="M24.12 51.546l31.844 32.247H24.121zm37.522 32.792l-38.049-38.53-3.13 1.285v38.53l1.829 1.828H60.34z"/></g></g><g><g/></g><g><g><path fill="#fff" d="M3.658 34.317v1.356l9.832-.46-.034-.677-.033-.678z"/></g></g><g><g><path d="M3.183 34.338l.03.676.032.678.413-.02v-1.356z"/></g></g><g><g><path d="M3.3 36.843l-.17-3.653 10.242-.483.17 3.656z"/></g></g><g><g/></g><g><g/></g><g><g><path fill="#fff" d="M3.658 46.836v1.358l6.587-.425-.043-.678-.045-.675z"/></g></g><g><g><path d="M2.732 46.896l.043.676.043.678.84-.055v-1.359z"/></g></g><g><g><path d="M2.892 49.398l-.236-3.651 7.425-.48.237 3.65z"/></g></g><g><g/></g><g><g/></g><g><g><path fill="#fff" d="M3.658 59.43v1.356l9.832-.46-.034-.676-.033-.678z"/></g></g><g><g><path d="M3.183 59.451l.03.678.032.676.413-.019V59.43z"/></g></g><g><g><path d="M3.3 61.957l-.17-3.653 10.242-.483.17 3.656z"/></g></g><g><g/></g><g><g/></g><g><g><path fill="#fff" d="M3.658 71.95v1.358l6.587-.425-.043-.678-.045-.676z"/></g></g><g><g><path d="M2.732 72.01l.043.678.043.675.84-.054v-1.36.001z"/></g></g><g><g><path d="M2.892 74.51l-.236-3.65 7.425-.48.237 3.65z"/></g></g><g><g/></g><g><g><path fill="#fff" d="M3.658 85.474v1.356l9.832-.46-.034-.676-.033-.678z"/></g></g><g><g><path d="M3.183 85.496l.062 1.353.413-.019v-1.356z"/></g></g><g><g><path d="M3.3 88l-.17-3.653 10.242-.48.17 3.653z"/></g></g><g><g><path fill="#fff" d="M100.86 71.536l.416.103-.103-.413z"/></g></g><g><g><path d="M32.804 10.887L39.71 4.08l55.925 54.93 2.228 9.19-9.154-2.302zM102.13 70.28l-3.064-12.638-.496-.873L40.989.21l-2.567.002-9.507 9.374v2.607l57.582 56.66.836.471 12.573 3.159z"/></g></g><g><g><path d="M39.5 20.583"/></g></g><g><g><path fill="#fff" d="M47.027 11.268l-6.523 7.196.967.953 6.523-7.199z"/></g></g><g><g><path d="M48.28 9.887l-1.253 1.382.967.95 1.29-1.423-.502-.456zm-7.776 8.578l-1.506 1.662L40 21.04l1.471-1.623z"/></g></g><g><g><path d="M40.855 21.811l-2.71-2.457 9.283-10.24 2.71 2.454z"/></g></g></g></g></svg>