<svg xmlns="http://www.w3.org/2000/svg" width="98" height="98" viewBox="0 0 98 98"><g><g><path d="M80.336 79.361a40.724 40.724 0 0 0-8.98-5.833c.06-.179.122-.36.186-.544a74.887 74.887 0 0 0 2.51-10.766c.076-.482.136-.967.205-1.454.2-1.45.368-2.92.499-4.415.048-.558.098-1.11.138-1.673.086-1.247.103-2.524.144-3.8h17.665c-.549 11.056-5.166 21.021-12.367 28.485M61.72 90.874a32.86 32.86 0 0 0 2.733-3.304l.244-.337c1.75-2.464 3.333-5.298 4.701-8.466.074-.172.14-.351.213-.523.08-.191.143-.404.224-.597a36.612 36.612 0 0 1 7.313 4.706c-4.467 3.798-9.689 6.738-15.428 8.521m-10.902 1.76v-19.57c5.432.225 10.56 1.223 15.125 2.916-3.61 9.183-8.992 15.434-15.125 16.654m0-41.757h19.829c-.191 7.669-1.373 14.805-3.269 20.958-5.023-1.862-10.634-2.956-16.56-3.185zm0-22.193c5.926-.23 11.537-1.323 16.56-3.185 1.896 6.15 3.078 13.29 3.269 20.958h-19.83zm0-23.983c6.133 1.22 11.515 7.473 15.125 16.653-4.565 1.69-9.693 2.691-15.125 2.915zm26.33 10.278a36.41 36.41 0 0 1-7.313 4.709c-.081-.194-.143-.404-.224-.592-.072-.177-.139-.354-.213-.528-1.368-3.169-2.951-6.005-4.701-8.467l-.244-.336a32.561 32.561 0 0 0-2.733-3.302c5.74 1.78 10.961 4.718 15.428 8.516m15.555 31.478H75.038c-.041-1.27-.058-2.552-.144-3.798-.04-.564-.09-1.115-.138-1.674a89.47 89.47 0 0 0-.5-4.417c-.068-.48-.128-.972-.204-1.452a74.887 74.887 0 0 0-2.51-10.765c-.064-.18-.126-.36-.186-.545a40.881 40.881 0 0 0 8.98-5.828c7.2 7.457 11.818 17.425 12.368 28.48M46.396 24.268c-5.434-.224-10.568-1.224-15.13-2.915 3.61-9.18 8.991-15.433 15.13-16.653zm0 22.188h-19.83c.192-7.669 1.369-14.807 3.27-20.958 5.02 1.862 10.63 2.956 16.56 3.185zm0 22.193c-5.93.23-11.54 1.323-16.56 3.185-1.901-6.153-3.078-13.29-3.27-20.958h19.83zm0 23.984c-6.139-1.22-11.52-7.471-15.13-16.654 4.562-1.693 9.696-2.69 15.13-2.915zM20.063 82.353a36.475 36.475 0 0 1 7.313-4.706c.079.193.146.406.222.597.077.172.139.35.215.523 1.368 3.168 2.949 6.002 4.699 8.466l.248.337a31.323 31.323 0 0 0 2.734 3.304c-5.745-1.783-10.961-4.723-15.431-8.521M22.176 50.877c.036 1.275.057 2.552.138 3.799.041.563.096 1.115.139 1.673.131 1.495.298 2.966.501 4.415.072.487.13.972.206 1.454.604 3.803 1.449 7.404 2.511 10.766.065.184.122.365.18.544a40.876 40.876 0 0 0-8.978 5.833C9.677 71.897 5.054 61.931 4.51 50.877zm-5.303-32.899a41.034 41.034 0 0 0 8.978 5.828c-.058.184-.115.366-.18.545a75.204 75.204 0 0 0-2.511 10.765c-.077.48-.134.972-.206 1.452a86.664 86.664 0 0 0-.501 4.417c-.043.559-.098 1.11-.139 1.674-.08 1.246-.102 2.528-.138 3.798H4.51c.544-11.054 5.167-21.022 12.363-28.479M35.494 6.463a31.049 31.049 0 0 0-2.734 3.302l-.248.336c-1.75 2.462-3.33 5.298-4.699 8.467-.076.174-.138.35-.215.528-.076.188-.143.398-.222.592a36.275 36.275 0 0 1-7.313-4.709c4.47-3.798 9.686-6.735 15.431-8.516M48.607.062C21.76.062 0 21.822 0 48.668c0 26.844 21.76 48.605 48.607 48.605 26.841 0 48.604-21.76 48.604-48.605C97.211 21.822 75.448.062 48.607.062"/></g></g></svg>