<svg xmlns="http://www.w3.org/2000/svg" width="45" height="100" viewBox="0 0 45 100"><g><g><g><g><path fill="#383a3d" d="M22.298 89.074c-.327 0-.653-.093-.94-.278l-11.58-7.527a1.723 1.723 0 1 1 1.878-2.89l10.647 6.92 10.779-6.924a1.723 1.723 0 1 1 1.863 2.9L23.23 88.8a1.724 1.724 0 0 1-.932.273z"/></g></g><g><g opacity=".31"><path fill="#383a3d" d="M22.31 100.1c-.27 0-.538-.076-.773-.228L12.01 93.68a1.417 1.417 0 0 1 1.545-2.378l8.76 5.692 8.866-5.696a1.418 1.418 0 0 1 1.532 2.386l-9.637 6.19c-.233.15-.5.226-.766.226z"/></g></g><g><g><path fill="#383a3d" d="M39.66 27.911c-5.065 3.125-9.927 5.031-17.419 5.031-7.49 0-12.353-1.906-17.418-5.029v-6.227c0-8.865 7.213-16.078 16.079-16.078h2.68c8.866 0 16.078 7.213 16.078 16.078zM23.582 68.893h-2.68c-8.866 0-16.079-7.213-16.079-16.079V33.483c4.878 2.636 10.11 4.283 17.418 4.283 7.31 0 12.542-1.648 17.42-4.285v19.333c0 8.866-7.213 16.079-16.079 16.079zM19.83.812C8.8 1.372 0 10.52 0 21.686v31.128C0 64.34 9.376 73.716 20.902 73.716h2.68c11.526 0 20.902-9.376 20.902-20.902V21.686c0-11.166-8.801-20.315-19.83-20.874z"/></g><g><path fill="#383a3d" d="M22.242 11.927a2.412 2.412 0 0 0-2.412 2.412v10.259a2.412 2.412 0 1 0 4.824 0v-10.26a2.412 2.412 0 0 0-2.412-2.411z"/></g></g></g></g></svg>