<svg xmlns="http://www.w3.org/2000/svg" width="332" height="96" viewBox="0 0 332 96"><g><g><g><path fill="#583187" d="M254.842.325c-8.012 0-14.995 4.356-18.742 10.821h18.974c1.56-.073 10.596-.927 10.596-10.821z"/></g><g><g><path fill="#583187" d="M40.021 49.134c0 10.847-8.959 19.64-20.011 19.64C8.96 68.774 0 59.98 0 49.134v-9.82s10.005 0 10.005 9.82c0 5.423 4.479 9.82 10.005 9.82 5.525 0 10.004-4.397 10.004-9.82 0-5.424-4.479-9.82-10.004-9.82-2.762 0-5.003-2.198-5.003-4.91 0-2.71 2.24-4.909 5.003-4.909 5.525 0 10.004-4.397 10.004-9.819 0-5.423-4.479-9.82-10.004-9.82-5.526 0-10.005 4.397-10.005 9.82 0 9.82-10.005 9.82-10.005 9.82v-9.82C0 8.83 8.96.036 20.01.036S40.02 8.83 40.02 19.677c0 5.867-2.626 11.13-6.782 14.729 4.156 3.598 6.782 8.862 6.782 14.729z"/></g></g><g><g><path fill="#583187" d="M64.841 39.306c5.424 0 9.821 4.397 9.821 9.822 0 5.425-4.397 9.823-9.82 9.823-5.426 0-9.823-4.398-9.823-9.823 0-5.425 4.397-9.822 9.822-9.822zM55.02 19.662c0-5.425 4.397-9.823 9.822-9.823 5.424 0 9.821 4.398 9.821 9.823 0 0 0 9.821 9.824 9.821v-9.821C84.486 8.812 75.69.017 64.84.017S45.196 8.812 45.196 19.662v29.466c0 10.85 8.795 19.646 19.645 19.646s19.645-8.796 19.645-19.646c0-10.849-8.795-19.645-19.645-19.645-3.579 0-6.933.963-9.822 2.635z"/></g></g><g><path fill="#583187" d="M109.229 9.825c1.484 0 2.886.338 4.148.927L99.405 40.248V19.65c0-5.427 4.399-9.825 9.824-9.825zm9.824 26.886v12.413c0 5.426-4.398 9.824-9.824 9.824a9.777 9.777 0 0 1-6.598-2.56l20.5-43.277a44.413 44.413 0 0 1 1.54-2.936l-.161-.075.81-1.721C121.768 3.314 115.888 0 109.23 0 98.375 0 89.58 8.797 89.58 19.65v29.474c0 10.853 8.796 19.65 19.65 19.65 10.852 0 19.648-8.797 19.648-19.65V30.002z"/></g><g><path fill="#886aab" d="M129.067 30.741c0 7.419-4.034 13.885-10.02 17.354v-17.57c.069-1.443.859-9.81 10.02-9.81z"/></g><g><g><path fill="#808184" d="M161.39 88.215c0 1.004-.368 1.799-1.106 2.386-.738.586-1.719.88-2.942.88-1.47 0-2.597-.162-3.382-.485v-.84c.867.368 1.972.551 3.317.551.987 0 1.77-.225 2.349-.678.578-.453.868-1.046.868-1.781 0-.456-.096-.833-.288-1.132-.192-.299-.505-.572-.938-.819-.434-.246-1.07-.512-1.909-.797-1.23-.423-2.078-.88-2.547-1.37-.469-.49-.703-1.145-.703-1.963 0-.9.352-1.633 1.057-2.2.704-.57 1.61-.852 2.719-.852 1.13 0 2.192.213 3.185.641l-.305.725c-.999-.417-1.952-.626-2.863-.626-.889 0-1.597.206-2.123.617-.526.411-.79.971-.79 1.678 0 .445.081.81.242 1.095.163.285.427.542.795.77.367.227.999.5 1.892.818.938.324 1.643.638 2.115.942.471.304.816.65 1.032 1.037.217.386.326.854.326 1.403z"/></g><g><path fill="#808184" d="M165.637 91.317h-.815v-8.944h.815zm-.93-11.429c0-.527.173-.79.519-.79a.46.46 0 0 1 .398.206c.097.137.145.332.145.584 0 .247-.048.441-.145.584a.455.455 0 0 1-.398.215c-.346 0-.519-.267-.519-.799z"/></g><g><path fill="#808184" d="M180.9 91.317V85.45c0-.873-.17-1.51-.51-1.91-.34-.4-.86-.6-1.563-.6-.916 0-1.593.252-2.032.756-.44.506-.658 1.297-.658 2.378v5.242h-.831v-6.114c0-1.508-.691-2.263-2.074-2.263-.938 0-1.62.274-2.049.82-.428.545-.641 1.419-.641 2.62v4.937h-.815v-8.944h.675l.173 1.226h.05a2.564 2.564 0 0 1 1.052-1.033 3.137 3.137 0 0 1 1.506-.366c1.41 0 2.315.53 2.715 1.589h.033c.29-.51.682-.903 1.173-1.178.49-.274 1.048-.41 1.674-.41.976 0 1.708.26 2.197.78.488.522.732 1.35.732 2.486v5.85z"/></g><g><path fill="#808184" d="M189.508 90.757c-1.058 0-1.822-.299-2.29-.896-.47-.598-.704-1.597-.704-2.996v-.263c0-1.294.243-2.229.732-2.802.488-.572 1.253-.86 2.295-.86 1.898 0 2.847 1.314 2.847 3.942 0 1.223-.25 2.175-.753 2.855-.502.68-1.21 1.02-2.127 1.02zm.017.725c1.152 0 2.061-.405 2.728-1.214.666-.81.999-1.949.999-3.42 0-1.513-.316-2.667-.95-3.46-.634-.791-1.554-1.188-2.76-1.188-1.35 0-2.332.483-2.946 1.448h-.05l-.156-1.275h-.691v12.992h.815v-3.406c0-.483-.012-.927-.033-1.333l-.025-.692h.058c.63 1.032 1.635 1.548 3.011 1.548z"/></g><g><path fill="#808184" d="M197.639 91.317h-.815V78.514h.815z"/></g><g><path fill="#808184" d="M200.232 82.373h.839l1.892 5.019c.576 1.542.941 2.581 1.094 3.118h.05a90.88 90.88 0 0 1 1.127-3.167l1.893-4.97h.839l-4.007 10.392c-.324.844-.596 1.415-.815 1.711-.219.297-.476.519-.769.667-.293.148-.649.222-1.065.222-.313 0-.662-.057-1.045-.173v-.707c.318.087.66.131 1.028.131.28 0 .527-.065.74-.197.215-.132.408-.336.58-.614.173-.276.373-.716.601-1.316.228-.601.374-.991.44-1.172z"/></g><g><path fill="#808184" d="M218.17 90.74c-.625 0-1.109-.154-1.452-.464-.343-.31-.515-.745-.515-1.304 0-.702.268-1.22.803-1.55.535-.333 1.43-.529 2.687-.59l1.563-.066v.88c0 .973-.276 1.73-.827 2.276-.551.546-1.304.818-2.26.818zm3.892.577v-5.95c0-1.08-.243-1.875-.728-2.385-.485-.51-1.22-.765-2.201-.765-.96 0-1.93.23-2.913.69l.305.709c.888-.461 1.747-.692 2.575-.692.768 0 1.325.217 1.67.65.346.434.519 1.075.519 1.926v.592l-1.704.05c-1.376.027-2.428.282-3.155.765-.726.482-1.09 1.16-1.09 2.032 0 .795.244 1.418.733 1.867.488.45 1.17.676 2.048.676.647 0 1.208-.12 1.683-.359.474-.238.936-.645 1.386-1.222h.066l.206 1.416z"/></g><g><path fill="#808184" d="M229.625 91.482c-1.278 0-2.279-.404-3.003-1.21-.724-.807-1.086-1.931-1.086-3.374 0-1.48.375-2.634 1.127-3.46.752-.826 1.78-1.238 3.086-1.238.773 0 1.514.135 2.221.403l-.222.724c-.773-.258-1.445-.387-2.016-.387-1.097 0-1.928.34-2.493 1.017-.565.677-.848 1.653-.848 2.924 0 1.208.283 2.153.848 2.835.565.683 1.355 1.024 2.37 1.024a5.82 5.82 0 0 0 2.262-.435v.756c-.57.28-1.319.42-2.246.42z"/></g><g><path fill="#808184" d="M241.392 91.317v-5.801c0-.9-.19-1.554-.568-1.962-.378-.41-.966-.614-1.76-.614-1.07 0-1.854.27-2.35.811-.496.54-.744 1.417-.744 2.63v4.936h-.815V78.514h.815v4.073l-.041 1.143h.057c.335-.537.757-.927 1.267-1.168.51-.241 1.144-.362 1.9-.362 2.03 0 3.045 1.088 3.045 3.267v5.85z"/></g><g><path fill="#808184" d="M247.005 91.317h-.816v-8.944h.816zm-.93-11.429c0-.527.173-.79.518-.79a.46.46 0 0 1 .399.206c.096.137.144.332.144.584 0 .247-.048.441-.144.584a.455.455 0 0 1-.399.215c-.345 0-.518-.267-.518-.799z"/></g><g><path fill="#808184" d="M254.469 82.924c.795 0 1.417.292 1.867.876.45.584.675 1.395.675 2.431h-5.53c.088-1.069.393-1.887.914-2.455.52-.568 1.212-.852 2.074-.852zm.238 8.558c.515 0 .987-.041 1.415-.12.428-.08.894-.229 1.398-.449v-.74c-.591.236-1.081.39-1.467.46a7.448 7.448 0 0 1-1.346.107c-1.048 0-1.853-.323-2.415-.97s-.849-1.586-.86-2.814h6.443v-.659c0-1.261-.305-2.26-.913-2.994-.61-.735-1.44-1.103-2.494-1.103-1.19 0-2.136.43-2.838 1.288-.702.858-1.053 2-1.053 3.427 0 1.442.363 2.564 1.09 3.365.727.8 1.74 1.202 3.04 1.202z"/></g><g><path fill="#808184" d="M263.396 91.317l-3.455-8.944h.84l2.311 6.08c.307.78.538 1.46.691 2.04h.05a32.56 32.56 0 0 1 .69-2.056l2.313-6.064h.84l-3.457 8.944z"/></g><g><path fill="#808184" d="M273.641 82.924c.796 0 1.418.292 1.868.876.45.584.675 1.395.675 2.431h-5.53c.088-1.069.393-1.887.914-2.455.52-.568 1.212-.852 2.073-.852zm1.654 8.438c.428-.08.894-.229 1.399-.449v-.74c-.592.236-1.083.39-1.469.46a7.451 7.451 0 0 1-1.345.107c-1.048 0-1.853-.323-2.415-.97s-.85-1.586-.86-2.814h6.443v-.659c0-1.261-.305-2.26-.913-2.994-.61-.735-1.44-1.103-2.494-1.103-1.19 0-2.136.43-2.838 1.288-.703.858-1.054 2-1.054 3.427 0 1.442.364 2.564 1.09 3.365.727.8 1.741 1.202 3.04 1.202.516 0 .989-.041 1.416-.12z"/></g><g><path fill="#808184" d="M297.258 91.317V85.45c0-.873-.17-1.51-.51-1.91-.34-.4-.861-.6-1.564-.6-.915 0-1.593.252-2.032.756-.44.506-.658 1.297-.658 2.378v5.242h-.831v-6.114c0-1.508-.691-2.263-2.074-2.263-.938 0-1.62.274-2.048.82-.429.545-.642 1.419-.642 2.62v4.937h-.814v-8.944h.674l.173 1.226h.05a2.572 2.572 0 0 1 1.052-1.033 3.139 3.139 0 0 1 1.506-.366c1.41 0 2.315.53 2.716 1.589h.032c.29-.51.682-.903 1.173-1.178.49-.274 1.05-.41 1.674-.41.977 0 1.708.26 2.197.78.488.522.733 1.35.733 2.486v5.85z"/></g><g><path fill="#808184" d="M303.195 83.957c.535-.678 1.296-1.017 2.283-1.017.988 0 1.754.34 2.3 1.021.546.68.819 1.637.819 2.871 0 1.23-.27 2.188-.81 2.876-.541.689-1.304 1.032-2.292 1.032-.988 0-1.752-.343-2.292-1.032-.54-.688-.81-1.647-.81-2.876 0-1.24.268-2.198.802-2.875zm6.257 2.875c0-1.436-.349-2.568-1.049-3.394-.699-.826-1.663-1.238-2.892-1.238-1.234 0-2.205.407-2.913 1.222-.707.815-1.061 1.952-1.061 3.41 0 .927.159 1.744.477 2.452.318.708.776 1.25 1.374 1.63.598.378 1.29.568 2.074.568 1.245 0 2.222-.411 2.929-1.23.708-.821 1.061-1.96 1.061-3.42z"/></g><g><path fill="#808184" d="M316.546 82.2c.378 0 .784.039 1.218.116l-.156.781a4.772 4.772 0 0 0-1.16-.14c-.763 0-1.388.324-1.876.971-.489.647-.733 1.464-.733 2.452v4.937h-.815v-8.944h.692l.083 1.612h.056c.369-.658.76-1.12 1.177-1.386.417-.266.921-.399 1.514-.399z"/></g><g><path fill="#808184" d="M324.052 82.924c.795 0 1.418.292 1.867.876.45.584.675 1.395.675 2.431h-5.53c.088-1.069.393-1.887.914-2.455.521-.568 1.213-.852 2.074-.852zm.238 8.558c.515 0 .988-.041 1.416-.12.428-.08.893-.229 1.398-.449v-.74c-.592.236-1.082.39-1.469.46a7.443 7.443 0 0 1-1.345.107c-1.048 0-1.852-.323-2.415-.97-.562-.647-.849-1.586-.86-2.814h6.443v-.659c0-1.261-.304-2.26-.913-2.994-.61-.735-1.44-1.103-2.493-1.103-1.191 0-2.137.43-2.839 1.288-.702.858-1.053 2-1.053 3.427 0 1.442.363 2.564 1.09 3.365.727.8 1.74 1.202 3.04 1.202z"/></g><g><path fill="#808184" d="M329.865 90.675c0-.538.22-.807.658-.807.45 0 .675.27.675.807 0 .538-.225.807-.675.807-.439 0-.658-.27-.658-.807z"/></g></g><g><path fill="#3c3c3b" d="M198.063 26.046h-.428l-.322-10.18h-8.252c.322 4.822.43 10.072.43 16.181v36.91h9.322V40.085c0-1.607.214-3.107.429-4.393 1.286-7.073 6-12.11 12.645-12.11 1.286 0 2.25.107 3.215.321v-8.894a10.228 10.228 0 0 0-2.679-.322c-6.322 0-12.003 4.394-14.36 11.36z"/></g><g><path fill="#3c3c3b" d="M242.525 61.839c-9.216 0-15.752-8.573-15.752-19.933 0-9.859 4.822-20.146 15.966-20.146 11.146 0 15.54 11.145 15.54 19.932 0 11.68-6.752 20.147-15.754 20.147zm.43-47.153c-14.36 0-25.72 10.181-25.72 27.542 0 16.395 10.823 26.683 24.862 26.683 12.538 0 25.827-8.359 25.827-27.54 0-15.86-10.074-26.685-24.97-26.685z"/></g><g><path fill="#3c3c3b" d="M158.671 61.517c-6.75 0-12.43-4.5-14.145-11.038-.215-1.178-.429-2.465-.429-3.857v-8.896c0-1.285.322-2.678.643-3.857 1.822-7.073 7.823-11.68 14.252-11.68 9.968 0 15.433 8.894 15.433 19.288 0 11.895-5.788 20.04-15.754 20.04zm3.215-46.83c-8.466 0-14.574 3.75-18.431 10.073h-.215l-.43-8.894h-8.465c.215 4.93.43 10.287.43 16.93v58.672h9.322v-30.7h.214c3.109 5.143 9.11 8.143 15.968 8.143 12.216 0 23.576-9.216 23.576-27.863 0-15.752-9.43-26.362-21.969-26.362z"/></g></g></g></svg>