<svg xmlns="http://www.w3.org/2000/svg" width="2503" height="654" viewBox="0 0 2503 654"><g><g opacity=".13"><path fill="#c6c6c6" d="M1964.25 128.386c-44.347-28.904-133.888-76.064-274.1-80.628-125.866-4.09-206.553 14.093-213.154 3.042-9.086-15.213 137.265-42.438 289.647-40.466 152.38 1.971 263.162 70.892 288.227 107.403 25.065 36.51-46.274 39.554-90.62 10.649zM817.03 219.104c-136.895 31.375-458.47 27.736-440.408-7.607 8.838-17.294 194.229-.608 298.67-22.332 117.614-24.475 270.52-71.793 328.764-52.661 44.346 14.58-50.13 51.212-187.026 82.6zm1496.205-19.777c-200.861-28.308-206.306-118.101-326.219-162.523-224.723-83.245-487.624-8.726-950.182 59.635-81.289 12.012-162.516 20.677-243.203 26.543a3628.729 3628.729 0 0 1-107.51 6.207c-148.788 13.12-270.366 42.17-387.194 60.852C221.741 202.38 146.546 210.012 67 205.704v27.578c323.489 22.43 464.456 39.882 639.234 28.941a1172.878 1172.878 0 0 0 52.182-4.016l.278-.025c322.224-32.166 476.163-184.708 931.642-157.045C1964.85 117.81 1928.248 203.1 2325.375 229.52c19.095 1.266 37.42 2.52 55.344 3.761v-27.444c-22.12-1.193-44.547-3.286-67.484-6.511z"/></g><g opacity=".13"><path fill="#a8a5a5" d="M679.184 573.584c-131.99 16.32-185.298 44.847-221.13 24.474-19.404-11.038 139.564-85.216 280.763-76.892 141.198 8.312 255.604 62.336 249.727 73.655-5.861 11.306-177.354-37.546-309.36-21.237zm1168.336-89.951c-175.92-10.308-124.34 47.83-41.971 83.172 82.353 35.342-17.122 52.283-223.845-4.065-206.707-56.349-298.099-32.045-251.578 21.079 46.521 53.123 4.288 19.667-222.009-56.738-226.312-76.405-439.76-82.016-597.71-14.057-157.95 67.947-287.766 121.448-267.898 87.42 19.836-34.017 133.254-101.586-7.312-112.466-84.62-6.548-175.904-9.14-235.197-10.175v12.9c6.108-.17 11.8-.206 16.828-.011 53.108 2.13 60.913 25.216-16.828 39.991v18.146c104.102-18.596 245.393-35.939 219.958 5.526-29.338 47.805-27.457 102.17 101.896 99.455 129.337-2.726 300.012-89.598 603.819-38.007 303.79 51.59 524.597 36.072 465.628-6.463-58.985-42.51 1.218-69.505 161.405-15.237 160.186 54.267 518.365 7.424 380.298-12.17-85.021-12.061-202.82-78.742-22.212-38.447 198.934 44.373 358.966 13.765 358.966 13.765a2165.41 2165.41 0 0 1 43.96-8.337v-18.121c-11.537 2.178-24.864 4.174-40.258 5.89-120.02 13.375-361.063 3.274-373.157-19.229-9.717-18.085 35.832-8.629 130.109-4.844 86.317 3.445 215.253-19.776 283.307-21.845v-13.619c-18.217-.036-39.133-.036-63.936-.036 0 0-301.956 12.389-402.263 6.523z"/></g><g opacity=".15"><path fill="#f8f8f8" d="M2149.456 315.923c180.457 32.665 354.099 33.466 354.099 33.466s-112.168 54.785-318.952 15.566c-206.827-39.208-301.558-42.027-323.032 26.642-21.49 68.659-209.018 36.005-440.655-3.665-231.652-39.682-418.522 40.798-490.117 60.334-71.596 19.536-152.74 33.376-168.732-23.428C746.076 368.023 503 412.735 503 412.735c135.031-62.037 267.9-89.807 296.533-50.453 28.647 39.343 55.146 59.375 243.763-10.422 252.596-93.474 455.486-15.69 617.775 13.715 162.275 29.418 155.146 38.6 123.95-36.782-33.571-81.168 221.588-38.723 364.435-12.87zm-126.799-2.436c2.39-12.295-77.551-19.841-127.687-19.796-50.107.034-107.586 27.432-70.407 52.867 26.256 17.946 60.858-17.957 99.054-20.8 38.182-2.83 96.65 0 99.04-12.271zM792.074 414.754c-16.163 6.61 7.702 49.45 39.928 42.197m-47.974-55.879c16.693-5.944 26.829-23.676-10.923-40.651-49.935-22.47-181.774 17.54-167.715 29.214 7.53 6.26 77.208-12.859 111.91-8.29 34.717 4.556 50.021 25.66 66.728 19.727z"/></g></g></svg>