<svg xmlns="http://www.w3.org/2000/svg" width="102" height="35" viewBox="0 0 102 35"><g><g><g><path fill="#583187" d="M97.06.435a8.17 8.17 0 0 0-7.078 4.086h7.165c.59-.027 4.002-.35 4.002-4.086z"/></g><g><g><path fill="#583187" d="M15.936 18.867c0 4.096-3.383 7.416-7.557 7.416-4.173 0-7.556-3.32-7.556-7.416v-3.708s3.778 0 3.778 3.708c0 2.048 1.69 3.708 3.778 3.708 2.086 0 3.778-1.66 3.778-3.708s-1.692-3.708-3.778-3.708c-1.043 0-1.89-.83-1.89-1.854s.847-1.854 1.89-1.854c2.086 0 3.778-1.661 3.778-3.708 0-2.048-1.692-3.709-3.778-3.709-2.087 0-3.778 1.66-3.778 3.709C4.6 11.45.822 11.45.822 11.45V7.743C.822 3.647 4.206.326 8.38.326s7.557 3.32 7.557 7.417c0 2.215-.992 4.203-2.562 5.562 1.57 1.358 2.562 3.346 2.562 5.562z"/></g></g><g><g><path fill="#583187" d="M25.309 15.156a3.709 3.709 0 1 1 0 7.417 3.709 3.709 0 0 1 0-7.417zm-3.71-7.419a3.71 3.71 0 1 1 7.418 0s0 3.71 3.71 3.71v-3.71a7.419 7.419 0 1 0-14.837 0v11.128a7.418 7.418 0 1 0 3.71-6.424z"/></g></g><g><path fill="#583187" d="M42.07 4.022c.561 0 1.09.128 1.567.35l-5.276 11.139V7.733a3.71 3.71 0 0 1 3.71-3.71zm3.71 10.154v4.687a3.71 3.71 0 0 1-3.71 3.71c-.96 0-1.832-.368-2.49-.967l7.74-16.343c.184-.385.38-.752.582-1.108l-.06-.029.306-.65A7.42 7.42 0 0 0 34.65 7.732v11.131a7.42 7.42 0 1 0 14.84 0v-7.22z"/></g><g><path fill="#886aab" d="M49.563 11.921a7.566 7.566 0 0 1-3.784 6.553V11.84c.026-.546.324-3.705 3.784-3.705z"/></g><g><path fill="#3c3c3b" d="M75.618 10.148h-.162l-.121-3.844h-3.116c.121 1.82.162 3.803.162 6.11v13.94h3.52V15.448c0-.607.081-1.173.162-1.659.486-2.67 2.267-4.573 4.776-4.573.485 0 .85.04 1.214.122v-3.36a3.864 3.864 0 0 0-1.012-.12c-2.388 0-4.533 1.659-5.423 4.29z"/></g><g><path fill="#3c3c3b" d="M92.409 23.665c-3.48 0-5.95-3.238-5.95-7.528 0-3.723 1.822-7.608 6.03-7.608 4.209 0 5.869 4.21 5.869 7.528 0 4.41-2.55 7.608-5.95 7.608zm.162-17.807c-5.423 0-9.713 3.845-9.713 10.4 0 6.192 4.087 10.078 9.389 10.078 4.735 0 9.753-3.157 9.753-10.4 0-5.99-3.804-10.078-9.43-10.078z"/></g><g><path fill="#3c3c3b" d="M60.742 23.543c-2.55 0-4.694-1.7-5.342-4.168-.08-.445-.162-.931-.162-1.457V14.56c0-.485.122-1.012.243-1.457.688-2.67 2.955-4.41 5.382-4.41 3.765 0 5.828 3.358 5.828 7.283 0 4.492-2.185 7.568-5.949 7.568zm1.214-17.685c-3.197 0-5.503 1.417-6.96 3.804h-.081l-.162-3.358h-3.197c.08 1.861.162 3.884.162 6.393v22.157h3.52V23.26h.081c1.174 1.942 3.44 3.076 6.03 3.076 4.614 0 8.903-3.48 8.903-10.523 0-5.948-3.56-9.955-8.296-9.955z"/></g></g></g></svg>