<svg xmlns="http://www.w3.org/2000/svg" width="234" height="179" viewBox="0 0 234 179"><g><g><g><g><path fill="#3c3c3b" d="M228.276 47.893l-.004.003c.414.416.673.986.673 1.613v106.483c0 .626-.259 1.196-.673 1.611l.004.005a2.289 2.289 0 0 1-1.616.667h-69.485a2.29 2.29 0 0 1-1.616-.667l.005-.005a2.275 2.275 0 0 1-.673-1.611V49.509c0-.627.258-1.197.673-1.613l-.005-.003a2.287 2.287 0 0 1 1.616-.669h69.485c.63 0 1.201.256 1.616.669zm-75.853-3.146h-.009a6.72 6.72 0 0 0-1.977 4.762v106.483c0 1.855.757 3.541 1.977 4.761h.009a6.713 6.713 0 0 0 4.752 1.977h69.485c1.85 0 3.532-.757 4.753-1.977h.009a6.721 6.721 0 0 0 1.977-4.761V49.509a6.72 6.72 0 0 0-1.977-4.762h-.01a6.71 6.71 0 0 0-4.752-1.977h-69.485c-1.849 0-3.532.757-4.752 1.977z"/></g><g><path fill="#3c3c3b" d="M218.918 56.705h.009c.208.208.337.5.337.826v80.935c0 .325-.129.618-.337.825l-.009.01c-.208.207-.5.336-.826.336h-52.349c-.325 0-.618-.13-.825-.337v-.009a1.167 1.167 0 0 1-.346-.825V57.53c0-.32.132-.612.346-.826.213-.213.506-.346.825-.346h52.35c.319 0 .612.133.825.346zm-53.175-4.8c-1.549 0-2.957.633-3.975 1.65a5.61 5.61 0 0 0-1.65 3.976v80.935a5.61 5.61 0 0 0 1.65 3.975l.005-.005a5.614 5.614 0 0 0 3.97 1.656h52.35c1.54 0 2.943-.632 3.966-1.651l.004-.005.005-.004a5.617 5.617 0 0 0 1.65-3.966V57.53c0-1.541-.633-2.948-1.655-3.97l.005-.005a5.612 5.612 0 0 0-3.976-1.651h-52.349z"/></g><g><path fill="#3c3c3b" d="M185.534 150.802c0-1.473 1.473-2.946 2.946-2.946h6.876c1.473 0 2.946 1.473 2.946 2.946 0 1.474-1.473 2.947-2.946 2.947h-6.876c-1.473 0-2.946-1.473-2.946-2.946z"/></g><g><path fill="#3c3c3b" d="M16.842 9.957h176.81c1.75 0 3.347.72 4.508 1.879l.004-.004a6.369 6.369 0 0 1 1.875 4.512v29.161a5.952 5.952 0 0 0-4.455.715V16.344c0-1.064-.869-1.932-1.933-1.932H16.841a1.944 1.944 0 0 0-1.932 1.932V118.85c0 1.063.868 1.932 1.933 1.932h137.55a5.987 5.987 0 0 0 .176 4.455H16.842a6.37 6.37 0 0 1-4.513-1.875l.004-.004a6.377 6.377 0 0 1-1.879-4.508V16.344c0-3.517 2.87-6.387 6.388-6.387z"/></g><g><path fill="#3c3c3b" d="M71.97 133.635l4.625.08v39.849h57.177v-41.545l4.625 1.13v40.415h42.596c.638 0 1.217.26 1.635.677h-.001a2.306 2.306 0 0 1 0 3.27 2.304 2.304 0 0 1-1.634.677H29.5a2.304 2.304 0 0 1-1.634-.678 2.305 2.305 0 0 1-.678-1.634c0-.639.259-1.217.678-1.635a2.307 2.307 0 0 1 1.634-.677h42.47z"/></g><g><path fill="#3c3c3b" d="M8.165 0h194.163c4.49 0 8.165 3.675 8.165 8.165V46.55a5.984 5.984 0 0 0-4.58.088V8.165c0-.987-.403-1.885-1.05-2.535l-.004.004a3.574 3.574 0 0 0-2.531-1.055H8.165c-.984 0-1.88.405-2.53 1.055l-.006-.004a3.587 3.587 0 0 0-1.05 2.535V127.02c0 .987.403 1.885 1.05 2.535l.006-.005a3.572 3.572 0 0 0 2.53 1.055H154.27a5.96 5.96 0 0 0 .07 4.58H8.165c-4.49 0-8.165-3.675-8.165-8.165V8.165a8.13 8.13 0 0 1 2.397-5.76v-.008A8.144 8.144 0 0 1 8.165 0z"/></g><g><path fill="#3c3c3b" d="M117.694 78.078a1.931 1.931 0 0 1 0-3.86h69.588l-13.27-9.292a1.923 1.923 0 0 1 2.203-3.152l18.134 12.697a1.93 1.93 0 0 1 0 3.353l-18.134 12.697a1.924 1.924 0 0 1-2.202-3.152l13.27-9.291z"/></g><g><path fill="#3c3c3b" d="M193.39 102.507a1.93 1.93 0 0 0 0-3.861h-69.587l13.27-9.291a1.922 1.922 0 0 0-2.202-3.152L116.737 98.9a1.93 1.93 0 0 0 0 3.353l18.134 12.697a1.922 1.922 0 0 0 2.201-3.152l-13.269-9.291z"/></g></g><g><g><path fill="#3c3c3b" d="M93.286 42.61c-.388.389-.583.9-.583 1.413h-.002c0 .51.195 1.023.585 1.412.39.39.902.586 1.413.586v-.003c.512 0 1.024-.194 1.412-.582l5.753-5.754a1.992 1.992 0 0 0 0-2.824 1.994 1.994 0 0 0-2.825 0z"/></g><g><path fill="#3c3c3b" d="M98.345 53.579a1.99 1.99 0 0 0-1.411 2.442 1.993 1.993 0 0 0 2.444 1.413l.002-.002 7.857-2.106v.002a1.995 1.995 0 0 0 1.413-2.444l-.003-.002a1.986 1.986 0 0 0-.927-1.211 1.988 1.988 0 0 0-1.515-.2l-7.858 2.106z"/></g><g><path fill="#3c3c3b" d="M84.215 41.589a1.99 1.99 0 0 0 .928-1.212l.002-.002 2.105-7.859a1.989 1.989 0 0 0-1.41-2.442l-.003-.002a1.991 1.991 0 0 0-2.444 1.413h.002l-2.105 7.857-.002.002a1.992 1.992 0 0 0 1.413 2.444 1.99 1.99 0 0 0 1.514-.2z"/></g><g><path fill="#3c3c3b" d="M99.429 64.911a1.99 1.99 0 0 0-2.444 1.413 1.99 1.99 0 0 0 1.41 2.442l7.86 2.106.001.002a1.992 1.992 0 0 0 2.444-1.413h-.001a1.99 1.99 0 0 0-1.41-2.442l-.001-.002z"/></g><g><path fill="#3c3c3b" d="M73.611 40.807a1.99 1.99 0 0 0 .2-1.514l-2.107-7.86-.001-.001a1.99 1.99 0 0 0-2.443-1.409v-.002a1.992 1.992 0 0 0-1.413 2.445l.002.001 2.107 7.86a1.99 1.99 0 0 0 2.441 1.41 1.992 1.992 0 0 0 1.214-.93z"/></g><g><path fill="#3c3c3b" d="M66.269 83.106a1.824 1.824 0 0 0-2.58 0L47.898 98.9 43.86 94.86l-4.037-4.037 15.792-15.792a1.824 1.824 0 0 0 0-2.58l-9.902-9.902L83.57 55.15l-7.4 37.858zm21.391-29.88a1.822 1.822 0 0 0-2.131-2.171l-43.807 8.56a1.824 1.824 0 0 0-1.01 3.092l11.034 11.036-15.792 15.791a1.824 1.824 0 0 0 0 2.58l5.327 5.327 5.327 5.327a1.824 1.824 0 0 0 2.579 0l15.792-15.793L76.014 98.01l.001-.001a1.822 1.822 0 0 0 3.077-.94l8.568-43.843z"/></g><g><path fill="#3c3c3b" d="M43.86 97.441a1.825 1.825 0 0 1-2.58-2.58L84.59 51.554a1.824 1.824 0 1 1 2.579 2.58z"/></g></g></g></g></svg>