<svg xmlns="http://www.w3.org/2000/svg" width="193" height="167" viewBox="0 0 193 167"><g><g><g><g><path fill="#3c3c3b" d="M4.784 4.833h182.268v138.08H4.784zM190.884 1H.952v145.745h189.934z"/><path fill="none" stroke="#3c3c3b" stroke-miterlimit="50" d="M4.784 4.833h182.268v138.08H4.784zM190.884 1H.952v145.745h189.934z"/></g></g><g><g><path fill="#3c3c3b" d="M21.665 162.112v-3.833H192.01v3.833z"/><path fill="none" stroke="#3c3c3b" stroke-miterlimit="50" d="M21.665 162.112v0-3.833 0H192.01v3.833z"/></g></g><g><g><path fill="#3c3c3b" d="M188.971 27.67H2.871a1.916 1.916 0 0 1 0-3.833h186.1a1.917 1.917 0 1 1 0 3.833z"/><path fill="none" stroke="#3c3c3b" stroke-miterlimit="50" d="M188.971 27.67H2.871a1.916 1.916 0 0 1 0-3.833h186.1a1.917 1.917 0 1 1 0 3.833z"/></g></g><g><g><path fill="#3c3c3b" d="M18.92 14.526a2.815 2.815 0 1 1-5.633 0 2.815 2.815 0 0 1 5.632 0z"/><path fill="none" stroke="#3c3c3b" stroke-miterlimit="50" d="M18.92 14.526a2.815 2.815 0 1 1-5.633 0 2.815 2.815 0 0 1 5.632 0z"/></g></g><g><g><path fill="#3c3c3b" d="M31.119 14.526a2.813 2.813 0 0 1-2.815 2.815 2.813 2.813 0 0 1-2.815-2.815 2.813 2.813 0 0 1 2.815-2.815 2.813 2.813 0 0 1 2.815 2.815z"/><path fill="none" stroke="#3c3c3b" stroke-miterlimit="50" d="M31.119 14.526a2.813 2.813 0 0 1-2.815 2.815 2.813 2.813 0 0 1-2.815-2.815 2.813 2.813 0 0 1 2.815-2.815 2.813 2.813 0 0 1 2.815 2.815z"/></g></g><g><g><path fill="#3c3c3b" d="M37.69 14.526a2.816 2.816 0 1 1 5.63 0 2.816 2.816 0 0 1-5.63 0z"/><path fill="none" stroke="#3c3c3b" stroke-miterlimit="50" d="M37.69 14.526a2.816 2.816 0 1 1 5.63 0 2.816 2.816 0 0 1-5.63 0z"/></g></g><g><g><g><path fill="#3c3c3b" d="M112.333 85.133l-27.095 15.642V69.489zm7.665 0L81.405 62.85v44.564z"/><path fill="none" stroke="#3c3c3b" stroke-miterlimit="50" d="M112.333 85.133l-27.095 15.642V69.489zm7.665 0L81.405 62.85v44.564z"/></g></g><g><g><path fill="#3c3c3b" d="M132.899 85.133c0 20.39-16.59 36.98-36.983 36.98-20.39 0-36.978-16.59-36.978-36.98 0-20.393 16.588-36.983 36.978-36.983 20.393 0 36.983 16.59 36.983 36.983zm3.833 0c0-22.504-18.308-40.816-40.816-40.816-22.504 0-40.811 18.312-40.811 40.816s18.307 40.813 40.811 40.813c22.508 0 40.816-18.31 40.816-40.813z"/><path fill="none" stroke="#3c3c3b" stroke-miterlimit="50" d="M132.899 85.133c0 20.39-16.59 36.98-36.983 36.98-20.39 0-36.978-16.59-36.978-36.98 0-20.393 16.588-36.983 36.978-36.983 20.393 0 36.983 16.59 36.983 36.983zm3.833 0c0-22.504-18.308-40.816-40.816-40.816-22.504 0-40.811 18.312-40.811 40.816s18.307 40.813 40.811 40.813c22.508 0 40.816-18.31 40.816-40.813z"/></g></g></g><g><g><path fill="#3c3c3b" d="M.631 165.808v-11.224h3.833v11.224z"/><path fill="none" stroke="#3c3c3b" stroke-miterlimit="50" d="M.631 165.808v0-11.224 0h3.833v11.224z"/></g></g><g><g><path fill="#3c3c3b" d="M9.944 165.808v-11.224h3.833v11.224z"/><path fill="none" stroke="#3c3c3b" stroke-miterlimit="50" d="M9.944 165.808v0-11.224 0h3.833v11.224z"/></g></g><g><g><path fill="#3c3c3b" d="M41.405 165.808v-11.224h3.833v11.224z"/><path fill="none" stroke="#3c3c3b" stroke-miterlimit="50" d="M41.405 165.808v0-11.224 0h3.833v11.224z"/></g></g></g></g></svg>