<svg xmlns="http://www.w3.org/2000/svg" width="522" height="946" viewBox="0 0 522 946"><defs><mask id="dsyqc" width="2" height="2" x="-1" y="-1"><path fill="#fff" d="M14 14h494v918H14z"/><path d="M14.606 87.69c0-36.5 36.5-73 73-73h346.788c36.5 0 73 36.5 73 73v770.924c0 36.5-36.5 73-73 73H87.606c-36.5 0-73-36.5-73-73z"/></mask><filter id="dsyqb" width="526" height="953" x="-2" y="-2" filterUnits="userSpaceOnUse"><feOffset dy="3" in="SourceGraphic" result="FeOffset2152Out"/><feGaussianBlur in="FeOffset2152Out" result="FeGaussianBlur2153Out" stdDeviation="2.4 2.4"/></filter><filter id="dsyqa" width="144%" height="144%" x="-12%" y="-12%" filterUnits="objectBoundingBox"><feGaussianBlur in="SourceGraphic" result="FeGaussianBlur2156Out" stdDeviation="6.49 6.49"/></filter><linearGradient id="dsyqd" x1="261.66" x2="261.66" y1="800.5" y2="221.44" gradientUnits="userSpaceOnUse"><stop offset="0" stop-color="#1a1541"/><stop offset="1" stop-color="#5d3676"/></linearGradient><linearGradient id="dsyqe" x1="-764.5" x2="-725.6" y1="68.72" y2="85.39" gradientUnits="userSpaceOnUse"><stop offset="0" stop-color="#39b8b8"/><stop offset="1" stop-color="#56519f"/></linearGradient><linearGradient id="dsyqf" x1="-2003.8" x2="-1969.31" y1="68.09" y2="82.87" gradientUnits="userSpaceOnUse"><stop offset="0" stop-color="#39b8b8"/><stop offset="1" stop-color="#56519f"/></linearGradient><linearGradient id="dsyqg" x1="-736.97" x2="-682.87" y1="29.24" y2="67.18" gradientUnits="userSpaceOnUse"><stop offset="0" stop-color="#efe0ed"/><stop offset="1" stop-color="#d6bfd3"/></linearGradient><linearGradient id="dsyqh" x1="-769.09" x2="-665.18" y1="66.62" y2="101.26" gradientUnits="userSpaceOnUse"><stop offset="0" stop-color="#39b8b8"/><stop offset="1" stop-color="#56519f"/></linearGradient><linearGradient id="dsyqi" x1="-783.47" x2="-685.48" y1="62.09" y2="94.75" gradientUnits="userSpaceOnUse"><stop offset="0" stop-color="#39b8b8"/><stop offset="1" stop-color="#22457e"/></linearGradient><linearGradient id="dsyqj" x1="-729.6" x2="-696.16" y1="-8.94" y2="5.39" gradientUnits="userSpaceOnUse"><stop offset="0" stop-color="#39b8b8"/><stop offset="1" stop-color="#56519f"/></linearGradient><linearGradient id="dsyqk" x1="-625.19" x2="-577.79" y1="752.14" y2="739.28" gradientUnits="userSpaceOnUse"><stop offset="0" stop-color="#39b8b8"/><stop offset="1" stop-color="#56519f"/></linearGradient><linearGradient id="dsyql" x1="-699.1" x2="-734.88" y1="37.41" y2="13.99" gradientUnits="userSpaceOnUse"><stop offset="0" stop-color="#3b2757"/><stop offset="1" stop-color="#7c5890"/></linearGradient><linearGradient id="dsyqm" x1="-707.62" x2="-743.41" y1="31.94" y2="8.51" gradientUnits="userSpaceOnUse"><stop offset="0" stop-color="#3b2757"/><stop offset="1" stop-color="#7c5890"/></linearGradient><linearGradient id="dsyqn" x1="-724.79" x2="-677.73" y1="72.95" y2="88.64" gradientUnits="userSpaceOnUse"><stop offset="0" stop-color="#39b8b8"/><stop offset="1" stop-color="#56519f"/></linearGradient><linearGradient id="dsyqo" x1="-733.51" x2="-686.44" y1="70.04" y2="85.73" gradientUnits="userSpaceOnUse"><stop offset="0" stop-color="#39b8b8"/><stop offset="1" stop-color="#56519f"/></linearGradient><linearGradient id="dsyqp" x1="32.1" x2="78.22" y1="424.84" y2="252.11" gradientUnits="userSpaceOnUse"><stop offset="0" stop-color="#edf1e2"/><stop offset="1" stop-color="#6a3983"/></linearGradient><linearGradient id="dsyqq" x1="262" x2="379.08" y1="260.76" y2="379.15" gradientUnits="userSpaceOnUse"><stop offset="0" stop-color="#fff"/><stop offset="1" stop-color="#562d83"/></linearGradient><linearGradient id="dsyqr" x1="-294.54" x2="-326.42" y1="-499.51" y2="-424.55" gradientUnits="userSpaceOnUse"><stop offset="0" stop-color="#edf1e2"/><stop offset="1" stop-color="#6a3983"/></linearGradient><linearGradient id="dsyqs" x1="-64.18" x2="-96.01" y1="-504.84" y2="-429.86" gradientUnits="userSpaceOnUse"><stop offset="0" stop-color="#edf1e2"/><stop offset="1" stop-color="#6a3983"/></linearGradient><linearGradient id="dsyqt" x1="385.6" x2="298.41" y1="1217.41" y2="1162.88" gradientUnits="userSpaceOnUse"><stop offset="0" stop-color="#3b2757"/><stop offset="1" stop-color="#7c5890"/></linearGradient><linearGradient id="dsyqu" x1="379.77" x2="292.55" y1="404.15" y2="349.66" gradientUnits="userSpaceOnUse"><stop offset="0" stop-color="#3b2757"/><stop offset="1" stop-color="#7c5890"/></linearGradient><linearGradient id="dsyqv" x1="130.37" x2="43.16" y1="-91.98" y2="-146.53" gradientUnits="userSpaceOnUse"><stop offset="0" stop-color="#3b2757"/><stop offset="1" stop-color="#7c5890"/></linearGradient><linearGradient id="dsyqw" x1="385.23" x2="298.05" y1="394.34" y2="339.83" gradientUnits="userSpaceOnUse"><stop offset="0" stop-color="#3b2757"/><stop offset="1" stop-color="#7c5890"/></linearGradient><linearGradient id="dsyqx" x1="314.9" x2="305.89" y1="288.51" y2="363.19" gradientUnits="userSpaceOnUse"><stop offset="0" stop-color="#fff"/><stop offset="1" stop-color="#6a3983"/></linearGradient><linearGradient id="dsyqy" x1="310.98" x2="223.74" y1="169.67" y2="115.1" gradientUnits="userSpaceOnUse"><stop offset="0" stop-color="#3b2757"/><stop offset="1" stop-color="#7c5890"/></linearGradient><linearGradient id="dsyqz" x1="-1041.66" x2="-1008.37" y1="1521.88" y2="1485.11" gradientUnits="userSpaceOnUse"><stop offset="0" stop-color="#3b2757"/><stop offset="1" stop-color="#6a3983"/></linearGradient><linearGradient id="dsyqA" x1="-1031.46" x2="-998.19" y1="1529.42" y2="1492.66" gradientUnits="userSpaceOnUse"><stop offset="0" stop-color="#3b2757"/><stop offset="1" stop-color="#6a3983"/></linearGradient><linearGradient id="dsyqB" x1="-1043.14" x2="-1009.82" y1="1516.16" y2="1479.41" gradientUnits="userSpaceOnUse"><stop offset="0" stop-color="#3b2757"/><stop offset="1" stop-color="#6a3983"/></linearGradient><linearGradient id="dsyqC" x1="-1035.57" x2="-1002.27" y1="1522.61" y2="1485.86" gradientUnits="userSpaceOnUse"><stop offset="0" stop-color="#3b2757"/><stop offset="1" stop-color="#6a3983"/></linearGradient><linearGradient id="dsyqD" x1="298" x2="382.68" y1="293.57" y2="265.25" gradientUnits="userSpaceOnUse"><stop offset="0" stop-color="#ac90a2"/><stop offset="1" stop-color="#562e88"/></linearGradient><linearGradient id="dsyqE" x1="216.3" x2="250.45" y1="184" y2="206.76" gradientUnits="userSpaceOnUse"><stop offset="0" stop-color="#fff"/><stop offset="1" stop-color="#6a3983"/></linearGradient><linearGradient id="dsyqF" x1="104.75" x2="173.58" y1="465.19" y2="511.07" gradientUnits="userSpaceOnUse"><stop offset="0" stop-color="#fff"/><stop offset="1" stop-color="#6a3983"/></linearGradient><linearGradient id="dsyqG" x1="349.75" x2="425.83" y1="279.22" y2="208.2" gradientUnits="userSpaceOnUse"><stop offset="0" stop-color="#fff"/><stop offset="1" stop-color="#6a3983"/></linearGradient><linearGradient id="dsyqH" x1="353.89" x2="422.17" y1="222.03" y2="300.58" gradientUnits="userSpaceOnUse"><stop offset="0" stop-color="#fff"/><stop offset=".9" stop-color="#542670"/></linearGradient><linearGradient id="dsyqI" x1="238.33" x2="780.77" y1="146.24" y2="515.75" gradientUnits="userSpaceOnUse"><stop offset="0" stop-color="#3b2757"/><stop offset="1" stop-color="#7c5890"/></linearGradient><linearGradient id="dsyqJ" x1="296.45" x2="630.98" y1="191.45" y2="419.29" gradientUnits="userSpaceOnUse"><stop offset="0" stop-color="#3b2757"/><stop offset="1" stop-color="#7c5890"/></linearGradient><linearGradient id="dsyqK" x1="289.79" x2="556.65" y1="209.5" y2="391.31" gradientUnits="userSpaceOnUse"><stop offset="0" stop-color="#3b2757"/><stop offset="1" stop-color="#7c5890"/></linearGradient><linearGradient id="dsyqL" x1="299.58" x2="533.64" y1="198.08" y2="357.44" gradientUnits="userSpaceOnUse"><stop offset="0" stop-color="#3b2757"/><stop offset="1" stop-color="#7c5890"/></linearGradient><linearGradient id="dsyqM" x1="311.98" x2="552.2" y1="219.26" y2="383.03" gradientUnits="userSpaceOnUse"><stop offset="0" stop-color="#3b2757"/><stop offset="1" stop-color="#7c5890"/></linearGradient><linearGradient id="dsyqN" x1="328.27" x2="513.27" y1="187.4" y2="313.68" gradientUnits="userSpaceOnUse"><stop offset="0" stop-color="#3b2757"/><stop offset="1" stop-color="#7c5890"/></linearGradient><linearGradient id="dsyqO" x1="243.04" x2="747.38" y1="191.8" y2="535.88" gradientUnits="userSpaceOnUse"><stop offset="0" stop-color="#fff"/><stop offset="1" stop-color="#6a3983"/></linearGradient><linearGradient id="dsyqP" x1="316.99" x2="376.06" y1="288.34" y2="280.45" gradientUnits="userSpaceOnUse"><stop offset="0" stop-color="#edf1e2"/><stop offset="1" stop-color="#6a3983"/></linearGradient><linearGradient id="dsyqQ" x1="286.24" x2="380.99" y1="288.96" y2="243.75" gradientUnits="userSpaceOnUse"><stop offset="0" stop-color="#edf1e2"/><stop offset="1" stop-color="#6a3983"/></linearGradient><linearGradient id="dsyqR" x1="280.87" x2="586.57" y1="232.83" y2="440.85" gradientUnits="userSpaceOnUse"><stop offset="0" stop-color="#fff"/><stop offset="1" stop-color="#6a3983"/></linearGradient><linearGradient id="dsyqS" x1="286.36" x2="591.76" y1="262.78" y2="471.1" gradientUnits="userSpaceOnUse"><stop offset="0" stop-color="#fff"/><stop offset="1" stop-color="#6a3983"/></linearGradient><linearGradient id="dsyqT" x1="342.62" x2="401.44" y1="308.65" y2="357.29" gradientUnits="userSpaceOnUse"><stop offset="0" stop-color="#fff"/><stop offset="1" stop-color="#6a3983"/></linearGradient><linearGradient id="dsyqU" x1="384.14" x2="349.24" y1="324.53" y2="303.15" gradientUnits="userSpaceOnUse"><stop offset="0" stop-color="#3b2757"/><stop offset="1" stop-color="#7c5890"/></linearGradient><linearGradient id="dsyqV" x1="327.39" x2="386.24" y1="333.62" y2="382.2" gradientUnits="userSpaceOnUse"><stop offset="0" stop-color="#fff"/><stop offset="1" stop-color="#6a3983"/></linearGradient><linearGradient id="dsyqW" x1="359.26" x2="472.67" y1="315.9" y2="393.26" gradientUnits="userSpaceOnUse"><stop offset="0" stop-color="#fff"/><stop offset="1" stop-color="#6a3983"/></linearGradient><linearGradient id="dsyqX" x1="270.81" x2="792.97" y1="255.25" y2="611.22" gradientUnits="userSpaceOnUse"><stop offset="0" stop-color="#fff"/><stop offset="1" stop-color="#6a3983"/></linearGradient><linearGradient id="dsyqY" x1="294.56" x2="593.85" y1="265.39" y2="469.52" gradientUnits="userSpaceOnUse"><stop offset="0" stop-color="#fff"/><stop offset="1" stop-color="#6a3983"/></linearGradient><linearGradient id="dsyqZ" x1="-975.74" x2="-676.46" y1="1383.55" y2="1587.53" gradientUnits="userSpaceOnUse"><stop offset="0" stop-color="#edf1e2"/><stop offset="1" stop-color="#6a3983"/></linearGradient><linearGradient id="dsyqaa" x1="-2276.92" x2="-1992.07" y1="899.31" y2="1093.5" gradientUnits="userSpaceOnUse"><stop offset="0" stop-color="#fff"/><stop offset="1" stop-color="#6a3983"/></linearGradient><linearGradient id="dsyqab" x1="-2296.79" x2="-2012.08" y1="1324.77" y2="1518.25" gradientUnits="userSpaceOnUse"><stop offset="0" stop-color="#fff"/><stop offset="1" stop-color="#6a3983"/></linearGradient><linearGradient id="dsyqac" x1="301.97" x2="734.83" y1="211.55" y2="506.95" gradientUnits="userSpaceOnUse"><stop offset="0" stop-color="#fff"/><stop offset="1" stop-color="#6a3983"/></linearGradient><linearGradient id="dsyqad" x1="380.52" x2="345.59" y1="333.89" y2="312.4" gradientUnits="userSpaceOnUse"><stop offset="0" stop-color="#3b2757"/><stop offset="1" stop-color="#7c5890"/></linearGradient><linearGradient id="dsyqae" x1="-2459.88" x2="-2175.52" y1="899.16" y2="1093.62" gradientUnits="userSpaceOnUse"><stop offset="0" stop-color="#fff"/><stop offset="1" stop-color="#6a3983"/></linearGradient><linearGradient id="dsyqaf" x1="332.83" x2="391.68" y1="323.87" y2="372.38" gradientUnits="userSpaceOnUse"><stop offset="0" stop-color="#fff"/><stop offset="1" stop-color="#6a3983"/></linearGradient><linearGradient id="dsyqag" x1="300.87" x2="330.56" y1="289.93" y2="348.74" gradientUnits="userSpaceOnUse"><stop offset="0" stop-color="#edf1e2"/><stop offset="1" stop-color="#6a3983"/></linearGradient><linearGradient id="dsyqah" x1="343.87" x2="412.07" y1="372.45" y2="338.66" gradientUnits="userSpaceOnUse"><stop offset="0" stop-color="#fff"/><stop offset="1" stop-color="#6a3983"/></linearGradient><linearGradient id="dsyqai" x1="330.49" x2="368.09" y1="400.92" y2="382.28" gradientUnits="userSpaceOnUse"><stop offset="0" stop-color="#fff"/><stop offset="1" stop-color="#6a3983"/></linearGradient><linearGradient id="dsyqaj" x1="-772.84" x2="-726.25" y1="1621.16" y2="1598.08" gradientUnits="userSpaceOnUse"><stop offset="0" stop-color="#fff"/><stop offset="1" stop-color="#6a3983"/></linearGradient><linearGradient id="dsyqak" x1="103.05" x2="389.67" y1="1091.26" y2="1286.41" gradientUnits="userSpaceOnUse"><stop offset="0" stop-color="#fff"/><stop offset="1" stop-color="#6a3983"/></linearGradient><linearGradient id="dsyqal" x1="273.93" x2="508.7" y1="460.85" y2="620.95" gradientUnits="userSpaceOnUse"><stop offset="0" stop-color="#fff"/><stop offset="1" stop-color="#6a3983"/></linearGradient><linearGradient id="dsyqam" x1="413.88" x2="431.04" y1="327.6" y2="339.05" gradientUnits="userSpaceOnUse"><stop offset="0" stop-color="#fff"/><stop offset="1" stop-color="#6a3983"/></linearGradient><linearGradient id="dsyqan" x1="270.24" x2="287.42" y1="342.68" y2="354.12" gradientUnits="userSpaceOnUse"><stop offset="0" stop-color="#fff"/><stop offset="1" stop-color="#6a3983"/></linearGradient><linearGradient id="dsyqao" x1="430.97" x2="436.34" y1="351.4" y2="354.97" gradientUnits="userSpaceOnUse"><stop offset="0" stop-color="#fff"/><stop offset="1" stop-color="#6a3983"/></linearGradient><linearGradient id="dsyqap" x1="433.72" x2="437" y1="342.27" y2="344.46" gradientUnits="userSpaceOnUse"><stop offset="0" stop-color="#fff"/><stop offset="1" stop-color="#6a3983"/></linearGradient><linearGradient id="dsyqaq" x1="417.42" x2="420.69" y1="348.89" y2="351.08" gradientUnits="userSpaceOnUse"><stop offset="0" stop-color="#fff"/><stop offset="1" stop-color="#6a3983"/></linearGradient><linearGradient id="dsyqar" x1="287.6" x2="292.95" y1="368.85" y2="372.43" gradientUnits="userSpaceOnUse"><stop offset="0" stop-color="#fff"/><stop offset="1" stop-color="#6a3983"/></linearGradient><linearGradient id="dsyqas" x1="288.22" x2="291.51" y1="359.34" y2="361.52" gradientUnits="userSpaceOnUse"><stop offset="0" stop-color="#fff"/><stop offset="1" stop-color="#6a3983"/></linearGradient><linearGradient id="dsyqat" x1="275.82" x2="279.09" y1="365.96" y2="368.14" gradientUnits="userSpaceOnUse"><stop offset="0" stop-color="#fff"/><stop offset="1" stop-color="#6a3983"/></linearGradient><linearGradient id="dsyqau" x1="403.26" x2="406.55" y1="281.08" y2="283.27" gradientUnits="userSpaceOnUse"><stop offset="0" stop-color="#fff"/><stop offset="1" stop-color="#6a3983"/></linearGradient><linearGradient id="dsyqav" x1="-16.3" x2="284.12" y1="-301.57" y2="-222.52" gradientUnits="userSpaceOnUse"><stop offset="0" stop-color="#fff"/><stop offset="1" stop-color="#562d83"/></linearGradient><linearGradient id="dsyqaw" x1="375.33" x2="397.93" y1="527.13" y2="546.49" gradientUnits="userSpaceOnUse"><stop offset="0" stop-color="#ff73a7"/><stop offset="1" stop-color="#a91945"/></linearGradient><linearGradient id="dsyqax" x1="191.95" x2="235.03" y1="166.28" y2="203.2" gradientUnits="userSpaceOnUse"><stop offset="0" stop-color="#ff73a7"/><stop offset="1" stop-color="#a91945"/></linearGradient><linearGradient id="dsyqay" x1="104.61" x2="123.68" y1="567.59" y2="583.92" gradientUnits="userSpaceOnUse"><stop offset="0" stop-color="#ff73a7"/><stop offset="1" stop-color="#a91945"/></linearGradient><linearGradient id="dsyqaz" x1="325.37" x2="337.38" y1="450.33" y2="460.63" gradientUnits="userSpaceOnUse"><stop offset="0" stop-color="#ff73a7"/><stop offset="1" stop-color="#a91945"/></linearGradient><linearGradient id="dsyqaA" x1="261.6" x2="390.78" y1="550.44" y2="681.06" gradientUnits="userSpaceOnUse"><stop offset="0" stop-color="#ff73a7"/><stop offset="1" stop-color="#e01e2b"/></linearGradient><linearGradient id="dsyqaB" x1="268.2" x2="382.19" y1="557.7" y2="672.96" gradientUnits="userSpaceOnUse"><stop offset="0" stop-color="#ff73a7"/><stop offset="1" stop-color="#e01e43"/></linearGradient><linearGradient id="dsyqaC" x1="298.29" x2="362.4" y1="669.01" y2="584.21" gradientUnits="userSpaceOnUse"><stop offset="0" stop-color="#a23157"/><stop offset="1" stop-color="#bd174d"/></linearGradient><linearGradient id="dsyqaD" x1="341.21" x2="265.11" y1="530.24" y2="633.27" gradientUnits="userSpaceOnUse"><stop offset="0" stop-color="#ff367e"/><stop offset="1" stop-color="#b21a59"/></linearGradient><linearGradient id="dsyqaE" x1="359.91" x2="283.08" y1="546.7" y2="651.99" gradientUnits="userSpaceOnUse"><stop offset="0" stop-color="#dd3663"/><stop offset="1" stop-color="#b21a59"/></linearGradient><linearGradient id="dsyqaF" x1="77.01" x2="225.38" y1="389.05" y2="488.29" gradientUnits="userSpaceOnUse"><stop offset="0" stop-color="#59d977"/><stop offset="1" stop-color="#0052bb"/></linearGradient><linearGradient id="dsyqaG" x1="111.72" x2="240.12" y1="389.59" y2="451.91" gradientUnits="userSpaceOnUse"><stop offset="0" stop-color="#598b63"/><stop offset="1" stop-color="#0052bb"/></linearGradient><linearGradient id="dsyqaH" x1="84.24" x2="165.35" y1="397.39" y2="448.89" gradientUnits="userSpaceOnUse"><stop offset="0" stop-color="#598b63"/><stop offset="1" stop-color="#0052bb"/></linearGradient><linearGradient id="dsyqaI" x1="66.26" x2="169.64" y1="412.93" y2="478.58" gradientUnits="userSpaceOnUse"><stop offset="0" stop-color="#598b63"/><stop offset="1" stop-color="#0052bb"/></linearGradient><linearGradient id="dsyqaJ" x1="53.33" x2="156.71" y1="433.29" y2="498.95" gradientUnits="userSpaceOnUse"><stop offset="0" stop-color="#598b63"/><stop offset="1" stop-color="#0052bb"/></linearGradient></defs><g><g><g filter="url(#dsyqa)" opacity=".18"><g filter="url(#dsyqb)"><path fill="none" d="M14.606 87.69c0-36.5 36.5-73 73-73h346.788c36.5 0 73 36.5 73 73v770.924c0 36.5-36.5 73-73 73H87.606c-36.5 0-73-36.5-73-73z" mask="url(&quot;#dsyqc&quot;)"/><path fill-opacity=".16" d="M14.606 87.69c0-36.5 36.5-73 73-73h346.788c36.5 0 73 36.5 73 73v770.924c0 36.5-36.5 73-73 73H87.606c-36.5 0-73-36.5-73-73z"/></g><path d="M14.606 87.69c0-36.5 36.5-73 73-73h346.788c36.5 0 73 36.5 73 73v770.924c0 36.5-36.5 73-73 73H87.606c-36.5 0-73-36.5-73-73z"/></g><g><path fill="url(#dsyqd)" d="M135.972 26.2h251.359c28.407 0 59.447 6.045 78.333 24.589 19.143 18.795 25.79 50.436 25.79 79.534v680.1c0 57.505-46.618 104.122-104.123 104.122H135.97c-57.505 0-104.122-46.617-104.122-104.122v-680.1c0-28.925 8.177-60.55 27.337-79.534C77.883 32.26 107.392 26.2 135.972 26.2z"/><path fill="none" stroke="#000" stroke-miterlimit="50" d="M135.972 26.2h251.359c28.407 0 59.447 6.045 78.333 24.589 19.143 18.795 25.79 50.436 25.79 79.534v680.1c0 57.505-46.618 104.122-104.123 104.122H135.97c-57.505 0-104.122-46.617-104.122-104.122v-680.1c0-28.925 8.177-60.55 27.337-79.534C77.883 32.26 107.392 26.2 135.972 26.2z"/></g><g><g><path fill="#baadff" d="M230.79 780.467a8.284 8.284 0 1 1-16.57 0 8.284 8.284 0 0 1 16.57 0z"/></g><g><path fill="#ece6ff" d="M269.936 780.467a8.285 8.285 0 1 1-16.57 0 8.285 8.285 0 0 1 16.57 0z"/></g><g><path fill="#ece6ff" d="M309.082 780.467a8.284 8.284 0 1 1-16.568 0 8.284 8.284 0 0 1 16.568 0z"/></g></g><g><g><path fill="#fff" d="M477.433 823.987H45.87V88.282c0-26.543 21.518-48.06 48.06-48.06h13.648v-.285h286.455v.284h35.339c26.543 0 48.06 21.518 48.06 48.061zM93.93 26.2c-34.145 0-62.082 27.937-62.082 62.082v764.183c0 25.949 16.912 49.742 41.307 58.484a61.695 61.695 0 0 0 20.775 3.597h318.58c5.375 0 10.75.005 16.125 0 25.368-.025 48.765-15.291 58.328-38.963a61.838 61.838 0 0 0 4.49-23.118V88.282c0-34.145-27.937-62.082-62.082-62.082z"/></g></g><g><g><g><g><path fill="#b1a9ff" d="M279.251 869.242c0 9.742-7.925 17.668-17.667 17.668s-17.668-7.926-17.668-17.668c0-9.742 7.926-17.668 17.667-17.668 9.743 0 17.668 7.926 17.668 17.668zm7.388 0c0-13.815-11.24-25.055-25.056-25.055-13.815 0-25.055 11.24-25.055 25.055s11.24 25.055 25.056 25.055c13.815 0 25.055-11.24 25.055-25.055z"/></g></g></g><g><path fill="#b1a9ff" d="M268.886 869.242a7.303 7.303 0 1 1-14.605 0 7.303 7.303 0 0 1 14.605 0z"/></g></g><g><g><path fill="#fff" d="M96.94 74.502V63.469c-.632.557-2.023 1.26-2.746 1.427v-.87c.798-.279 1.984-1.002 2.912-1.818h.796v12.294z"/></g><g><path fill="#fff" d="M101.978 68.42c0-2.707.482-5.452 3.003-5.452 2.41 0 2.893 3.004 2.893 5.34 0 2.615-.483 5.526-2.967 5.526-2.43 0-2.93-3.041-2.93-5.414zm6.916-.112c0-2.891-.742-6.23-3.93-6.23-3.172 0-4.025 3.339-4.025 6.323 0 3.004.797 6.323 3.968 6.323 3.263 0 3.987-3.616 3.987-6.416z"/></g><g><path fill="#fff" d="M111.503 74.502v-2.41h.89v2.41zm0-6.88V65.23h.89v2.392z"/></g><g><path fill="#fff" d="M120.4 70.2h-4.784c1.408-1.947 4.32-5.822 4.82-6.712-.018.815-.036 2.336-.036 3.022zm.946 4.302V71.09h1.52l.13-.89h-1.65v-7.898h-.966l-5.857 7.88v.908h5.877v3.412z"/></g><g><path fill="#fff" d="M130.388 70.2h-4.784c1.41-1.947 4.32-5.822 4.82-6.712-.017.815-.036 2.336-.036 3.022zm.946 4.302V71.09h1.52l.13-.89h-1.65v-7.898h-.965l-5.858 7.88v.908h5.877v3.412z"/></g></g><g><g><g><path fill="#fff" d="M377.685 74.724v-7.087h4.556v7.087z"/></g></g><g><g><path fill="#fff" d="M384.075 74.724V64.476h4.555v10.248z"/></g></g><g><g><path fill="#fff" d="M390.464 74.724V61.59h4.556v13.134z"/></g></g><g><g><path fill="#fff" d="M396.853 74.724V58.577h4.556v16.147z"/></g></g></g><g><g><g><path fill="#fff" d="M441.386 60.051a2.316 2.316 0 0 1 2.312 2.314v9.694a2.316 2.316 0 0 1-2.312 2.315h-25.453a2.316 2.316 0 0 1-2.312-2.315v-9.694a2.316 2.316 0 0 1 2.312-2.314zM444.4 72.06v-9.694a3.017 3.017 0 0 0-3.013-3.015h-25.453a3.017 3.017 0 0 0-3.013 3.015v9.694a3.018 3.018 0 0 0 3.013 3.016h25.453a3.017 3.017 0 0 0 3.013-3.016z"/></g></g><g><g><path fill="#fff" d="M444.05 70.244v-6.062h2.53v6.062z"/></g></g><g><g><path fill="#fff" d="M431.21 73.03h-14.402c-.703 0-1.273-.57-1.273-1.273V62.73c0-.703.57-1.273 1.273-1.273h14.403z"/></g></g></g><g><g opacity=".83"><path fill="#1a123d" d="M405.437 439.13c13.02 30.104-13.915 62.728-40.881 72.158-4.796 1.676-10.01 2.913-14.923 1.62-6.046-1.586-10.441-6.623-14.737-11.163-4.295-4.543-9.493-9.1-15.743-9.21-6.25-.11-12.436 7.032-9.116 12.33 1.286 2.046 3.546 3.22 5.464 4.692 8.03 6.162 9.615 19.156 3.302 27.067-2.68 3.358-6.392 5.705-9.68 8.47-7.113 5.985-12.423 14.384-13.625 23.602-1.203 9.219 2.081 19.16 9.284 25.037-20.631-8.482-29.94-36.939-18.31-55.977 4.346-7.116 11.316-14.041 9.886-22.256-1.555-8.951-12.039-12.984-21.021-14.343-6.32-.955-13.747-2.079-16.721-7.737-3.428-6.52 1.579-14.29 7.06-19.213 7.426-6.67 16.86-11.931 26.833-11.497 10.27.447 19.348 6.763 29.403 8.896 29.276 6.206 37.188-39.427 23.747-57.396-6.668-8.915-17.027-14.457-23.937-23.184-5.957-7.524-9.033-17.271-8.474-26.848.297-5.116 1.562-10.435-.23-15.235-1.324-3.552-4.16-6.305-7.022-8.79-15.738-13.667-50.397-34.412-71.694-25.375-8.338 3.537-15.362 11.196-16.084 20.225-.981 12.182 9.127 22.904 9.327 35.126.192 11.691-8.662 21.527-18.006 28.553-9.345 7.029-20.035 12.893-26.587 22.578-6.55 9.686-6.868 25.039 3.035 31.253-12.134-2.261-15.125-19.379-9.63-30.43 5.496-11.052 15.97-18.839 22.382-29.383 5.766-9.48 7.975-21.066 6.103-32-1.105-6.455-3.557-12.6-4.96-18.996-3.527-16.076-.013-33.568 9.448-47.035 8.297-11.809 24.66-20.629 37.009-13.156 9.117 5.519 12.365 17.744 21.36 23.46 12.056 7.661 26.389.601 39.366 1.246 15.458.768 23.78 10.985 33.537 21.777 18.5 20.458 8.727 49.404 25.47 69.841 12.043 14.706 31.525 23.163 39.365 41.292z"/></g><g opacity=".83"><path fill="#1a123d" d="M151.953 562.591c-6.902-.37-14.048-1.353-19.848-5.114-10.249-6.644-13.672-20.737-10.818-32.613 2.857-11.877 10.772-21.874 19.289-30.628 8.514-8.757 17.916-16.787 24.925-26.79 10.448-14.91 14.94-33.873 12.288-51.885-2.355-15.995-9.965-30.646-15.675-45.774-5.709-15.127-9.537-32.067-4.143-47.31 7.758-21.92 31.602-33.272 53.745-40.359l-9.632 8.96c-13.209 12.287-27.4 26.679-27.626 44.717-.19 15.36 9.88 28.623 16.413 42.524 8.422 17.922 11.182 38.457 7.788 57.967-3.89 22.36-15.237 46.705-3.622 66.203 10.54 17.695 34.572 21.093 55.149 20.189 9.387-.416 18.898-1.316 28.106.56 9.208 1.876 18.31 7.09 22.175 15.655 2.875 6.379 2.517 13.677 2.228 20.667-.519 12.593-.599 25.452 3.169 37.479 3.766 12.026 11.986 23.262 23.772 27.725-17.807-6.744-33.337-13.856-41.974-32.932-3.598-7.945-6.555-16.41-12.319-22.953-7.766-8.82-19.77-12.979-31.5-13.666-30.415-1.781-60.959 9.041-91.89 7.378z"/></g><g opacity=".83"><path fill="#1a123d" d="M201.587 114.683c8.495.054 17.14 1.924 24.648 7.211 10.793 7.6 18.462 21.629 29.391 28.876 20.96 13.894 45.519-.89 68.281-8.217 18.64-6 38.218-6.788 57.097-2.298 15.687 3.731 31.815 11.993 41.104 29.211 3.983 7.383 6.468 15.975 8.91 24.462 9.378 32.59 18.53 62.289 31.024 93.075 2.569 6.33 5.155 12.713 6.734 19.594 7.968 34.709-4.373 75.164-4.836 110.839-.552 42.456 6.827 84.437 8.337 126.853.757 21.213 1.764 42.591-.578 63.598-.67 6.012-1.758 12.342-4.993 16.634-2.47 3.278-5.867 4.927-9.068 6.776-8.824 5.093-16.927 12.393-23.757 21.403-10.64 14.035-18.673 32.605-32.256 41.024-5.391 3.341-11.312 4.821-17.16 6.27-25.61 6.34-51.217 12.684-76.825 19.027-9.293 2.3-18.655 4.61-28.106 4.481-30.748-.417-58.243-26.217-88.718-31.662-17.685-3.162-36.009.622-53.27-5.405-7.866-2.747-15.254-7.454-22.587-12.132-17.491-11.164-37.862-19.017-46.107-44.613-8.197-25.444-11.065-53.422-11.692-80.906-.363-15.821-1.011-32.73.369-48.473 1.228-14.014 5.542-27.824 7.334-42.038 3.94-31.286 2.693-63.745-3.839-94.268-3.488-16.303-8.454-32.19-9.915-49.029-2.212-25.484 3.896-51.324 13.85-73.299 9.953-21.974 23.575-40.563 37.562-58.228 6.615-8.354 13.542-16.653 20.772-24.445 23.054-24.839 49.207-44.507 78.294-44.321zM432.877 502.7c-1.823-7.056-3.97-14.008-5.56-21.159-5.556-24.984 3.047-41.155 8.22-64.105 5.306-23.543 9.322-42.977-2.742-64.884-7.153-12.99-16.941-23.08-25.7-34.306-8.76-11.228-16.835-24.447-19.035-40.142-2.003-14.309 1.029-29.712-3.163-43.206-5.473-17.623-21.551-25.843-36.227-26.452-12.653-.523-25.397 3.21-36.64 10.734-7.69 5.148-14.662 12.008-22.517 16.721-7.854 4.714-17.135 7.124-25.138 2.846-6.333-3.383-10.97-10.41-16.102-16.282-12.043-13.78-29.656-21.823-44.463-13.72-9.813 5.372-17 16.926-26.82 22.272-7.88 4.292-17.12 4.387-24.167 10.652-12.41 11.03-12.158 34.922-20.658 50.996-7.46 14.105-21.224 21.255-27.99 35.931-19.14 41.525 22.724 79.809 19.528 120.538-.616 7.844-2.84 15.307-5.058 22.65-5.749 19.02-11.666 38.18-14.061 58.365-2.395 20.186-.972 41.821 7.183 59.31 25.424 54.511 79.468 11.726 115.909 30.547 18.33 9.465 32.191 33.556 51.892 35.09 11.9.928 23.128-6.878 32.96-15.6 9.834-8.722 19.302-18.78 30.67-23.424 10.852-4.433 22.546-3.554 33.756-6.092 13.235-2.995 22.088-9.037 25.983-26.601 4.318-19.472 16.194-19.35 26.335-31.988 6.87-8.563 8.197-22.374 6.526-34.525-.665-4.826-1.722-9.518-2.921-14.166z"/></g><g><g><path fill="url(#dsyqe)" d="M211.026 267.299s28.448-2.488 32.816 32.031c.2 1.596-1.802 2.631-2.94 1.512-2.288-2.247-5.654-4.925-9.879-6.49-5.841-2.166-11.084-1.173-11.084-1.173z"/></g><g><path fill="url(#dsyqf)" d="M165.515 295.698s-14.735 24.462 14.354 43.554c1.343.884 3.154-.463 2.648-1.977-1.014-3.042-1.938-7.243-1.488-11.725.62-6.2 3.815-10.473 3.815-10.473z"/></g><g><path fill="url(#dsyqg)" d="M168.568 301.717c-18.425-29.524-20.09-73.628-15.578-76.444 4.14-2.583 43.395 18.063 61.82 47.587 3.333 5.343 8.16 20.79 7.823 29.904l-30.64 19.122c-8.079-3.663-20.09-14.828-23.425-20.17z"/></g><g><path fill="url(#dsyqh)" d="M221.697 293.196c.662 3.465 1.04 6.809.936 9.568l-30.64 19.122c-2.467-1.119-5.298-2.938-8.137-5.076z"/></g><g><path fill="url(#dsyqi)" d="M211.23 299.729c.585 2.504 1.959 8.432 2.018 8.891l-12.448 7.77c-2.239-1.89-3.737-3.868-6.394-6.163z"/></g><g><path fill="url(#dsyqj)" d="M151.3 245.489c-1.592-11.335.144-20.587 1.175-21.23.911-.567 9.716 2.323 19.257 8.48z"/></g><g><path fill="url(#dsyqk)" d="M165.43 268.429c-5.066-4.78-5.298-12.761-.519-17.828 4.78-5.066 12.761-5.299 17.828-.52 5.066 4.78 5.299 12.762.52 17.828-4.78 5.067-12.762 5.3-17.828.52z"/></g><g><path fill="url(#dsyql)" d="M166.399 264.052c2.648 4.246 8.238 5.54 12.484 2.89s5.538-8.238 2.89-12.484a9.062 9.062 0 0 0-15.374 9.594z"/></g><g><path fill="url(#dsyqm)" d="M168.977 255.451c-2.546 1.59-3.611 3.873-3.639 6.169-1.016-3.755.48-7.887 3.949-10.052a9.063 9.063 0 0 1 12.486 2.89c2.35 3.768 1.59 8.589-1.577 11.479 3.253-6.126-3.881-15.064-11.219-10.486z"/></g><g><path fill="url(#dsyqn)" d="M212.365 320.15l.053-.032a3.327 3.327 0 0 0 1.214-4.313l-11.502-22.976-9.277-10.681a3.536 3.536 0 0 0-4.537-.68l-.05.032a3.533 3.533 0 0 0-1.362 4.425l5.852 13.24 15.19 20.164a3.323 3.323 0 0 0 4.419.82z"/></g><g><path fill="url(#dsyqo)" d="M186.904 285.925a3.533 3.533 0 0 1 1.361-4.425l.051-.031.023-.013 24.112 38.636-.033.026-.053.031a3.323 3.323 0 0 1-4.419-.82l-15.19-20.163z"/></g><g opacity=".75"><path fill="#ffe6f7" d="M185.795 312.552c2.45-.177 8.83-5.365 8.83-5.365-20.294-5.76-33.016-32.772-33.821-32.27-.805.502 3.236 16.793 11.265 26.157 6.232 7.268 11.308 11.65 13.726 11.478z"/></g><g opacity=".4"><path fill="#ffe6f7" d="M172.344 264.185a3.26 3.26 0 1 0 5.53-3.451 3.26 3.26 0 0 0-5.53 3.451z"/></g><g opacity=".4"><path fill="#ffe6f7" d="M167.672 260.823a1.537 1.537 0 1 0 2.606-1.63 1.537 1.537 0 0 0-2.606 1.63z"/></g><g opacity=".4"><path fill="#ffe6f7" d="M215.552 269.742s9.937.483 16.554 7.011c6.44 6.354 8.53 15.792 8.53 15.792s-3.822-6.55-11.025-13.64c-6.67-6.562-14.059-9.163-14.059-9.163z"/></g><g opacity=".4"><path fill="#ffe6f7" d="M199.746 296.723c1.537 2.462 3.183 4.205 3.678 3.897.498-.31-.345-2.557-1.882-5.017-1.537-2.462-3.183-4.205-3.678-3.895-.496.307.347 2.555 1.882 5.015z"/></g><g opacity=".4"><path fill="#ffe6f7" d="M194.632 288.527c.657 1.054 1.5 1.711 1.883 1.473.383-.24.162-1.286-.494-2.34-.658-1.052-1.5-1.712-1.885-1.471-.383.238-.16 1.286.496 2.338z"/></g><g opacity=".4"><path fill="#ffe6f7" d="M151.643 233.833s-.047 9.615.88 9.689c.977.076 17.358-10.48 17.358-10.48s-13.348 6.858-14.996 6.342c-1.624-.51-3.242-5.55-3.242-5.55z"/></g></g><g><path fill="#fff" d="M281.455 295.557a2.222 2.222 0 1 1-4.444 0 2.222 2.222 0 0 1 4.444 0z"/></g><g><path fill="#fff" d="M304.023 306.957a2.222 2.222 0 1 1-4.445 0 2.222 2.222 0 0 1 4.445 0z"/></g><g><path fill="#fff" d="M221.172 213.204a2.22 2.22 0 1 1-4.44-.001 2.22 2.22 0 0 1 4.44.001z"/></g><g><path fill="#fff" d="M287.334 320.404a2.22 2.22 0 1 1-4.44.004 2.22 2.22 0 0 1 4.44-.004z"/></g><g><path fill="#fff" d="M267.817 318.185a2.22 2.22 0 0 1-2.222 2.22 2.22 2.22 0 1 1 0-4.442c1.227 0 2.222.995 2.222 2.222z"/></g><g><path fill="#fff" d="M227.104 243.164a2.444 2.444 0 0 1-2.445 2.443 2.444 2.444 0 1 1 0-4.89 2.446 2.446 0 0 1 2.445 2.447z"/></g><g><path fill="#ffe6f7" d="M251.734 638.466s.797 8.036 4.048 11.289c2.812 2.81 10.45 3.206 10.45 3.206s-6.909.411-10.452 3.206c-3.56 2.81-4.046 11.289-4.046 11.289s-.396-7.872-3.63-11.289c-2.475-2.614-10.865-3.206-10.865-3.206s8.361-.643 10.865-3.28c3.276-3.449 3.63-11.215 3.63-11.215z"/></g><g><path fill="#ffe6f7" d="M226.173 476.444s.784 7.939 3.997 11.151c2.778 2.779 10.323 3.169 10.323 3.169s-6.826.407-10.325 3.168c-3.519 2.774-3.995 11.152-3.995 11.152s-.392-7.777-3.588-11.152c-2.445-2.582-10.734-3.168-10.734-3.168s8.26-.637 10.734-3.24c3.236-3.407 3.588-11.08 3.588-11.08z"/></g><g><path fill="#ffe6f7" d="M317.651 347.87s.519 5.243 2.64 7.366c1.834 1.834 6.817 2.09 6.817 2.09s-4.507.27-6.82 2.094c-2.322 1.832-2.637 7.366-2.637 7.366s-.259-5.138-2.369-7.366c-1.615-1.705-7.087-2.093-7.087-2.093s5.454-.42 7.087-2.138c2.138-2.251 2.37-7.319 2.37-7.319z"/></g><g><path fill="#fff" d="M348.439 278.269a1.633 1.633 0 0 1-3.264 0 1.631 1.631 0 1 1 3.264 0z"/></g><g><path fill="#fff" d="M335.94 258.514a1.633 1.633 0 1 1-3.265-.002 1.633 1.633 0 0 1 3.265.002z"/></g><g><path fill="#fff" d="M363.193 220.07a1.632 1.632 0 1 1 3.263 0 1.632 1.632 0 0 1-3.263 0z"/></g><g><path fill="#fff" d="M168.868 356.853a1.483 1.483 0 1 1-2.965-.002 1.483 1.483 0 0 1 2.965.002z"/></g><g><path fill="#fff" d="M152.802 301.908a1.48 1.48 0 0 1-1.481 1.48 1.481 1.481 0 1 1 1.481-1.48z"/></g><g><path fill="#fff" d="M151.414 296.092a1.482 1.482 0 1 1-2.965 0 1.482 1.482 0 0 1 2.965 0z"/></g><g opacity=".21"><path fill="url(#dsyqp)" d="M299.88 410.084c-47.7-12.734-76.044-61.725-63.31-109.424 12.734-47.698 61.725-76.043 109.424-63.309 47.698 12.734 76.043 61.725 63.309 109.424-12.734 47.698-61.725 76.043-109.424 63.309z"/></g><g><path fill="url(#dsyqq)" d="M401.952 323.716c0 42.907-34.77 77.709-77.71 77.709-42.907 0-77.677-34.802-77.677-77.709 0-42.905 34.77-77.707 77.677-77.707 6.209 0 12.286.717 18.07 2.123 23.3 5.523 42.482 21.536 52.383 42.777 4.674 9.967 7.257 21.076 7.257 32.807z"/></g><g opacity=".81"><path fill="#fff" d="M317.345 304.866c-1.537 2.538-3.672 4.056-4.773 3.392-1.1-.666-.746-3.263.789-5.801 1.534-2.539 3.67-4.058 4.77-3.392 1.1.666.749 3.26-.786 5.801z"/></g><g><path fill="url(#dsyqr)" d="M324.674 270.46c-2.458 1.662-5.034 2.147-5.755 1.082-.719-1.064.687-3.274 3.145-4.937 2.456-1.663 5.032-2.148 5.753-1.083.72 1.064-.687 3.275-3.143 4.939z"/></g><g><path fill="url(#dsyqs)" d="M325.519 280.419c-1.101 1.231-2.497 1.78-3.114 1.227-.618-.552-.226-2 .875-3.232 1.102-1.229 2.496-1.779 3.113-1.227.618.555.228 2-.874 3.232z"/></g><g><path fill="url(#dsyqt)" d="M324.079 365.765c4.834 4.324 7.093 9.685 5.047 11.974-2.047 2.287-7.627.639-12.461-3.687-4.834-4.324-7.094-9.684-5.047-11.972 2.047-2.289 7.627-.638 12.46 3.685z"/></g><g><path fill="url(#dsyqu)" d="M348.585 380.467c0 1.804-3.017 3.267-6.74 3.267-3.722 0-6.739-1.463-6.739-3.267 0-1.805 3.017-3.268 6.74-3.268 3.722 0 6.739 1.463 6.739 3.268z"/></g><g><path fill="url(#dsyqv)" d="M334.7 387.891c-.685 1.103-2.909.957-4.968-.324-2.06-1.28-3.173-3.213-2.488-4.313.685-1.103 2.91-.955 4.97.324 2.059 1.282 3.172 3.213 2.486 4.313z"/></g><g><path fill="url(#dsyqw)" d="M348.95 369.233c0 1.353-1.74 2.452-3.881 2.452-2.144 0-3.88-1.099-3.88-2.452s1.736-2.45 3.88-2.45c2.142 0 3.881 1.097 3.881 2.45z"/></g><g><path fill="url(#dsyqx)" d="M318.621 288.065c-2.648 4.347-6.307 6.96-8.17 5.816-1.896-1.143-1.274-5.586 1.34-9.933 2.614-4.347 6.274-6.96 8.169-5.818 0 0 .034 0 .065.033 1.798 1.242 1.176 5.62-1.404 9.902z"/></g><g><path fill="url(#dsyqy)" d="M337.902 374.235c-.306 1.261-2.62 1.782-5.17 1.162-2.548-.62-4.365-2.144-4.06-3.405.308-1.26 2.623-1.779 5.17-1.159 2.548.62 4.365 2.142 4.06 3.402z"/></g><g><path fill="url(#dsyqz)" d="M387.748 377.492c5.637-3.693 11.135-5.274 12.28-3.526 1.144 1.745-2.497 6.157-8.133 9.853-5.635 3.695-11.133 5.274-12.278 3.528-1.144-1.747 2.496-6.16 8.13-9.855z"/></g><g><path fill="url(#dsyqA)" d="M389.72 365.742c3.573-2.344 6.992-3.447 7.635-2.462.645.982-1.729 3.676-5.302 6.018-3.573 2.342-6.992 3.447-7.635 2.463-.645-.983 1.729-3.677 5.302-6.019z"/></g><g><path fill="url(#dsyqB)" d="M376.286 382.638c2.311-1.516 4.764-1.857 5.479-.767.717 1.092-.577 3.206-2.888 4.72-2.31 1.515-4.764 1.859-5.48.767-.715-1.09.577-3.204 2.89-4.72z"/></g><g><path fill="url(#dsyqC)" d="M375.733 371.737c2.523-1.654 5.209-2.021 5.995-.822.786 1.202-.62 3.516-3.143 5.171-2.523 1.653-5.209 2.022-5.995.82-.789-1.201.62-3.514 3.143-5.169z"/></g><g opacity=".52"><path fill="url(#dsyqD)" d="M394.447 290.909c-5.75 3.626-12.678 5.719-20.13 5.719-19.9 0-36.074-15.001-36.074-33.497 0-5.392 1.37-10.49 3.822-14.999 23.3 5.523 42.48 21.536 52.382 42.777z"/></g><g><path fill="url(#dsyqE)" d="M295.36 381.152c-1.318 6.727-7.838 11.114-14.565 9.798-6.727-1.315-11.113-7.835-9.798-14.562 1.315-6.73 7.836-11.116 14.562-9.798 6.727 1.315 11.114 7.833 9.8 14.562z"/></g><g><path fill="url(#dsyqF)" d="M157.24 635.37c-2.653 13.56-15.794 22.404-29.355 19.752-13.56-2.652-22.403-15.796-19.75-29.355 2.651-13.56 15.793-22.402 29.354-19.75 13.559 2.65 22.402 15.791 19.75 29.352z"/></g><g><g><path fill="url(#dsyqG)" d="M372.24 282.092c-16.917-3.994-27.394-20.946-23.4-37.863 3.994-16.917 20.945-27.394 37.863-23.4 16.917 3.993 27.394 20.945 23.4 37.862-3.994 16.918-20.945 27.395-37.863 23.4z"/></g><g><path fill="url(#dsyqH)" d="M387.36 221.023c15.36 13.742 9.76 46.257-16.834 46.257-11.194 0-18.648-5.774-22.409-13.473 1.204 16.283 14.765 29.127 31.355 29.127 17.381 0 31.474-14.092 31.474-31.475 0-14.651-10.028-26.93-23.585-30.436z"/></g><g opacity=".81"><path fill="#fff" d="M363.09 240.535c-2.497 4.694-6.433 7.483-8.79 6.23-2.357-1.255-2.24-6.076.255-10.77 2.498-4.695 6.434-7.482 8.79-6.228 2.357 1.252 2.243 6.075-.255 10.768z"/></g><g opacity=".81"><path fill="#fff" d="M371.658 231.898c-1.067 1.098-2.486 1.448-3.17.784-.686-.666-.376-2.095.69-3.193 1.067-1.099 2.488-1.45 3.173-.784.683.666.373 2.095-.693 3.193z"/></g><g opacity=".81"><path fill="#fff" d="M361.238 253.971c-.1 2.657-1.26 4.769-2.593 4.72-1.335-.05-2.336-2.243-2.237-4.9.1-2.657 1.261-4.771 2.595-4.72 1.333.048 2.334 2.242 2.235 4.9z"/></g></g><g><path fill="url(#dsyqI)" d="M388.247 323.558c-.63 7.17-3.082 12.813-5.475 12.602-2.394-.21-3.826-6.193-3.196-13.363.63-7.172 3.084-12.813 5.477-12.602 2.395.211 3.824 6.194 3.194 13.363z"/></g><g><path fill="url(#dsyqJ)" d="M396.39 337.448c-.382 4.345-1.967 7.753-3.54 7.616-1.575-.139-2.54-3.773-2.156-8.118.38-4.344 1.966-7.753 3.539-7.616 1.572.139 2.538 3.773 2.156 8.118z"/></g><g><path fill="url(#dsyqK)" d="M368.39 342.398c-.296 3.373.579 6.202 1.956 6.324 1.376.12 2.731-2.515 3.029-5.886.295-3.37-.58-6.202-1.956-6.322-1.377-.12-2.733 2.513-3.03 5.884z"/></g><g><path fill="url(#dsyqL)" d="M377.06 326.625c-.25 2.848-1.523 5.062-2.842 4.946-1.32-.116-2.186-2.52-1.937-5.365.25-2.846 1.524-5.06 2.844-4.946 1.32.118 2.186 2.52 1.935 5.365z"/></g><g><path fill="url(#dsyqM)" d="M388.918 349.96c-.258 2.92-1.569 5.193-2.927 5.073-1.36-.12-2.253-2.584-1.996-5.506.255-2.922 1.566-5.192 2.926-5.072 1.36.118 2.254 2.582 1.997 5.504z"/></g><g><path fill="url(#dsyqN)" d="M395.915 310.182c-.179 2.035-1.326 3.597-2.561 3.49-1.236-.11-2.094-1.847-1.914-3.884.179-2.034 1.326-3.596 2.56-3.489 1.238.11 2.094 1.85 1.915 3.883z"/></g><g><path fill="url(#dsyqO)" d="M348.979 270.112c0-2.03 3.962-3.676 8.85-3.676s8.85 1.646 8.85 3.676c0 2.03-3.962 3.676-8.85 3.676s-8.85-1.646-8.85-3.676z"/></g><g><path fill="url(#dsyqP)" d="M372.28 281.935c0 1.943-3.293 3.516-7.353 3.516s-7.352-1.573-7.352-3.516c0-1.942 3.292-3.516 7.352-3.516 4.06 0 7.353 1.574 7.353 3.516z"/></g><g><path fill="url(#dsyqQ)" d="M351.876 260.346c.45 2.07-3.833 4.758-9.565 6.002-5.731 1.244-10.742.575-11.193-1.495-.45-2.07 3.834-4.758 9.566-6.001 5.732-1.246 10.743-.576 11.192 1.494z"/></g><g><path fill="url(#dsyqR)" d="M355.885 280.177c0 .97-2.439 1.758-5.447 1.758s-5.445-.789-5.445-1.758c0-.972 2.437-1.758 5.445-1.758 3.008 0 5.447.786 5.447 1.758z"/></g><g><path fill="url(#dsyqS)" d="M360.97 310.189c0 1.804-2.285 3.267-5.105 3.267-2.82 0-5.106-1.463-5.106-3.267 0-1.805 2.285-3.268 5.106-3.268 2.82 0 5.105 1.463 5.105 3.268z"/></g><g><path fill="url(#dsyqT)" d="M374.648 331.21c0 1.263-2.127 2.287-4.752 2.287-2.626 0-4.753-1.024-4.753-2.287 0-1.26 2.127-2.285 4.753-2.285 2.625 0 4.752 1.025 4.752 2.285z"/></g><g><path fill="url(#dsyqU)" d="M369.959 313.676c0 .94-1.586 1.699-3.54 1.699s-3.54-.76-3.54-1.7c0-.937 1.586-1.699 3.54-1.699s3.54.762 3.54 1.7z"/></g><g><path fill="url(#dsyqV)" d="M356.873 355.037c0 .939-1.586 1.7-3.54 1.7-1.956 0-3.541-.761-3.541-1.7 0-.938 1.585-1.699 3.541-1.699 1.954 0 3.54.761 3.54 1.7z"/></g><g><path fill="url(#dsyqW)" d="M386.526 334.383c-1.023 1.68-2.481 2.629-3.285 2.152 0 0-.073-.036-.145-.107-.622-.658-.439-2.264.51-3.797 1.02-1.678 2.481-2.662 3.284-2.152.801.474.62 2.226-.364 3.904z"/></g><g><path fill="url(#dsyqX)" d="M350.62 303.534c0 2.555-4.024 4.629-8.986 4.629-4.962 0-8.987-2.074-8.987-4.63s4.025-4.629 8.987-4.629 8.986 2.073 8.986 4.63z"/></g><g><path fill="url(#dsyqY)" d="M340.3 293.078c0 1.465-2.306 2.654-5.15 2.654-2.843 0-5.15-1.19-5.15-2.654 0-1.465 2.307-2.652 5.15-2.652 2.844 0 5.15 1.187 5.15 2.652z"/></g><g><path fill="url(#dsyqZ)" d="M312.076 318.248c1.402-.424 3.207 1.44 4.03 4.161.823 2.724.355 5.274-1.05 5.698-1.4.424-3.206-1.44-4.028-4.161-.824-2.724-.354-5.274 1.048-5.698z"/></g><g><path fill="url(#dsyqaa)" d="M339.543 316.467c.284-1.364 1.85-2.19 3.495-1.847 1.644.344 2.747 1.729 2.46 3.092-.284 1.364-1.85 2.19-3.495 1.847-1.644-.343-2.747-1.729-2.46-3.092z"/></g><g><path fill="url(#dsyqab)" d="M351.578 299.67c.144-.683 1.592-.957 3.236-.614 1.644.346 2.863 1.179 2.72 1.86-.144.68-1.592.955-3.236.61-1.645-.343-2.863-1.175-2.72-1.856z"/></g><g><path fill="url(#dsyqac)" d="M368.161 251.76v.066l-.032.293c-.425 1.568-3.659 2.713-7.548 2.616-4.117-.1-7.419-1.602-7.419-3.27v-.032c.066-1.732 3.464-3.04 7.581-2.909 4.12.1 7.418 1.537 7.418 3.236z"/></g><g><path fill="url(#dsyqad)" d="M356.94 321.284c-.005-.696 1.352-1.274 3.032-1.289 1.68-.014 3.046.538 3.053 1.236.006.698-1.352 1.273-3.032 1.288-1.68.015-3.046-.538-3.052-1.236z"/></g><g><path fill="url(#dsyqae)" d="M374.714 301.702c-.006-.696 1.351-1.273 3.031-1.288 1.68-.015 3.049.537 3.055 1.235.004.696-1.351 1.273-3.031 1.288-1.683.015-3.049-.537-3.055-1.235z"/></g><g><path fill="url(#dsyqaf)" d="M366.232 347.035c0 1.43-2.378 2.589-5.31 2.589-2.932 0-5.31-1.16-5.31-2.589 0-1.427 2.378-2.586 5.31-2.586 2.932 0 5.31 1.16 5.31 2.586z"/></g><g><path fill="url(#dsyqag)" d="M329.487 336.295c3.364 4.144 4.437 8.85 2.395 10.506-2.043 1.66-6.428-.356-9.792-4.5-3.365-4.147-4.438-8.852-2.395-10.509 2.042-1.659 6.425.356 9.792 4.503z"/></g><g opacity=".7"><path fill="url(#dsyqah)" d="M376.587 350.935c4.6-2.713 9.41-3.075 10.746-.81 1.337 2.267-1.306 6.304-5.906 9.017-4.598 2.713-9.408 3.073-10.747.807-1.336-2.266 1.31-6.3 5.907-9.014z"/></g><g opacity=".7"><path fill="url(#dsyqai)" d="M355.649 391.486v.035c-.072 1.788-2.7 3.14-5.911 3.03-3.137-.074-5.654-1.607-5.654-3.358v-.072c.036-1.788 2.698-3.175 5.873-3.065 3.174.11 5.692 1.642 5.692 3.43z"/></g><g opacity=".7"><path fill="url(#dsyqaj)" d="M368.4 310.532c-2.082-2.428-2.662-5.346-1.298-6.513 1.366-1.17 4.159-.15 6.24 2.278 2.08 2.427 2.662 5.344 1.296 6.514-1.364 1.168-4.157.148-6.238-2.279z"/></g><g><path fill="url(#dsyqak)" d="M340.222 340.353c2.441 2.344 3.447 5.257 2.245 6.51-1.202 1.25-4.155.364-6.596-1.98-2.439-2.344-3.445-5.26-2.243-6.51s4.155-.364 6.594 1.98z"/></g><g><path fill="url(#dsyqal)" d="M311.52 336.733c.408 2.524-.54 4.777-2.119 5.034-1.581.255-3.194-1.583-3.603-4.106-.41-2.523.538-4.777 2.119-5.034 1.579-.255 3.194 1.58 3.602 4.106z"/></g><g><path fill="url(#dsyqam)" d="M435.032 335.903a6.24 6.24 0 1 1-8.23-9.383 6.24 6.24 0 0 1 8.23 9.383z"/></g><g><path fill="url(#dsyqan)" d="M343.136 206.732a6.24 6.24 0 0 1-8.806-.577 6.24 6.24 0 0 1 .576-8.806 6.242 6.242 0 0 1 8.807.576 6.242 6.242 0 0 1-.577 8.807z"/></g><g><path fill="url(#dsyqao)" d="M424.852 355.72a1.949 1.949 0 1 1-2.567-2.931 1.949 1.949 0 0 1 2.567 2.931z"/></g><g><path fill="url(#dsyqap)" d="M432.894 350.252a1.192 1.192 0 1 1 0 0z"/></g><g><path fill="url(#dsyqaq)" d="M417.193 342.33a1.191 1.191 0 1 1-1.572-1.79 1.191 1.191 0 0 1 1.572 1.79z"/></g><g><path fill="url(#dsyqar)" d="M332.376 225.937a1.949 1.949 0 1 1-2.567-2.932 1.949 1.949 0 0 1 2.567 2.932z"/></g><g><path fill="url(#dsyqas)" d="M338.468 220.468a1.194 1.194 0 0 1-1.573-1.794 1.192 1.192 0 0 1 1.573 1.794z"/></g><g><path fill="url(#dsyqat)" d="M326.459 212.546a1.19 1.19 0 1 1-1.57-1.791 1.191 1.191 0 1 1 1.57 1.791z"/></g><g><path fill="url(#dsyqau)" d="M405.732 281.935a1.193 1.193 0 1 1 0 0z"/></g><g><g><path fill="url(#dsyqav)" d="M412.695 382.965c-7.021-6.647-13.777-12.752-22.511-20.303-.323.525-.951 1.594-.951 1.594 8.662 7.49 15.239 13.439 22.208 20.033 29.995 28.39 27.847 33.142 27.506 33.591-.304.392-1.041.477-1.61.477-12.219 0-65.169-33.537-123.159-78.004-68.368-52.423-111.393-94.978-107.249-100.383.304-.392 1.042-.474 1.607-.474 7.462 0 28.077 11.153 57.779 31.009l1.305-1.356c-30.364-20.321-51.188-31.477-59.084-31.477-1.421 0-2.448.399-3.053 1.187-6.412 8.365 50.644 59.28 107.584 102.94 59.226 45.416 111.49 78.383 124.27 78.383 1.425 0 2.451-.402 3.056-1.19 2.894-3.774-6.425-15.895-27.698-36.027z"/></g></g><g><path fill="#ffe6f7" d="M365.094 443.268s.327 3.303 1.666 4.641c1.155 1.156 4.294 1.318 4.294 1.318s-2.84.169-4.296 1.32c-1.466 1.153-1.664 4.64-1.664 4.64s-.162-3.236-1.492-4.64c-1.018-1.076-4.467-1.32-4.467-1.32s3.436-.266 4.467-1.35c1.347-1.416 1.492-4.61 1.492-4.61z"/></g><g><path fill="#ffe6f7" d="M394.711 488.614s.413 4.18 2.104 5.87c1.463 1.464 5.435 1.668 5.435 1.668s-3.594.215-5.437 1.668c-1.85 1.46-2.102 5.87-2.102 5.87s-.206-4.093-1.889-5.87c-1.286-1.36-5.649-1.668-5.649-1.668s4.347-.335 5.65-1.705c1.703-1.794 1.888-5.833 1.888-5.833z"/></g><g><path fill="#ffe6f7" d="M376.756 508.88s.335 3.38 1.7 4.748c1.183 1.18 4.396 1.347 4.396 1.347s-2.905.173-4.395 1.349c-1.5 1.183-1.701 4.747-1.701 4.747s-.167-3.31-1.527-4.747c-1.04-1.098-4.57-1.35-4.57-1.35s3.517-.27 4.57-1.378c1.377-1.45 1.527-4.716 1.527-4.716z"/></g><g><path fill="#ffe6f7" d="M326.091 508.88s.335 3.38 1.703 4.748c1.183 1.18 4.393 1.347 4.393 1.347s-2.904.173-4.395 1.349c-1.496 1.183-1.7 4.747-1.7 4.747s-.167-3.31-1.527-4.747c-1.041-1.098-4.57-1.35-4.57-1.35s3.516-.27 4.57-1.378c1.377-1.45 1.526-4.716 1.526-4.716z"/></g><g><path fill="#ffe6f7" d="M407.672 546.667s.28 2.833 1.427 3.98c.99.99 3.682 1.13 3.682 1.13s-2.434.145-3.684 1.132c-1.257.989-1.425 3.978-1.425 3.978s-.142-2.774-1.282-3.978c-.87-.923-3.828-1.132-3.828-1.132s2.947-.226 3.828-1.155c1.155-1.217 1.282-3.955 1.282-3.955z"/></g><g><path fill="#ffe6f7" d="M379.925 545.38s.143 1.464.738 2.059c.512.512 1.906.584 1.906.584s-1.261.075-1.906.586c-.651.512-.738 2.06-.738 2.06s-.074-1.436-.664-2.06c-.451-.477-1.982-.586-1.982-.586s1.525-.116 1.982-.597c.599-.63.664-2.047.664-2.047z"/></g><g><path fill="url(#dsyqaw)" d="M398.934 536.603c0 6.932-5.62 12.552-12.553 12.552-6.932 0-12.552-5.62-12.552-12.552 0-6.933 5.62-12.553 12.552-12.553 6.933 0 12.553 5.62 12.553 12.553z"/></g><g><path fill="url(#dsyqax)" d="M189.072 184.339c0-13.223 10.72-23.942 23.942-23.942 13.223 0 23.942 10.72 23.942 23.942 0 13.223-10.72 23.942-23.942 23.942-13.223 0-23.942-10.72-23.942-23.942z"/></g><g><path fill="url(#dsyqay)" d="M124.529 575.581c0 5.852-4.744 10.595-10.593 10.595-5.852 0-10.595-4.743-10.595-10.595 0-5.85 4.743-10.593 10.595-10.593 5.85 0 10.593 4.743 10.593 10.593z"/></g><g><path fill="url(#dsyqaz)" d="M337.917 455.366a6.674 6.674 0 0 1-6.676 6.674 6.675 6.675 0 1 1 0-13.35 6.676 6.676 0 0 1 6.676 6.676z"/></g><g><g opacity=".2"><path fill="url(#dsyqaA)" d="M385.515 613.699c0 33.895-27.475 61.342-61.345 61.342-5.055 0-9.981-.62-14.676-1.78-12.28-2.993-23.14-9.726-31.239-18.883a55.506 55.506 0 0 1-4.23-5.34 48.346 48.346 0 0 1-2.246-3.38 61.183 61.183 0 0 1-5.854-12.64 60.682 60.682 0 0 1-2.915-14.78 53.215 53.215 0 0 1-.181-4.54c0-33.87 27.446-61.316 61.341-61.316.595 0 1.162 0 1.729.05a59.956 59.956 0 0 1 19.194 3.612c23.576 8.565 40.422 31.135 40.422 57.655z"/></g><g><path fill="url(#dsyqaB)" d="M377.553 613.517c0 29.913-24.245 54.135-54.135 54.135a53.94 53.94 0 0 1-12.952-1.57c-10.837-2.642-20.42-8.583-27.569-16.665a49.33 49.33 0 0 1-3.733-4.711c-.432-.616-.864-1.23-1.275-1.868a19.208 19.208 0 0 1-.705-1.115 72.21 72.21 0 0 1-1.275-2.23 52.813 52.813 0 0 1-3.894-8.926 53.608 53.608 0 0 1-2.571-13.042 46.84 46.84 0 0 1-.16-4.008c0-29.548 23.675-53.54 53.11-54.088.34-.023.683-.023 1.024-.023.523 0 1.025 0 1.524.046a52.29 52.29 0 0 1 13.955 2.21c1.002.295 2.003.613 2.983.978 20.807 7.557 35.673 27.476 35.673 50.877z"/></g><g opacity=".68"><path fill="url(#dsyqaC)" d="M310.466 666.081c-10.837-2.641-20.42-8.581-27.569-16.664a54.044 54.044 0 0 0 21.422 3.164c30.004-1.593 53.04-27.225 51.447-57.205-.091-1.55-.228-3.05-.456-4.554a57.125 57.125 0 0 1 3.302 16.253c1.547 29.412-19.6 54.748-48.146 59.006z"/></g><g opacity=".68"><path fill="url(#dsyqaD)" d="M301.064 609.74c-6.897 10.129-18.78 17.345-23.722 19.394-1.707.706-3.505 1.343-5.327 1.433a53.614 53.614 0 0 1-2.572-13.042c.205.114.433.181.684.227 9.492 1.366 29.866-15.23 35.012-34.146.955-3.461.067-6.26-1.526-7.717-1.185-1.071-2.775-1.786-4.349-1.73-8.07.284-13.658 9.515-15.66 16.138-.526 1.731-.935 3.53-.66 5.306.271 1.752 1.365 3.506 3.05 4.075 1.138.386 2.48.068 3.322-.706-1.615 2.207-4.756 3.345-7.374 2.414-.706-.251-1.366-.616-1.845-1.162-.866-.934-1.138-2.253-1.229-3.529-.34-5.963 2.99-11.489 6.647-16.209 3.801-4.905 8.194-7.892 13.59-9.857 2.81-1.022 6.125-1.182 8.72.297 2.116 1.23 3.482 3.55 3.984 5.964.5 2.414 1.296 15.092-10.745 32.85z"/></g><g opacity=".68"><path fill="url(#dsyqaE)" d="M344.908 581.922c0 34.715-28.137 62.851-62.852 62.851-.98 0-1.935-.023-2.892-.067a41.998 41.998 0 0 1-1.98-2.983c29.435-4.007 52.107-29.274 52.107-59.8 0-7.946-1.524-15.527-4.349-22.47a52.869 52.869 0 0 1 16.938 3.187c1.98 6.077 3.028 12.566 3.028 19.282z"/></g><g opacity=".15"><path fill="#fff" d="M285.309 604.088c-13.195-2.338-10.338 17.172-8.439 24.399 1.978 7.519 6.048 14.528 11.904 19.684 2.131 1.877 4.52 3.55 7.25 4.33 2.728.78 5.85.557 8.152-1.102 3.701-2.669 4.207-7.964 3.737-12.503-1.123-10.873-5.989-21.323-13.584-29.184-2.504-2.593-5.473-4.996-9.02-5.624z"/></g><g opacity=".18"><path fill="#fff" d="M300.15 609.223c1.454 2.663 3.918 5.176 6.952 5.17 2.24-.007 4.296-1.44 5.552-3.294 1.259-1.855 1.828-4.083 2.214-6.29 1.085-6.238.79-12.918-2.134-18.534-1.665-3.196-5.19-7.226-9.134-5.662-3.122 1.24-5.596 5.466-5.953 8.62-.765 6.781-.77 14.001 2.502 19.99z"/></g><g opacity=".37"><path fill="#7f134d" d="M344.418 568.28c9.404 3.359 19.847 15.434 23.237 20.752 7.648 12.002 9.052 27.833 4.355 41.265-7.068 20.212-24.86 33.133-46.094 34.473-4.747.3-9.539.053-14.223-.782-3.778-.674-10.801-1.726-13.342-4.77 8.435 1.78 17.54.139 24.818-4.478 1.916-1.214 3.765-2.692 4.775-4.722 1.583-3.183.765-7.1-.987-10.194-1.752-3.095-4.332-5.62-6.539-8.407s-4.117-6.06-4.128-9.615c-.002-.77.09-1.55.374-2.264.383-.961 1.102-1.76 1.922-2.393 2.17-1.671 5.043-2.236 7.773-2.015 2.73.221 5.348 1.164 7.859 2.258 6.085 2.654 11.75 6.24 17.95 8.611 2.708 1.037 5.933 1.786 8.366.205 2.064-1.339 2.89-4 2.886-6.462-.017-9.155-7.871-17.863-15.146-22.402-4.539-2.829-9.402-5.129-13.797-8.185-2.56-1.78-11.634-8.142-8.692-12.062.565-.755 1.526-1.095 2.452-1.28 5.297-1.063 10.53 1.56 15.627 3.345 1.456.51 3.463.761 4.19-.598.237-.44.266-.962.247-1.461-.128-3.255-2.038-6.132-3.883-8.818z"/></g><g opacity=".37"><path fill="#7f134d" d="M353.023 613.292c.917-2.696-2.525-7.627-4.852-9.746-2.28-2.078-8.239-6.535-11.578-5.394-5.493 1.876-1.752 8.325.894 10.793 2.753 2.568 7.591 6.128 11.643 6.19 2.346.033 3.508-.707 3.893-1.843z"/></g></g><g><path fill="#fff" d="M209.463 609.497a1.7 1.7 0 1 1-2.709-2.057 1.7 1.7 0 0 1 2.709 2.057z"/></g><g><path fill="#fff" d="M196.502 561.122a1.631 1.631 0 1 1-2.6-1.972 1.631 1.631 0 0 1 2.6 1.972z"/></g><g><path fill="#fff" d="M144.958 622.77c0 .952-.772 1.722-1.724 1.722a1.721 1.721 0 1 1 0-3.445c.952 0 1.724.772 1.724 1.723z"/></g><g><path fill="#fff" d="M167.761 596.082a1.723 1.723 0 1 1 3.446 0 1.723 1.723 0 0 1-3.446 0z"/></g><g><path fill="#fff" d="M145.374 579.262a1.724 1.724 0 1 1-3.448.001 1.724 1.724 0 0 1 3.448-.001z"/></g><g><path fill="#fff" d="M166.31 550.927a1.721 1.721 0 1 1-3.445 0 1.723 1.723 0 0 1 3.445 0z"/></g><g><path fill="#fff" d="M224.17 550.592a1.635 1.635 0 0 1-2.288.312 1.633 1.633 0 0 1-.31-2.287 1.63 1.63 0 0 1 2.285-.31 1.63 1.63 0 0 1 .312 2.285z"/></g><g><path fill="#fff" d="M210.458 524.284a1.635 1.635 0 0 1-2.287.312 1.635 1.635 0 0 1-.312-2.287 1.635 1.635 0 0 1 2.287-.312c.716.546.856 1.57.312 2.287z"/></g><g><path fill="#fff" d="M354.829 525.386a1.633 1.633 0 0 1-2.598-1.975 1.632 1.632 0 0 1 2.598 1.975z"/></g><g><path fill="#fff" d="M327.788 499.976a1.723 1.723 0 1 1 3.445 0 1.723 1.723 0 0 1-3.445 0z"/></g><g><path fill="#fff" d="M391.35 489.602a1.63 1.63 0 0 1-2.285.31 1.631 1.631 0 1 1 2.285-.31z"/></g><g><path fill="#fff" d="M375.396 473.332a1.633 1.633 0 1 1 0 0z"/></g><g><path fill="#fff" d="M182.687 645.884a1.633 1.633 0 1 1-2.6-1.976 1.633 1.633 0 0 1 2.6 1.976z"/></g><g><path fill="#fff" d="M202.696 584.831a1.631 1.631 0 1 1-2.599-1.975 1.631 1.631 0 0 1 2.599 1.975z"/></g><g><path fill="#fff" d="M132.952 530.079a1.632 1.632 0 1 1-2.598-1.978 1.632 1.632 0 0 1 2.598 1.978z"/></g><g><path fill="#ffe6f7" d="M188.011 594.37s.531 5.36 2.7 7.53c1.877 1.876 6.972 2.14 6.972 2.14s-4.608.274-6.974 2.14c-2.375 1.873-2.698 7.531-2.698 7.531s-.265-5.25-2.422-7.532c-1.65-1.743-7.25-2.14-7.25-2.14s5.578-.43 7.25-2.187c2.186-2.3 2.422-7.482 2.422-7.482z"/></g><g><path fill="#fff" d="M139.514 321.026a1.702 1.702 0 0 1-2.71-2.06 1.701 1.701 0 1 1 2.71 2.06z"/></g><g><path fill="#fff" d="M135.46 266.531a1.632 1.632 0 1 1-2.6-1.975 1.632 1.632 0 0 1 2.6 1.975z"/></g><g><path fill="#fff" d="M103.292 301.491a1.723 1.723 0 1 1-3.446-.002 1.723 1.723 0 0 1 3.446.002z"/></g><g><path fill="#fff" d="M142.282 331.575a1.723 1.723 0 1 1-3.447-.002 1.723 1.723 0 0 1 3.447.002z"/></g><g><path fill="#fff" d="M142.85 256.002a1.632 1.632 0 1 1-.31-2.287c.716.545.856 1.57.31 2.287z"/></g><g><path fill="#fff" d="M153.503 229.693a1.632 1.632 0 1 1-2.597-1.977 1.632 1.632 0 0 1 2.597 1.977z"/></g><g><path fill="#fff" d="M132.72 282.445a1.63 1.63 0 0 1-2.285.31 1.631 1.631 0 1 1 2.285-.31z"/></g><g><path fill="#ffe6f7" d="M124.077 299.777s.53 5.361 2.7 7.532c1.875 1.876 6.97 2.14 6.97 2.14s-4.609.274-6.972 2.14c-2.377 1.874-2.698 7.532-2.698 7.532s-.266-5.254-2.424-7.532c-1.65-1.746-7.248-2.14-7.248-2.14s5.578-.43 7.248-2.188c2.188-2.3 2.424-7.484 2.424-7.484z"/></g><g><path fill="#fff" d="M226.016 406.592a1.481 1.481 0 1 1-2.963 0 1.481 1.481 0 0 1 2.963 0z"/></g><g><path fill="#fff" d="M236.89 425.71a1.7 1.7 0 1 1-2.707-2.06 1.703 1.703 0 0 1 2.384-.325c.747.57.892 1.636.323 2.385z"/></g><g><path fill="#fff" d="M217.942 436.258a1.724 1.724 0 1 1-3.447.002 1.724 1.724 0 0 1 3.447-.002z"/></g><g><path fill="#fff" d="M230.106 387.128a1.632 1.632 0 1 1 0 0z"/></g><g><path fill="#ffe6f7" d="M203.931 404.463s.531 5.36 2.7 7.53c1.877 1.876 6.972 2.14 6.972 2.14s-4.61.275-6.974 2.139c-2.375 1.874-2.698 7.532-2.698 7.532s-.265-5.251-2.422-7.532c-1.653-1.743-7.25-2.14-7.25-2.14s5.578-.428 7.25-2.186c2.186-2.302 2.422-7.483 2.422-7.483z"/></g><g><path fill="#ffe6f7" d="M159.158 623.048s.413 4.17 2.1 5.856c1.458 1.459 5.42 1.663 5.42 1.663s-3.584.215-5.422 1.666c-1.847 1.456-2.098 5.856-2.098 5.856s-.206-4.084-1.885-5.856c-1.283-1.358-5.636-1.666-5.636-1.666s4.338-.333 5.636-1.699c1.7-1.79 1.885-5.82 1.885-5.82z"/></g><g><path fill="#ffe6f7" d="M128.709 562.32s.413 4.167 2.1 5.856c1.458 1.458 5.42 1.663 5.42 1.663s-3.584.213-5.423 1.663c-1.847 1.459-2.097 5.856-2.097 5.856s-.207-4.083-1.883-5.856c-1.286-1.355-5.637-1.663-5.637-1.663s4.337-.333 5.637-1.701c1.7-1.79 1.883-5.819 1.883-5.819z"/></g><g><g opacity=".13"><path fill="#69e1ed" d="M224.218 451.194c-8.304 42.462-49.459 70.155-91.923 61.852-42.463-8.306-70.154-49.46-61.85-91.923 8.303-42.465 49.459-70.154 91.921-61.85 42.464 8.303 70.156 49.456 61.852 91.92z"/></g><g><path fill="url(#dsyqaF)" d="M211.875 448.694c-6.954 35.666-41.52 58.9-77.16 51.923-2.001-.4-3.95-.875-5.878-1.425-14.056-4.102-25.861-12.632-34.14-23.711a65.695 65.695 0 0 1-10.955-22.611c-2.477-9.303-2.926-19.308-.95-29.414a64.488 64.488 0 0 1 5.501-16.33c12.756-26.088 41.82-41.445 71.657-35.593a65.83 65.83 0 0 1 16.384 5.53c13.856 6.777 24.66 18.156 30.889 31.837 5.477 12.03 7.378 25.836 4.652 39.794z"/></g><g><path fill="#fff" d="M113.362 391.583c1.318.373 2.637.935 3.919 1.374 1.516.519 3.09.87 4.686 1.043 1.02.112 2.09.144 3.042-.242 1.813-.734 2.713-2.717 3.995-4.195 2.253-2.595 5.79-3.655 9.189-4.163 3.398-.508 6.902-.599 10.125-1.79 1.505-.555 3.03-1.461 3.61-2.956.233-.598.296-1.25.484-1.865.68-2.241 6.88-3.858 5.578-6.012-.302-.502-.835-.814-1.362-1.07-3.038-1.477-6.512-1.738-9.89-1.774-18.151-.196-34.786 5.01-45.902 20.054-.839 1.136-1.653 2.373-1.794 3.777-.465 4.61 3.883 2.79 5.831.92 1.24-1.192 2.405-2.566 4.016-3.165 1.452-.54 2.964-.362 4.473.064z"/></g><g><path fill="#fff" d="M142.717 494.691c-1.845-.097-3.7-.198-5.47.194-.865.192-1.765.55-2.241 1.299-.61.957-.31 2.278.402 3.162 2.698 3.35 8.228 3.448 12.107 3.467 7.555.036 15.167-1 22.248-3.636 2.567-.957 21.774-10.858 17.919-14.457-.77-.717-1.963-.725-2.985-.483-3.616.86-6.323 4.21-9.997 4.769-4.058.617-7.815-2.344-11.906-2.699a9.624 9.624 0 0 0-6.234 1.649c-2.513 1.733-4.15 4.633-6.902 5.951-2.14 1.024-4.53.91-6.941.784z"/></g><g><path fill="url(#dsyqaG)" d="M208.149 430.71c-1.152 5.304-5.43 9.83-10.657 11.305-1.25.325-2.55.525-3.55 1.326-1.676 1.301-1.901 3.702-1.977 5.804-.1 1.95-.175 3.95.324 5.826.277 1.126.751 2.226.951 3.377.576 3.626-1.85 6.978-4.15 9.853-.426.576-.9 1.151-1.577 1.377-1.124.426-2.401-.35-3.025-1.377-.626-1.05-.801-2.274-1.075-3.45-1.478-6.303-6.278-11.205-10.882-15.758-1.1-1.1-2.35-2.275-3.925-2.401-1.476-.125-3.103.702-4.353-.074-1.301-.826-1.175-2.702-1.301-4.252-.325-3.803-3.126-7.053-3.426-10.88-.35-4.203 2.526-8.128 6.154-10.28 3.626-2.176 7.877-2.901 12.028-3.626l8.48-1.425c1.3-.226 2.65-.477 3.652-1.351.801-.726 1.25-1.775 1.374-2.853 1.027-8.603-14.931-8.529-18.706-3.55-1.202 1.55-1.577 3.576-2.427 5.327-.874 1.775-2.626 3.426-4.553 3.05-1.2-.248-2.1-1.199-3.101-1.875-2.751-1.851-4.15 1.075-6.752 1.401-1.476.2-2.926-.75-3.628-2.076-.675-1.3-.7-2.875-.35-4.328.35-1.45 1.075-2.825 1.126-4.3.076-1.501-.85-3.202-2.35-3.253-.15 1.052-.776 2.026-1.651 2.627-1.052-.926-2.777-.475-3.852.426-1.1.874-1.876 2.124-3.052 2.925-1.151.802-3.002.951-3.776-.225-.326-.5-.4-1.1-.35-1.701.224-2.7 2.7-4.552 4.275-6.778 2.127-3.027 2.802-7.152 5.779-9.328 2.801-2.05 6.427-1.577 9.68-1.7 4-.15 4.7-1.327 7.601-3.703a83.12 83.12 0 0 1 11.207-7.728c13.856 6.778 24.66 18.157 30.889 31.838-.502 1.526-1.052 3.027-1.851 4.427-.576 1.001-1.3 1.952-1.726 3.052a5.892 5.892 0 0 0 .6 5.203c.974 1.501 2.652 2.525 3.502 4.126.8 1.5.75 3.326.4 5.002z"/></g><g><path fill="url(#dsyqaH)" d="M118.112 403.81a12.403 12.403 0 0 1 4.933.169c.94.222 1.99.707 2.183 1.654.247 1.205-1.016 2.106-1.766 3.082-1.64 2.137-.917 5.303-2.108 7.72-1.457 2.948-4.777 3.252-6.913 5.368-1.96 1.942-1.844 4.843-3.183 7.075-1.444 2.407-3.212 2.789-4.758.618-1.968-2.768-2.177-4.895-.75-7.943.862-1.834 1.522-3.909 1.003-5.87-.508-1.907-2.055-3.397-2.628-5.288-1.995-6.58 5.103-6.282 9.342-6.004 1.563.101 3.095-.335 4.645-.582z"/></g><g><path fill="url(#dsyqaI)" d="M107.428 460.524c-1.126-.7-2.252-1.377-3.402-2.076-1.326-.8-2.7-1.626-4.252-1.976-2.675-.626-5.502.325-8.205-.124-1.6-.276-3.1-1.001-4.551-1.727-1.1-.55-2.226-1.125-3.276-1.751-2.477-9.303-2.926-19.308-.95-29.414a64.488 64.488 0 0 1 5.501-16.33c.725-.325 1.501-.602 2.252-.85 2.101-.726 4.602-2.127 6.904-1.877 4.576.525 1.775 5.427.7 8.028-.675 1.65-1.377 3.377-1.152 5.152.226 1.752 1.301 3.253 1.927 4.903 1.501 4.126 0 9.255 2.627 12.781.999 1.35 2.475 2.25 3.55 3.502 1.1 1.275 1.802 3.177.877 4.576-1.351-1.775-4.004-2.175-6.103-1.376-2.077.8-3.679 2.553-4.853 4.452-.8 1.25-1.402 2.977-.476 4.128.352.425.851.674 1.326.95a43.574 43.574 0 0 1 11.556 9.029z"/></g><g><path fill="url(#dsyqaJ)" d="M129.661 477.357c-.623 3.3.903 6.678.55 10.03-.349 3.35-2.575 6.526-1.848 9.804.125.675.399 1.324.475 2-14.057-4.101-25.862-12.63-34.14-23.71v-.051c.074-1.925.799-3.925.15-5.753-.526-1.4-1.851-2.55-1.851-4.052.025-1.675 1.775-2.875 3.425-2.95 1.676-.075 3.253.65 4.777 1.275a42.998 42.998 0 0 0 11.031 2.826c.85.102 1.724.15 2.551-.05 2.576-.624 3.8-3.476 5.778-5.226 2.35-2.051 6.002-2.452 8.727-.95 2.728 1.5 4.354 4.776 3.877 7.852-.5 3.177-2.926 5.778-3.502 8.955z"/></g><g opacity=".28"><path fill="#fff" d="M100.09 455.413c-11.116-3.17-16.376-18.897-11.748-35.13 4.627-16.231 17.39-26.82 28.507-23.652 11.117 3.17 16.377 18.898 11.749 35.13-4.628 16.232-17.391 26.821-28.508 23.652z"/></g><g opacity=".28"><path fill="#fff" d="M132.577 462.807c-1.84 6.457-6.919 10.67-11.341 9.41-4.423-1.26-6.514-7.52-4.674-13.976 1.84-6.457 6.919-10.671 11.342-9.41 4.422 1.26 6.515 7.519 4.673 13.976z"/></g></g></g></g></g></svg>